<svg width="238" height="213" fill="none" xmlns="http://www.w3.org/2000/svg"><g clip-path="url(#clip0_85_178)" fill="#F5F5F5"><path d="M0 138.22h2.293v30.304h19.102v2.337H0V138.22zm22.814 20.562c0-6.967 5.312-12.522 12.133-12.522 6.821 0 12.133 5.458 12.133 12.426 0 .436-.052.584-.052.924H25.152c.392 5.362 4.387 9.402 9.795 9.402 3.558 0 6.384-1.509 8.33-4.579l2.19.584c-2.145 3.802-6.043 6.184-10.527 6.184-6.82 0-12.132-5.503-12.132-12.425l.006.006zm21.876-.976c-.391-5.503-4.483-9.453-9.743-9.453-5.26 0-9.403 4.046-9.795 9.453H44.69zm18.466-3.461c0-9.01 7.406-16.465 16.372-16.465 4.29 0 8.671 1.9 11.741 5.066l-1.657 1.657c-2.582-2.825-6.288-4.431-10.084-4.431-7.746 0-14.079 6.428-14.079 14.179s6.288 14.52 14.08 14.52c3.602 0 7.597-1.805 10.135-4.579l1.657 1.657c-3.122 3.217-7.554 5.259-11.793 5.259-8.966 0-16.372-7.892-16.372-16.857v-.006zm32.693-16.125h11.015c7.701 0 11.889 3.217 11.889 9.838 0 5.259-2.338 8.329-7.213 9.453l8.427 13.35h-2.775l-8.189-12.959c-.681.052-1.362.052-2.146.052h-8.67v12.907h-2.338V138.22zm2.338 2.145v15.489h8.67c6.333 0 9.603-2.241 9.603-7.841 0-5.311-3.507-7.648-9.603-7.648h-8.67zm26.603 30.496V138.22h2.293v32.641h-2.293zm9.955-9.6c.977 3.898 5.068 7.5 9.403 7.552 5.119.051 8.671-2.877 8.671-6.184 0-4.386-4.187-5.844-7.258-7.116-.879-.34-4.29-1.605-5.459-2.093-3.019-1.22-6.577-3.802-6.577-7.892 0-4.091 4.046-7.552 10.476-7.648 6.236-.097 10.283 3.557 10.668 8.868l-2.145.244c0-3.802-3.462-7.013-8.382-7.013s-8.234 2.826-8.234 5.555c0 3.847 4.534 5.504 6.384 6.184.925.392 4.188 1.708 4.92 1.946 5.312 1.849 8.042 4.482 8.042 8.817 0 4.675-4.387 8.721-11.112 8.721-5.363 0-10.527-4.091-11.792-9.697l2.389-.244h.006zm22.173-20.749v-2.292h26.115v2.292h-11.94v30.349H168.8v-30.349h-11.889.007zm23.122 30.349l11.792-32.641h9.211l11.792 32.641h-2.389l-3.558-9.838c-3.462-.295-6.333-2.048-10.476-2.048-4.143 0-6.725 1.804-10.424 2.048l-3.559 9.838h-2.389zm6.725-12.034c3.314-.437 5.845-1.997 9.647-1.997 3.802 0 6.532 1.509 9.647 1.997l-6.577-18.315h-6.089l-6.628 18.315zm29.846-20.607h2.293v30.304h19.102v2.337h-21.388V138.22h-.007zM95.476 105.463L46.572 35.826 70.941 0h49.083l24.362 35.826-48.903 69.63-.007.007zM49.392 35.807l46.084 65.617 46.084-65.617-22.769-33.489H72.168l-22.77 33.49h-.006z"/><path d="M111.161 105.463L62.257 35.826 86.619 0h49.084l24.362 35.826-48.904 69.63v.007zM65.076 35.807l46.085 65.617 46.084-65.617-22.776-33.489H87.846l-22.77 33.49z"/><path d="M126.846 105.463l-48.91-69.637L102.303 0h49.084l24.362 35.826-48.904 69.63v.007zm-46.09-69.656l46.083 65.617 46.085-65.617-22.77-33.489h-46.623l-22.77 33.49h-.006z"/><path d="M142.524 105.463L93.62 35.826 117.982 0h49.084l24.362 35.826-48.904 69.63v.007zM96.44 35.807l46.084 65.617 46.084-65.617-22.769-33.489h-46.624l-22.769 33.49h-.006z"/><path d="M119.003 53.563l-12.12-18.09 12.12-18.09 12.12 18.09-12.12 18.09zm-9.326-18.09l9.326 13.922 9.332-13.922-9.326-13.922-9.332 13.922zM50.625 212.878l-4.15-4.283v4.283h-1.162v-4.283l-4.143 4.283h-1.45l4.2-4.405-3.937-4.258h1.452l3.886 4.187v-4.187h1.162v4.187l3.892-4.187h1.445l-3.93 4.258 4.194 4.405h-1.458zm11.182-7.398l-4.535 7.398h-1.676v-8.663h1.169v7.398h.038l4.541-7.398h1.67v8.663h-1.162v-7.398h-.045zm4.785 7.424v-1.073c.128.032.25.052.36.052.417 0 .706-.155.867-.456.154-.296.282-.803.372-1.516l.745-5.689h5.73v8.662h-1.17v-7.622h-3.5l-.623 4.649c-.154 1.15-.379 1.952-.675 2.402-.295.456-.79.687-1.483.687-.219 0-.45-.045-.546-.071l-.077-.025zm12.396-4.361c0-1.316.392-2.389 1.176-3.21.777-.829 1.83-1.24 3.153-1.24s2.377.411 3.16 1.24c.777.828 1.17 1.894 1.17 3.21 0 1.317-.393 2.396-1.17 3.211-.783.829-1.837 1.24-3.16 1.24-1.323 0-2.376-.411-3.153-1.24-.784-.822-1.176-1.888-1.176-3.211zm7.45 0c0-.989-.275-1.804-.828-2.44-.552-.636-1.316-.95-2.293-.95-.976 0-1.74.314-2.293.95-.552.636-.828 1.451-.828 2.44 0 .989.276 1.798.828 2.434.553.636 1.317.957 2.293.957.977 0 1.74-.321 2.293-.957.553-.636.829-1.445.829-2.434zm11.754-3.063l-4.534 7.398H91.98v-8.663h1.17v7.398h.038l4.54-7.398h1.67v8.663h-1.162v-7.398h-.045zm-2.46-2.376c-.674 0-1.194-.141-1.56-.424-.36-.276-.546-.68-.546-1.22v-.077h.937v.077c0 .552.386.829 1.17.829.783 0 1.162-.277 1.162-.829v-.077h.944v.077c0 .54-.18.944-.546 1.22-.36.283-.88.424-1.56.424zm19.115 9.774l-4.393-4.283v4.283h-1.169v-8.663h1.169v4.187l4.124-4.187h1.445l-4.169 4.258 4.439 4.405h-1.446zm4.291-4.335c0-1.316.391-2.389 1.175-3.21.777-.829 1.831-1.24 3.154-1.24s2.376.411 3.16 1.24c.777.828 1.169 1.894 1.169 3.21 0 1.317-.392 2.396-1.169 3.211-.784.829-1.837 1.24-3.16 1.24-1.323 0-2.377-.411-3.154-1.24-.784-.822-1.175-1.888-1.175-3.211zm7.45 0c0-.989-.276-1.804-.828-2.44-.553-.636-1.317-.95-2.293-.95-.977 0-1.741.314-2.293.95-.553.636-.829 1.451-.829 2.44 0 .989.276 1.798.829 2.434.552.636 1.316.957 2.293.957.976 0 1.74-.321 2.293-.957.552-.636.828-1.445.828-2.434zm9.307 2.023l-2.55-4.983h-.051v7.295h-1.169v-8.663h1.786l2.691 5.259h.051l2.685-5.259h1.785v8.663h-1.162v-7.295h-.051l-2.544 4.983h-1.471zm15.909 2.312v-7.623h-4.946v7.623h-1.169v-8.663h7.284v8.663h-1.169zm4.741.026v-1.073c.128.032.25.052.36.052.417 0 .706-.155.867-.456.154-.296.282-.803.372-1.516l.745-5.689h5.729v8.662h-1.168v-7.622h-3.501l-.623 4.649c-.154 1.15-.379 1.952-.674 2.402-.296.456-.79.687-1.484.687a2.38 2.38 0 01-.546-.071l-.077-.025zm12.646-.026v-8.663h6.513v1.04h-5.35v2.653h4.605v1.04h-4.605v2.896h5.35v1.04h-6.513v-.006zm16.276 0l-4.394-4.283v4.283h-1.169v-8.663h1.169v4.187l4.124-4.187h1.445l-4.169 4.258 4.439 4.405h-1.445zm9.956-1.195c.392-.166.681-.372.88-.616.392-.482.661-.995.732-1.329l.051-.257h1.195c0 .661-.321 1.438-.951 2.196-.314.379-.758.7-1.316.95-.566.251-1.208.373-1.927.373-1.323 0-2.377-.411-3.154-1.239-.783-.822-1.175-1.888-1.175-3.211s.392-2.389 1.175-3.211c.777-.829 1.831-1.24 3.154-1.24.719 0 1.361.129 1.927.373.558.257 1.002.565 1.316.95.63.758.951 1.548.951 2.203h-1.195c-.019-.064 0-.141-.122-.482a2.943 2.943 0 00-.571-1.001c-.315-.379-.668-.649-1.291-.842a3.612 3.612 0 00-1.009-.141c-.97 0-1.74.315-2.293.95-.552.636-.828 1.452-.828 2.441 0 .989.276 1.798.828 2.434.553.635 1.317.956 2.293.956.495 0 .944-.083 1.336-.257h-.006z"/></g><defs><clipPath id="clip0_85_178"><path fill="#fff" d="M0 0h238v213H0z"/></clipPath></defs></svg>