<svg width="148" height="143" fill="none" xmlns="http://www.w3.org/2000/svg"><rect width="148" height="143" rx="71.5" fill="#85919D"/><path d="M21.741 85.04h1.007v13.383h8.389v1.032H21.74V85.04zm10.019 9.079c0-3.077 2.333-5.53 5.329-5.53 2.995 0 5.328 2.41 5.328 5.487 0 .193-.023.259-.023.409h-9.607c.172 2.368 1.927 4.152 4.302 4.152 1.562 0 2.803-.667 3.658-2.022l.962.258c-.943 1.678-2.655 2.73-4.623 2.73-2.996 0-5.328-2.43-5.328-5.487l.002.003zm9.607-.431c-.172-2.43-1.968-4.175-4.278-4.175-2.31 0-4.13 1.787-4.302 4.175h8.58zm8.11-1.527c0-3.979 3.252-7.271 7.19-7.271 1.883 0 3.807.84 5.155 2.237l-.728.732a6.013 6.013 0 00-4.428-1.957c-3.401 0-6.182 2.839-6.182 6.262 0 3.423 2.76 6.412 6.182 6.412 1.583 0 3.337-.797 4.451-2.022l.728.731c-1.371 1.421-3.317 2.323-5.179 2.323-3.937 0-7.19-3.485-7.19-7.444v-.003zm14.356-7.121h4.838c3.381 0 5.22 1.42 5.22 4.345 0 2.322-1.026 3.678-3.167 4.174l3.7 5.896h-1.218l-3.596-5.723c-.3.023-.598.023-.942.023H64.86v5.7h-1.027V85.04zm1.027.947v6.84h3.808c2.78 0 4.216-.99 4.216-3.462 0-2.346-1.54-3.378-4.216-3.378H64.86zm11.683 13.468V85.04h1.006v14.415h-1.007zm4.371-4.241c.429 1.722 2.226 3.313 4.13 3.335 2.248.023 3.807-1.27 3.807-2.73 0-1.938-1.839-2.582-3.187-3.143-.386-.15-1.884-.709-2.398-.925-1.325-.538-2.888-1.678-2.888-3.485 0-1.806 1.777-3.335 4.6-3.378 2.74-.042 4.516 1.572 4.686 3.917l-.942.108c0-1.68-1.52-3.097-3.681-3.097-2.16 0-3.616 1.248-3.616 2.453 0 1.699 1.991 2.43 2.803 2.73.407.174 1.84.755 2.16.86 2.334.817 3.532 1.98 3.532 3.894 0 2.064-1.926 3.851-4.88 3.851-2.355 0-4.622-1.806-5.178-4.282l1.05-.108h.002zm9.737-9.162V85.04h11.468v1.012h-5.243v13.403h-1.007V86.052h-5.22.002zm10.154 13.403l5.179-14.415h4.045l5.178 14.415h-1.049l-1.563-4.345c-1.52-.13-2.781-.904-4.6-.904-1.819 0-2.953.797-4.578.904l-1.562 4.345h-1.05zm2.954-5.314c1.455-.193 2.566-.882 4.236-.882s2.869.666 4.237.882l-2.889-8.089h-2.674l-2.91 8.088zm13.107-9.101h1.007v13.383h8.388v1.032h-9.392V85.04h-.003zM63.67 70.575L42.194 39.822 52.895 24H74.45l10.7 15.822-21.476 30.75-.003.002zM43.432 39.813L63.67 68.791l20.238-28.978-10-14.79H53.435l-9.999 14.79h-.003z" fill="#F5F5F5"/><path d="M70.558 70.575L49.082 39.822 59.78 24h21.555l10.699 15.822-21.476 30.75v.002zM50.32 39.813l20.238 28.978 20.237-28.978-10.001-14.79H60.319l-9.999 14.79z" fill="#F5F5F5"/><path d="M77.445 70.575L55.967 39.822 66.668 24h21.555l10.698 15.822-21.476 30.75v.002zm-20.24-30.762l20.238 28.978L97.68 39.813l-9.999-14.79H67.207l-10 14.79h-.002z" fill="#F5F5F5"/><path d="M84.33 70.575L62.854 39.822 73.553 24h21.555l10.698 15.822-21.476 30.75v.002zM64.093 39.813L84.33 68.791l20.238-28.978-10-14.79H74.095l-9.999 14.79h-.002z" fill="#F5F5F5"/><path d="M74.001 47.655l-5.322-7.988 5.322-7.99 5.323 7.99L74 47.655zm-4.095-7.988L74 45.815l4.099-6.148-4.096-6.149-4.098 6.149zM43.974 118.01l-1.822-1.891v1.891h-.51v-1.891l-1.82 1.891h-.637l1.844-1.945-1.729-1.88h.638l1.706 1.849v-1.849h.51v1.849l1.71-1.849h.635l-1.727 1.88 1.842 1.945h-.64zm4.911-3.267l-1.992 3.267h-.736v-3.825h.513v3.267h.017l1.994-3.267h.734v3.825h-.51v-3.267h-.02zm2.101 3.279v-.474a.67.67 0 00.158.023c.183 0 .31-.068.38-.202.068-.13.124-.354.164-.669l.327-2.512h2.516v3.825h-.513v-3.366H52.48l-.273 2.053c-.068.508-.166.862-.296 1.061-.13.201-.347.303-.652.303-.096 0-.197-.02-.24-.031l-.033-.011zm5.444-1.926c0-.581.171-1.055.515-1.418.342-.366.804-.547 1.385-.547s1.044.181 1.388.547c.341.366.513.837.513 1.418 0 .582-.172 1.058-.513 1.418-.344.366-.807.547-1.388.547-.58 0-1.043-.181-1.385-.547-.344-.363-.516-.834-.516-1.418zm3.271 0c0-.437-.121-.797-.364-1.077-.242-.281-.578-.42-1.007-.42-.428 0-.764.139-1.007.42-.242.28-.364.64-.364 1.077 0 .437.122.794.364 1.075.243.281.578.423 1.007.423.429 0 .765-.142 1.007-.423.243-.281.364-.638.364-1.075zm5.162-1.353l-1.992 3.267h-.736v-3.826h.514v3.267h.017l1.994-3.267h.733v3.826h-.51v-3.267h-.02zm-1.08-1.049c-.297 0-.525-.063-.686-.188-.158-.121-.24-.3-.24-.538v-.034h.412v.034c0 .244.17.365.514.365s.51-.121.51-.365v-.034h.415v.034c0 .238-.08.417-.24.538-.158.125-.386.188-.686.188zm8.394 4.316l-1.93-1.891v1.891h-.513v-3.825h.514v1.849l1.81-1.849h.635l-1.83 1.88 1.948 1.945h-.634zm1.884-1.914c0-.581.172-1.055.516-1.418.341-.366.804-.547 1.385-.547s1.044.181 1.388.547c.341.366.513.837.513 1.418 0 .582-.172 1.058-.513 1.418-.344.366-.807.547-1.388.547-.58 0-1.044-.181-1.385-.547-.344-.363-.516-.834-.516-1.418zm3.272 0c0-.437-.121-.797-.364-1.077-.242-.281-.578-.42-1.007-.42-.429 0-.764.139-1.007.42-.242.28-.364.64-.364 1.077 0 .437.122.794.364 1.075.243.281.578.423 1.007.423.429 0 .764-.142 1.007-.423.243-.281.364-.638.364-1.075zm4.087.893l-1.12-2.2h-.022v3.221h-.514v-3.825h.784l1.182 2.322h.023l1.179-2.322h.784v3.825h-.51v-3.221h-.023l-1.117 2.2h-.646zm6.986 1.021v-3.366h-2.172v3.366h-.513v-3.825h3.199v3.825h-.514zm2.082.012v-.474a.67.67 0 00.158.023c.183 0 .31-.068.38-.202.069-.13.125-.354.164-.669l.328-2.512h2.516v3.825h-.514v-3.366h-1.537l-.274 2.053c-.067.508-.166.862-.296 1.061-.13.201-.347.303-.651.303a1.07 1.07 0 01-.24-.031l-.034-.011zm5.554-.012v-3.825h2.86v.459h-2.35v1.171h2.023v.46h-2.023v1.279h2.35v.459h-2.86v-.003zm7.147 0l-1.929-1.891v1.891h-.514v-3.825h.514v1.849l1.81-1.849h.635l-1.83 1.88 1.949 1.945h-.635zm4.372-.528a.977.977 0 00.386-.272c.172-.213.291-.44.322-.587l.023-.114h.524c0 .292-.141.636-.417.97a1.572 1.572 0 01-.579.42 2.05 2.05 0 01-.846.164c-.581 0-1.043-.181-1.385-.547-.344-.363-.516-.834-.516-1.418s.172-1.055.516-1.418c.342-.366.804-.547 1.385-.547.316 0 .598.057.846.164.246.114.441.25.579.42.276.335.417.683.417.973h-.524c-.009-.029 0-.063-.054-.213a1.307 1.307 0 00-.251-.442 1.086 1.086 0 00-.567-.372 1.565 1.565 0 00-.443-.062c-.426 0-.764.139-1.007.419-.242.281-.364.641-.364 1.078 0 .437.122.794.364 1.075.243.281.578.422 1.007.422.217 0 .415-.036.587-.113h-.003z" fill="#F5F5F5"/></svg>