<svg width="149" height="47" fill="none" xmlns="http://www.w3.org/2000/svg"><path d="M16.151 5.281l-4.939 12.734L6.32 5.281H.068v2.524h1.673v11.67H.084v2.541h6.252v-2.541H4.774V8.762l5.28 13.253h2.3L17.59 8.763v10.711h-1.563l.03 2.542h6.253v-2.541h-1.656V7.804h1.656V5.281h-6.16zm8.349 0h6.253v2.524H29.19v9.709l7.94-12.233h4.689v2.524h-1.562v11.67h1.562v2.541h-6.252v-2.541h1.563v-9.71l-7.94 12.25H24.5v-2.541h1.563V7.804H24.5V5.281zm30.06 14.193h1.64v-4.971h-7.5v4.971h1.64v2.542h-6.33v-2.541h1.642V7.806h-1.643V5.281h6.331v2.526H48.7v4.172h7.5V7.807h-1.64V5.281h6.346v2.526h-1.563v11.668h1.563v2.541H54.56v-2.541zM77.582 5.28v5.38h-2.515a3.961 3.961 0 00-4.394-3.357c-3.719 0-4.828 3.043-4.828 6.51 0 3.921 2.14 6.163 5.14 6.163a3.756 3.756 0 004.049-3.67h3.033c-.236 2.524-1.563 6.273-7.221 6.273-1.282 0-8.27-.125-8.27-8.578 0-6.902 3.736-9.16 7.817-9.16a5.759 5.759 0 014.61 1.914v-1.41l2.58-.064zm6.499 14.194h1.656V7.807h-3.828v3.591H79.39V5.281h15.725v6.117h-2.518v-3.59H88.77v11.666h1.657v2.542h-6.346v-2.541zm17.491-6.163h3.378c1.407 0 3.547-.456 3.547-2.745 0-2.29-2.343-2.759-3.516-2.759h-3.409v5.504zm-4.688-8.03h8.128c2.627 0 6.66.706 6.66 5.239 0 2.806-1.909 5.333-6.676 5.333h-3.406v3.621h1.64v2.542h-6.346v-2.541h1.657V7.806h-1.657V5.281zm24.671 14.696c4.125 0 4.909-3.748 4.909-6.273 0-2.526-.784-6.273-4.909-6.273-4.128 0-4.911 3.763-4.911 6.273s.783 6.273 4.911 6.273zm0-15.197c1.452 0 8.175.189 8.175 8.861s-6.723 8.876-8.175 8.876c-1.455 0-8.176-.186-8.176-8.876 0-8.688 6.721-8.86 8.176-8.86zM137.479.5a2.658 2.658 0 003.303 1.8 2.663 2.663 0 001.791-1.8h2.455a5.249 5.249 0 01-6.603 3.412A5.258 5.258 0 01135.024.5h2.455zm-6.082 4.783h6.254V7.81h-1.564v9.708l7.941-12.234h4.688V7.81h-1.64v11.668h1.64v2.541h-6.25v-2.541h1.562v-9.71l-7.941 12.25h-4.69v-2.541h1.644V7.809h-1.644V5.283zM4.757 37.229h3.376c1.422 0 3.564-.454 3.564-2.743 0-2.29-2.36-2.761-3.533-2.761H4.772l-.015 5.504zM.07 29.199h8.127c2.625 0 6.659.722 6.659 5.238 0 2.824-1.907 5.333-6.674 5.333h-3.41v3.622h1.564v2.542H.069v-2.542h1.655V31.725H.069v-2.526zm24.663 14.698c4.127 0 4.91-3.75 4.91-6.275 0-2.524-.783-6.271-4.91-6.271s-4.909 3.764-4.909 6.27c0 2.512.782 6.276 4.91 6.276zm0-15.197c1.454 0 8.176.186 8.176 8.86s-6.722 8.876-8.176 8.876c-1.454 0-8.175-.186-8.175-8.876 0-8.687 6.721-8.86 8.175-8.86zm25.199.5v5.38h-2.516a3.957 3.957 0 00-4.391-3.356c-3.721 0-4.83 3.044-4.83 6.508 0 3.922 2.14 6.165 5.142 6.165a3.759 3.759 0 004.08-3.672h3.032c-.235 2.526-1.563 6.275-7.223 6.275-1.28 0-8.268-.125-8.268-8.58 0-6.902 3.737-9.16 7.816-9.16a5.764 5.764 0 014.642 1.805v-1.411l2.516.046zm17.352 0v5.381h-2.516a3.973 3.973 0 00-4.394-3.356c-3.719 0-4.83 3.043-4.83 6.507 0 3.922 2.142 6.165 5.143 6.165a3.759 3.759 0 004.048-3.671h3c-.233 2.526-1.56 6.275-7.22 6.275-1.296 0-8.269-.125-8.269-8.58 0-6.902 3.737-9.161 7.816-9.161a5.765 5.765 0 014.706 1.805v-1.41l2.516.045zm2.26 0h6.252v2.524h-1.562v9.709L82.157 29.2h4.69v2.524h-1.563v11.67h1.563v2.541h-6.252v-2.541h1.562v-9.691l-7.94 12.248h-4.689v-2.557h1.642v-11.67h-1.642l.016-2.524zm19.51 0h6.254v2.524h-1.565v9.709l7.942-12.233h4.688v2.524h-1.64v11.67h1.64v2.541h-6.252v-2.541h1.564v-9.691l-8.004 12.232h-4.688v-2.541h1.64v-11.67h-1.64l.061-2.524z" fill-rule="evenodd" clip-rule="evenodd" fill="#F5F5F5"/></svg>