<svg width="398" height="780" fill="none" xmlns="http://www.w3.org/2000/svg"><g filter="url(#filter0_b_34_1596)"><path d="M198.75 0L397.5 296.875 198.75 593.75 0 296.875 198.75 0zm152.933 296.875L198.75 68.396 45.712 296.875l152.933 228.479 153.038-228.479z" fill="#F5F5F5" fill-opacity=".1"/><path d="M352.099 297.153l.186-.278-.186-.278L199.166 68.118l-.416-.62-.415.62L45.296 296.597l-.186.278.186.278 152.933 228.479.416.621.415-.621 153.039-228.479zM.602 296.875L198.75.899l198.148 295.976L198.75 592.851.602 296.875z" stroke="#F5F5F5" stroke-opacity=".1"/></g><path d="M324.205 537.778l.187-.278-.187-.278-125.04-186.631-.415-.62-.415.619L73.209 537.222l-.187.278.187.278 125.04 186.631.415.62.415-.619 125.126-186.632zM36.852 537.5L198.75 295.898 360.648 537.5 198.75 779.102 36.852 537.5z" stroke="#F5F5F5" stroke-opacity=".5"/><defs><filter id="filter0_b_34_1596" x="-20" y="-20" width="437.5" height="633.75" filterUnits="userSpaceOnUse" color-interpolation-filters="sRGB"><feFlood flood-opacity="0" result="BackgroundImageFix"/><feGaussianBlur in="BackgroundImageFix" stdDeviation="10"/><feComposite in2="SourceAlpha" operator="in" result="effect1_backgroundBlur_34_1596"/><feBlend in="SourceGraphic" in2="effect1_backgroundBlur_34_1596" result="shape"/></filter></defs></svg>