<svg width="87" height="89" viewBox="0 0 87 89" fill="none" xmlns="http://www.w3.org/2000/svg">
<g id="north">
<path d="M23.8828 64.0931L27.9375 88.0402L60.4453 27.5521L23.8828 64.0931Z" fill="#5B6670"/>
<path d="M0 60.1604L23.9766 64.2102L60.5625 27.6691L0 60.1604Z" fill="white"/>
<path d="M62.6016 13.3898L75.9844 0L77.8828 1.89611L75.3984 12.945C74.8125 15.4966 74.1797 17.697 73.4531 19.6867H73.5234C75.1641 17.7672 76.7344 16.0818 78.8203 13.9984L84.4219 8.40373L86.0625 10.0423L72.6562 23.4321L70.8984 21.6765L73.4531 10.651C74.0156 8.21646 74.6484 5.80537 75.4219 3.67517L75.3516 3.62835C73.7578 5.40742 72.1875 7.06944 69.9609 9.29327L64.2422 15.005L62.6016 13.3664V13.3898Z" fill="#F5F5F5"/>
</g>
</svg>
