<svg width="68" height="52" viewBox="0 0 68 52" fill="none" xmlns="http://www.w3.org/2000/svg">
<path d="M22.8645 51.3477L0 17.8813L11.3932 0.663574H34.3418L45.732 17.8813L22.8675 51.3446L22.8645 51.3477ZM1.3183 17.8721L22.8645 49.4065L44.4107 17.8721L33.7652 1.77768H11.9668L1.3213 17.8721H1.3183Z" fill="white"/>
<path d="M30.1977 51.3477L7.33325 17.8813L18.7234 0.663574H41.672L53.0622 17.8813L30.1977 51.3446V51.3477ZM8.65155 17.8721L30.1977 49.4065L51.7439 17.8721L41.0954 1.77768H19.297L8.65155 17.8721Z" fill="white"/>
<path d="M37.5308 51.3477L14.6633 17.8813L26.0565 0.663574H49.0051L60.3953 17.8813L37.5308 51.3446V51.3477ZM15.9816 17.8721L37.5278 49.4065L59.074 17.8721L48.4285 1.77768H26.6301L15.9846 17.8721H15.9816Z" fill="white"/>
<path d="M44.8611 51.3477L21.9966 17.8813L33.3868 0.663574H56.3353L67.7255 17.8813L44.8611 51.3446V51.3477ZM23.3149 17.8721L44.8611 49.4065L66.4072 17.8721L55.7618 1.77768H33.9633L23.3179 17.8721H23.3149Z" fill="white"/>
<path d="M33.8643 26.4053L28.1978 17.7116L33.8643 9.01782L39.5309 17.7116L33.8643 26.4053ZM29.504 17.7116L33.8643 24.4024L38.2276 17.7116L33.8673 11.0207L29.504 17.7116Z" fill="white"/>
</svg>
