<svg width="153" height="180" viewBox="0 0 153 180" fill="none" xmlns="http://www.w3.org/2000/svg">
<g id="Group 4585">
<path id="Vector" d="M44.6116 59.9526H1V82.4283H44.6116V59.9526Z" stroke="#F5F5F5" stroke-width="2"/>
<path id="Vector_2" d="M44.6116 82.4282H1V124.487H44.6116V82.4282Z" stroke="#F5F5F5" stroke-width="2"/>
<path id="Vector_3" d="M44.6116 124.487H1V179H44.6116V124.487Z" stroke="#F5F5F5" stroke-width="2"/>
<path id="Vector_4" d="M98.8562 119.366H68.2969V179H98.8562V119.366Z" stroke="#F5F5F5" stroke-width="2"/>
<path id="Vector_5" d="M151.982 91.1055H110.368V132.041H151.982V91.1055Z" fill="#F5F5F5" stroke="#F5F5F5" stroke-width="2"/>
<path id="Vector_6" d="M151.982 50.1699H110.368V91.1051H151.982V50.1699Z" stroke="#F5F5F5" stroke-width="2"/>
<path id="Vector_7" d="M151.982 1.22119H110.368V50.1703H151.982V1.22119Z" stroke="#F5F5F5" stroke-width="2"/>
<path id="Vector_8" d="M110.369 1.22119H75.6113V24.5812V39.9273V63.3056H98.8562V39.9273H110.369V1.22119Z" stroke="#F5F5F5" stroke-width="2"/>
<path id="Vector_9" d="M75.6106 1H56.3438V63.3055H75.6106V1Z" stroke="#F5F5F5" stroke-width="2"/>
<path id="Vector_10" d="M152 132.041V158.532H139.589V154.295H116.564V142.062H110.368V132.041H152Z" stroke="#F5F5F5" stroke-width="2"/>
<path id="Vector_11" d="M152 158.532V179H98.8555V142.062H116.564V154.295H139.589V158.532H152Z" stroke="#F5F5F5" stroke-width="2"/>
<path id="Vector_12" d="M57.462 119.366V135.154H44.6113V179H68.2962V163.193V135.154V119.366H57.462Z" stroke="#F5F5F5" stroke-width="2"/>
<path id="Vector_13" d="M56.3441 1H44.6116H16.4171H1V59.9526H44.6116V41.4931H56.3441V1Z" stroke="#F5F5F5" stroke-width="2"/>
</g>
</svg>
