<svg width="232" height="217" viewBox="0 0 232 217" fill="none" xmlns="http://www.w3.org/2000/svg">
<g id="map">
<path id="Vector" d="M20.5 179.5V22.5H231.5V179.5H20.5Z" fill="#CACED1" stroke="#5B6670"/>
<path id="Vector_2" d="M231 47H142V140H231V47Z" fill="#99A0A6"/>
<path id="Vector_3" d="M103.718 81.4154H20.1011V179.172H103.718V81.4154Z" fill="#5B6670"/>
<g id="Vector_4">
<path d="M76.9244 189.843H78.4191L75.6081 196.571C74.9165 198.22 73.801 198.999 72.2616 198.888V197.507C72.7747 197.551 73.1763 197.484 73.4886 197.284C73.801 197.083 74.0464 196.727 74.2472 196.259L71.2354 189.865H72.7301L74.9388 194.633L76.9244 189.865V189.843Z" fill="#F5F5F5"/>
<path d="M83.5727 192.427H84.9782V198.888H83.5727V196.304H80.6055V198.888H79.2V192.427H80.6055V195.012H83.5727V192.427Z" fill="#F5F5F5"/>
<path d="M91.6042 192.427H92.6751V198.888H91.2919V194.766L87.9677 198.888H86.8969V192.427H88.2801V196.526L91.6042 192.427Z" fill="#F5F5F5"/>
<path d="M99.1226 195.568C99.7696 195.858 100.082 196.348 100.082 197.061C100.082 197.596 99.9035 198.041 99.5242 198.375C99.1673 198.71 98.6318 198.888 97.9402 198.888H94.6161V192.427H97.6725C98.3418 192.427 98.8549 192.583 99.2119 192.917C99.5688 193.252 99.7696 193.675 99.7696 194.21C99.7696 194.833 99.5465 195.279 99.1003 195.568H99.1226ZM97.6056 193.608H95.977V195.034H97.6056C98.1856 195.034 98.4534 194.789 98.4534 194.299C98.4534 193.808 98.1633 193.586 97.6056 193.586V193.608ZM97.8287 197.663C98.4087 197.663 98.6988 197.418 98.6988 196.905C98.6988 196.682 98.6318 196.504 98.4757 196.37C98.3195 196.237 98.0964 196.192 97.8287 196.192H95.977V197.663H97.8287Z" fill="#F5F5F5"/>
<path d="M102.692 196.259C102.804 196.749 103.027 197.128 103.406 197.395C103.785 197.663 104.232 197.796 104.767 197.796C105.503 197.796 106.061 197.529 106.44 196.994L107.6 197.663C106.953 198.598 106.016 199.066 104.767 199.066C103.718 199.066 102.871 198.754 102.224 198.108C101.577 197.462 101.242 196.66 101.242 195.68C101.242 194.7 101.554 193.898 102.201 193.252C102.848 192.606 103.652 192.271 104.655 192.271C105.615 192.271 106.373 192.606 106.998 193.274C107.6 193.942 107.913 194.744 107.913 195.702C107.913 195.858 107.913 196.036 107.868 196.281H102.715L102.692 196.259ZM102.692 195.123H106.507C106.418 194.588 106.195 194.21 105.86 193.942C105.526 193.675 105.124 193.541 104.655 193.541C104.142 193.541 103.696 193.675 103.362 193.965C103.027 194.254 102.804 194.633 102.692 195.123Z" fill="#F5F5F5"/>
<path d="M113.111 192.271C114.003 192.271 114.762 192.606 115.387 193.252C116.011 193.92 116.324 194.722 116.324 195.658C116.324 196.593 116.011 197.418 115.387 198.086C114.762 198.732 114.003 199.066 113.111 199.066C112.129 199.066 111.371 198.71 110.835 197.975V201.472H109.43V192.427H110.835V193.363C111.371 192.628 112.107 192.271 113.111 192.271ZM111.438 197.15C111.817 197.551 112.308 197.729 112.91 197.729C113.513 197.729 113.981 197.529 114.383 197.15C114.762 196.749 114.963 196.259 114.963 195.658C114.963 195.056 114.762 194.566 114.383 194.165C114.003 193.764 113.513 193.586 112.91 193.586C112.308 193.586 111.839 193.786 111.438 194.165C111.058 194.566 110.858 195.056 110.858 195.658C110.858 196.259 111.058 196.749 111.438 197.15Z" fill="#F5F5F5"/>
<path d="M124.534 192.427V198.888H123.173V194.633L121.299 197.596H121.12L119.268 194.655V198.888H117.908V192.427H119.335L121.209 195.413L123.083 192.427H124.534Z" fill="#F5F5F5"/>
<path d="M131.606 192.427H133.011V198.888H131.606V197.952C131.07 198.687 130.334 199.044 129.33 199.044C128.438 199.044 127.679 198.71 127.055 198.064C126.43 197.395 126.118 196.593 126.118 195.658C126.118 194.722 126.43 193.898 127.055 193.229C127.679 192.583 128.438 192.249 129.33 192.249C130.312 192.249 131.07 192.605 131.606 193.341V192.427ZM128.103 197.15C128.482 197.551 128.973 197.729 129.576 197.729C130.178 197.729 130.646 197.529 131.048 197.15C131.427 196.749 131.628 196.259 131.628 195.658C131.628 195.056 131.427 194.566 131.048 194.165C130.669 193.764 130.178 193.586 129.576 193.586C128.973 193.586 128.505 193.786 128.103 194.165C127.724 194.566 127.523 195.056 127.523 195.658C127.523 196.259 127.724 196.749 128.103 197.15Z" fill="#F5F5F5"/>
<path d="M139.303 192.427V193.764H136.358V198.888H134.952V192.427H139.303Z" fill="#F5F5F5"/>
<path d="M146.33 192.516L144.902 194.9L146.33 197.284H144.947L143.519 194.9L144.947 192.516H146.33ZM148.65 192.516L147.223 194.9L148.65 197.284H147.267L145.839 194.9L147.267 192.516H148.65Z" fill="#F5F5F5"/>
<path d="M155.165 189.843H156.66L153.849 196.571C153.157 198.22 152.042 198.999 150.502 198.888V197.507C151.015 197.551 151.417 197.484 151.729 197.284C152.042 197.083 152.287 196.727 152.488 196.259L149.476 189.865H150.971L153.179 194.633L155.165 189.865V189.843Z" fill="#F5F5F5"/>
<path d="M163.843 193.43C164.424 194.031 164.714 194.789 164.714 195.658C164.714 196.526 164.424 197.284 163.843 197.885C163.263 198.509 162.46 198.866 161.456 198.999V201.472H160.073V198.999C159.069 198.866 158.266 198.509 157.686 197.885C157.106 197.284 156.816 196.526 156.816 195.658C156.816 194.789 157.106 194.031 157.686 193.43C158.266 192.806 159.069 192.45 160.073 192.316V189.843H161.456V192.316C162.46 192.45 163.241 192.806 163.843 193.43ZM158.712 194.365C158.378 194.722 158.221 195.167 158.221 195.68C158.221 196.192 158.378 196.616 158.712 196.994C159.047 197.351 159.493 197.596 160.095 197.707V193.675C159.493 193.786 159.047 194.031 158.712 194.388V194.365ZM161.479 197.685C162.081 197.574 162.527 197.328 162.862 196.972C163.197 196.616 163.353 196.17 163.353 195.658C163.353 195.145 163.197 194.7 162.862 194.343C162.527 193.987 162.081 193.742 161.479 193.63V197.685Z" fill="#F5F5F5"/>
<path d="M171.429 192.427H172.834V198.888H171.429V197.952C170.893 198.687 170.135 199.044 169.153 199.044C168.261 199.044 167.502 198.71 166.878 198.064C166.253 197.395 165.941 196.593 165.941 195.658C165.941 194.722 166.253 193.898 166.878 193.229C167.502 192.583 168.261 192.249 169.153 192.249C170.135 192.249 170.893 192.605 171.429 193.341V192.427ZM167.926 197.15C168.305 197.551 168.796 197.729 169.399 197.729C170.001 197.729 170.47 197.529 170.871 197.15C171.25 196.749 171.451 196.259 171.451 195.658C171.451 195.056 171.25 194.566 170.871 194.165C170.492 193.764 170.001 193.586 169.399 193.586C168.796 193.586 168.328 193.786 167.926 194.165C167.547 194.566 167.346 195.056 167.346 195.658C167.346 196.259 167.547 196.749 167.926 197.15Z" fill="#F5F5F5"/>
<path d="M175.958 192.516L177.386 194.9L175.958 197.284H174.575L176.002 194.9L174.575 192.516H175.958ZM178.278 192.516L179.706 194.9L178.278 197.284H176.895L178.323 194.9L176.895 192.516H178.278Z" fill="#F5F5F5"/>
<path d="M94.1922 207.955V214.416H92.7866V209.269H89.8194V214.416H88.4139V207.955H94.1922Z" fill="#F5F5F5"/>
<path d="M99.8142 207.777C100.707 207.777 101.465 208.111 102.09 208.757C102.715 209.425 103.027 210.227 103.027 211.163C103.027 212.099 102.715 212.923 102.09 213.591C101.465 214.238 100.707 214.572 99.8142 214.572C98.8326 214.572 98.0741 214.215 97.5386 213.48V216.978H96.1331V207.933H97.5386V208.868C98.0741 208.133 98.8103 207.777 99.8142 207.777ZM98.141 212.656C98.5203 213.057 99.0111 213.235 99.6135 213.235C100.216 213.235 100.684 213.034 101.086 212.656C101.465 212.255 101.666 211.765 101.666 211.163C101.666 210.562 101.465 210.071 101.086 209.67C100.707 209.269 100.216 209.091 99.6135 209.091C99.0111 209.091 98.5426 209.292 98.141 209.67C97.7617 210.071 97.5609 210.562 97.5609 211.163C97.5609 211.765 97.7617 212.255 98.141 212.656Z" fill="#F5F5F5"/>
<path d="M105.838 214.282C105.637 214.46 105.414 214.572 105.146 214.572C104.879 214.572 104.655 214.483 104.455 214.282C104.254 214.082 104.165 213.859 104.165 213.591C104.165 213.324 104.254 213.101 104.432 212.901C104.611 212.723 104.856 212.611 105.124 212.611C105.392 212.611 105.615 212.7 105.816 212.901C105.994 213.101 106.106 213.324 106.106 213.591C106.106 213.859 106.016 214.082 105.816 214.282H105.838Z" fill="#F5F5F5"/>
<path d="M118.532 213.213C117.617 214.126 116.502 214.572 115.186 214.572C113.869 214.572 112.754 214.126 111.839 213.213C110.925 212.299 110.478 211.185 110.478 209.871C110.478 208.557 110.925 207.443 111.839 206.552C112.754 205.66 113.869 205.193 115.186 205.193C116.502 205.193 117.617 205.638 118.532 206.552C119.447 207.465 119.893 208.579 119.893 209.871C119.893 211.163 119.447 212.299 118.532 213.213ZM112.91 212.21C113.535 212.834 114.293 213.146 115.186 213.146C116.078 213.146 116.859 212.834 117.461 212.21C118.086 211.586 118.398 210.829 118.398 209.893C118.398 208.958 118.086 208.2 117.461 207.576C116.837 206.953 116.078 206.641 115.186 206.641C114.293 206.641 113.512 206.953 112.91 207.576C112.285 208.2 111.973 208.958 111.973 209.893C111.973 210.829 112.285 211.609 112.91 212.21Z" fill="#F5F5F5"/>
<path d="M127.188 214.416H125.515L122.86 211.43V214.416H121.455V207.955H122.86V210.807L125.381 207.955H127.099L124.244 211.119L127.188 214.416Z" fill="#F5F5F5"/>
<path d="M133.636 207.955V209.292H131.517V214.416H130.111V209.292H127.992V207.955H133.636Z" fill="#F5F5F5"/>
<path d="M139.95 207.955V214.416H138.566V212.232H137.786L136.135 214.416H134.484L136.224 212.121C135.778 211.965 135.421 211.72 135.153 211.341C134.885 210.963 134.751 210.562 134.751 210.094C134.751 209.492 134.975 208.98 135.398 208.579C135.822 208.178 136.38 207.955 137.049 207.955H139.95ZM137.139 211.052H138.566V209.225H137.139C136.849 209.225 136.625 209.314 136.425 209.47C136.246 209.626 136.135 209.849 136.135 210.138C136.135 210.428 136.224 210.628 136.425 210.807C136.603 210.963 136.849 211.052 137.139 211.052Z" fill="#F5F5F5"/>
<path d="M144.947 214.594C143.943 214.594 143.14 214.282 142.515 213.636C141.891 212.99 141.578 212.166 141.578 211.163C141.578 210.072 141.734 209.225 142.069 208.623C142.404 208.022 143.073 207.487 144.055 206.997C144.211 206.908 144.456 206.819 144.791 206.663C145.126 206.507 145.349 206.418 145.46 206.351C145.572 206.284 145.728 206.195 145.906 206.061C146.085 205.928 146.219 205.794 146.308 205.66C146.397 205.527 146.464 205.349 146.509 205.148L147.647 205.816C147.602 205.995 147.557 206.173 147.468 206.351C147.379 206.529 147.29 206.663 147.133 206.797C146.977 206.93 146.866 207.042 146.754 207.131C146.643 207.22 146.464 207.309 146.219 207.443C145.973 207.554 145.795 207.643 145.661 207.71C145.549 207.755 145.326 207.844 145.014 207.977C144.456 208.2 144.032 208.423 143.765 208.668C143.497 208.913 143.318 209.203 143.207 209.559C143.72 208.98 144.434 208.69 145.326 208.69C146.085 208.69 146.754 208.958 147.312 209.515C147.87 210.049 148.16 210.762 148.16 211.631C148.16 212.5 147.87 213.235 147.267 213.814C146.665 214.393 145.884 214.661 144.925 214.661L144.947 214.594ZM144.947 213.28C145.482 213.28 145.929 213.124 146.286 212.789C146.643 212.455 146.799 212.054 146.799 211.564C146.799 211.074 146.62 210.628 146.286 210.317C145.951 209.982 145.505 209.826 144.969 209.826C144.479 209.826 144.055 209.982 143.653 210.294C143.274 210.606 143.073 211.007 143.073 211.52C143.073 212.032 143.251 212.455 143.608 212.789C143.965 213.124 144.412 213.302 144.947 213.302V213.28Z" fill="#F5F5F5"/>
<path d="M153.313 207.777C154.206 207.777 154.964 208.111 155.589 208.757C156.214 209.403 156.526 210.227 156.526 211.163C156.526 212.099 156.214 212.923 155.589 213.591C154.964 214.238 154.206 214.572 153.313 214.572C152.332 214.572 151.573 214.215 151.038 213.48V216.978H149.632V207.933H151.038V208.868C151.573 208.133 152.309 207.777 153.313 207.777ZM151.64 212.656C152.019 213.057 152.51 213.235 153.112 213.235C153.715 213.235 154.183 213.034 154.585 212.656C154.964 212.255 155.165 211.765 155.165 211.163C155.165 210.562 154.964 210.071 154.585 209.67C154.206 209.269 153.715 209.091 153.112 209.091C152.51 209.091 152.042 209.292 151.64 209.67C151.261 210.071 151.06 210.562 151.06 211.163C151.06 211.765 151.261 212.255 151.64 212.656Z" fill="#F5F5F5"/>
<path d="M163.018 207.955V214.416H161.635V212.232H160.854L159.203 214.416H157.552L159.292 212.121C158.846 211.965 158.489 211.72 158.199 211.341C157.931 210.963 157.798 210.562 157.798 210.094C157.798 209.492 158.021 208.98 158.444 208.579C158.868 208.178 159.426 207.955 160.095 207.955H163.018ZM160.207 211.052H161.635V209.225H160.207C159.917 209.225 159.694 209.314 159.493 209.47C159.315 209.626 159.203 209.849 159.203 210.138C159.203 210.428 159.292 210.628 159.493 210.807C159.672 210.963 159.917 211.052 160.207 211.052Z" fill="#F5F5F5"/>
</g>
<g id="kadomcev">
<path d="M2.58794 169.949V168.456L9.28089 170.929C10.1064 171.241 10.7087 171.664 11.1103 172.199C11.5119 172.733 11.6904 173.379 11.6457 174.092H10.3295C10.3518 173.647 10.2625 173.29 10.0617 173.023C9.86095 172.756 9.5263 172.533 9.0801 172.377L8.99086 172.332L2.56563 175.05V173.558L7.27301 171.597L2.56563 169.949H2.58794Z" fill="#F5F5F5"/>
<path d="M2.58794 162.04H9.05779V163.443H3.92653V165.604H6.33599C7.36225 165.604 8.09847 165.827 8.52236 166.273C8.94625 166.718 9.12472 167.364 9.05779 168.189H7.74151C7.80844 167.788 7.74151 167.498 7.49611 167.298C7.27301 167.097 6.84912 167.008 6.26906 167.008H2.58794V162.04Z" fill="#F5F5F5"/>
<path d="M8.94625 158.609C9.12472 158.787 9.23627 159.032 9.23627 159.3C9.23627 159.567 9.14703 159.79 8.94625 159.99C8.74546 160.169 8.52236 160.28 8.25464 160.28C7.98692 160.28 7.76382 160.191 7.56304 160.013C7.38456 159.834 7.27301 159.589 7.27301 159.322C7.27301 159.055 7.36225 158.832 7.56304 158.631C7.76382 158.431 7.98692 158.342 8.25464 158.342C8.52236 158.342 8.74546 158.431 8.94625 158.631V158.609Z" fill="#F5F5F5"/>
<path d="M3.50265 150.077C3.50265 149.23 3.77036 148.539 4.28349 148.005C4.81893 147.448 5.46591 147.18 6.26906 147.18C7.07222 147.18 7.74151 147.448 8.25464 148.005C8.79008 148.562 9.03549 149.252 9.03549 150.077V153.507H0V147.938H1.42783V152.015H3.50265V150.077ZM7.67458 150.077C7.67458 149.676 7.54073 149.341 7.29532 149.052C7.04991 148.762 6.71526 148.651 6.29137 148.651C5.86749 148.651 5.53284 148.784 5.28743 149.052C5.04202 149.319 4.90816 149.653 4.90816 150.077V152.015H7.67458V150.077Z" fill="#F5F5F5"/>
<path d="M2.43177 142.056C2.43177 141.165 2.76642 140.408 3.41341 139.784C4.06039 139.16 4.88585 138.848 5.82287 138.848C6.75988 138.848 7.58535 139.16 8.25464 139.784C8.90163 140.408 9.23627 141.165 9.23627 142.056C9.23627 143.037 8.87932 143.794 8.14309 144.329H11.6457V145.732H2.58794V144.329H3.52495C2.78873 143.794 2.43177 143.037 2.43177 142.056ZM7.31763 143.727C7.7192 143.349 7.89768 142.858 7.89768 142.257C7.89768 141.655 7.69689 141.188 7.31763 140.787C6.91605 140.408 6.42523 140.207 5.82287 140.207C5.2205 140.207 4.72969 140.408 4.32811 140.787C3.92653 141.165 3.74805 141.655 3.74805 142.257C3.74805 142.858 3.94884 143.326 4.32811 143.727C4.72969 144.106 5.2205 144.307 5.82287 144.307C6.42523 144.307 6.91605 144.106 7.31763 143.727Z" fill="#F5F5F5"/>
<path d="M8.94625 136.041C9.12472 136.22 9.23627 136.465 9.23627 136.732C9.23627 136.999 9.14703 137.222 8.94625 137.423C8.74546 137.601 8.52236 137.712 8.25464 137.712C7.98692 137.712 7.76382 137.623 7.56304 137.445C7.38456 137.267 7.27301 137.022 7.27301 136.754C7.27301 136.487 7.36225 136.264 7.56304 136.064C7.76382 135.885 7.98692 135.774 8.25464 135.774C8.52236 135.774 8.74546 135.863 8.94625 136.064V136.041Z" fill="#F5F5F5"/>
<path d="M9.05779 125.883L4.752 129.447H9.05779V130.94H0V129.447H4.06039L0 126.016V124.234L4.41735 127.888L9.05779 124.1V125.883Z" fill="#F5F5F5"/>
<path d="M2.58794 118.241V116.838H9.05779V118.241H8.12078C8.85701 118.776 9.21396 119.511 9.21396 120.514C9.21396 121.405 8.87932 122.162 8.23233 122.786C7.56304 123.41 6.75988 123.722 5.82287 123.722C4.88585 123.722 4.06039 123.41 3.3911 122.786C2.74411 122.162 2.40946 121.405 2.40946 120.514C2.40946 119.533 2.76642 118.776 3.50264 118.241H2.58794ZM7.31763 121.739C7.7192 121.36 7.89768 120.87 7.89768 120.268C7.89768 119.667 7.69689 119.199 7.31763 118.798C6.91605 118.419 6.42523 118.219 5.82287 118.219C5.2205 118.219 4.72969 118.419 4.32811 118.798C3.92653 119.177 3.74805 119.667 3.74805 120.268C3.74805 120.87 3.94884 121.338 4.32811 121.739C4.72969 122.118 5.2205 122.318 5.82287 122.318C6.42523 122.318 6.91605 122.118 7.31763 121.739Z" fill="#F5F5F5"/>
<path d="M7.74151 108.327H10.798V109.709H9.05779V114.142H10.798V115.523H7.74151V114.743C7.18377 114.342 6.40292 114.142 5.39898 114.142H2.58794V109.219H7.74151V108.327ZM7.74151 113.184V110.577H3.88191V112.761H5.42129C6.33599 112.761 7.11684 112.894 7.76382 113.184H7.74151Z" fill="#F5F5F5"/>
<path d="M9.23627 103.916C9.23627 104.874 8.90162 105.676 8.25464 106.345C7.60765 107.013 6.78219 107.347 5.82287 107.347C4.86354 107.347 4.06039 107.013 3.3911 106.345C2.74411 105.676 2.40946 104.874 2.40946 103.916C2.40946 102.958 2.74411 102.156 3.3911 101.488C4.03808 100.82 4.86354 100.508 5.82287 100.508C6.78219 100.508 7.58534 100.842 8.25464 101.488C8.90162 102.156 9.23627 102.958 9.23627 103.916ZM7.29532 105.342C7.67458 104.963 7.87537 104.473 7.87537 103.916C7.87537 103.359 7.67458 102.869 7.29532 102.491C6.91605 102.112 6.42523 101.911 5.82287 101.911C5.2205 101.911 4.752 102.112 4.35042 102.491C3.97115 102.869 3.77036 103.359 3.77036 103.916C3.77036 104.473 3.97115 104.963 4.35042 105.342C4.72969 105.721 5.2205 105.921 5.82287 105.921C6.42523 105.921 6.89374 105.721 7.29532 105.342Z" fill="#F5F5F5"/>
<path d="M2.58794 92.3317H9.05779V93.6907H4.79662L7.76382 95.562V95.7402L4.81893 97.5893H9.05779V98.9483H2.58794V97.5225L5.57746 95.6511L2.58794 93.7798V92.3317Z" fill="#F5F5F5"/>
<path d="M7.74151 84.824V83.7546H10.798V85.1359H9.05779V90.3935H2.58794V88.99H7.74151V86.2275H2.58794V84.824H7.74151Z" fill="#F5F5F5"/>
<path d="M6.42523 81.3263C6.91605 81.2149 7.29532 80.9921 7.56304 80.6134C7.83075 80.2347 7.96461 79.7891 7.96461 79.2544C7.96461 78.5193 7.69689 77.9623 7.16146 77.5836L7.83075 76.4251C8.76777 77.0712 9.23627 78.0069 9.23627 79.2544C9.23627 80.3015 8.92393 81.1481 8.27695 81.7941C7.62996 82.4402 6.82681 82.7744 5.84518 82.7744C4.86354 82.7744 4.06039 82.4625 3.41341 81.8164C2.76642 81.1704 2.43177 80.3683 2.43177 79.3658C2.43177 78.4079 2.76642 77.6504 3.43571 77.0266C4.10501 76.4251 4.90816 76.1132 5.86749 76.1132C6.02366 76.1132 6.20214 76.1132 6.44754 76.1578V81.304L6.42523 81.3263ZM5.28743 81.3263V77.5167C4.752 77.6059 4.37273 77.8286 4.10501 78.1628C3.83729 78.497 3.70343 78.898 3.70343 79.3658C3.70343 79.8782 3.83729 80.3238 4.12732 80.658C4.41735 80.9921 4.79661 81.2149 5.28743 81.3263Z" fill="#F5F5F5"/>
<path d="M5.73363 70.0759C6.02366 69.4298 6.51447 69.1179 7.22839 69.1179C7.76382 69.1179 8.21002 69.2961 8.54467 69.6748C8.87932 70.0313 9.05779 70.566 9.05779 71.2566V74.576H2.58794V71.5239C2.58794 70.8556 2.74411 70.3432 3.07876 69.9867C3.41341 69.6303 3.83729 69.4298 4.37273 69.4298C4.9974 69.4298 5.4436 69.6526 5.73363 70.0981V70.0759ZM3.77036 71.5908V73.2171H5.19819V71.5908C5.19819 71.0115 4.95278 70.7442 4.46197 70.7442C3.97115 70.7442 3.74805 71.0338 3.74805 71.5908H3.77036ZM7.83075 71.368C7.83075 70.7887 7.58535 70.4991 7.07222 70.4991C6.84912 70.4991 6.67064 70.566 6.53678 70.7219C6.40292 70.8779 6.3583 71.1006 6.3583 71.368V73.2171H7.83075V71.368Z" fill="#F5F5F5"/>
<path d="M2.58794 61.6324V60.2289H9.05779V61.6324H2.58794ZM4.79662 64.7514C4.79662 64.0608 4.9974 63.5038 5.37667 63.0582C5.75594 62.6127 6.29137 62.3899 6.91605 62.3899C7.54073 62.3899 8.05385 62.6127 8.45543 63.0582C8.85701 63.5038 9.05779 64.0608 9.05779 64.7514V67.5807H2.58794V66.1772H4.79662V64.7514ZM7.80844 64.7514C7.80844 64.484 7.7192 64.239 7.56304 64.0608C7.40687 63.8825 7.18377 63.7934 6.93836 63.7934C6.69295 63.7934 6.44754 63.8825 6.29137 64.0608C6.13521 64.239 6.04597 64.484 6.04597 64.7514V66.1772H7.80844V64.7514Z" fill="#F5F5F5"/>
<path d="M9.05779 52.5207V54.147L6.84912 55.751L9.05779 57.3773V59.0036L5.73363 56.5753L2.58794 58.87V57.2437L4.64045 55.751L2.58794 54.2584V52.6321L5.75594 54.9267L9.0801 52.4984L9.05779 52.5207Z" fill="#F5F5F5"/>
</g>
<g id="Vector_5">
<path d="M49.8487 127.368H47.1199L43.9244 122.166L40.7288 127.368H38L42.5959 119.972L38.2872 113H40.9801L43.9244 117.778L46.8686 113H49.5974L45.2888 119.972L49.8487 127.368Z" fill="white"/>
<path d="M56.2399 127.616C54.6959 127.616 53.4034 127.085 52.3262 126.059C51.249 125.033 50.7105 123.723 50.7105 122.201C50.7105 120.68 51.249 119.406 52.3262 118.344C53.4034 117.318 54.6959 116.787 56.2399 116.787C57.7838 116.787 59.0764 117.318 60.1535 118.344C61.2307 119.37 61.7334 120.68 61.7334 122.201C61.7334 123.723 61.1948 124.997 60.1535 126.059C59.0764 127.085 57.7838 127.616 56.2399 127.616ZM53.9419 124.537C54.5523 125.139 55.3422 125.457 56.2399 125.457C57.1375 125.457 57.9274 125.139 58.5378 124.537C59.1482 123.936 59.4713 123.157 59.4713 122.201C59.4713 121.246 59.1482 120.503 58.5378 119.866C57.9274 119.264 57.1375 118.946 56.2399 118.946C55.3422 118.946 54.5523 119.264 53.9419 119.866C53.3316 120.467 53.0084 121.246 53.0084 122.201C53.0084 123.157 53.3316 123.9 53.9419 124.537Z" fill="white"/>
<path d="M73.0435 117.105V127.368H70.7815V119.229H67.2987V123.051C67.2987 124.679 66.9396 125.847 66.2215 126.519C65.5034 127.191 64.4622 127.475 63.1337 127.368V125.28C63.78 125.387 64.2467 125.28 64.5699 124.891C64.893 124.502 65.0367 123.865 65.0367 122.945V117.105H73.0435Z" fill="white"/>
<path d="M85 117.105V127.368H82.738V119.229H79.2551V123.051C79.2551 124.679 78.8961 125.847 78.178 126.519C77.4599 127.191 76.4186 127.475 75.0901 127.368V125.28C75.7364 125.387 76.2032 125.28 76.5263 124.891C76.8495 124.502 76.9931 123.865 76.9931 122.945V117.105H85Z" fill="white"/>
<path d="M66.1138 152L65.1085 149.098H58.8969L57.8915 152H55.2704L60.5485 137.632H63.4209L68.699 152H66.1138ZM59.6868 146.868H64.3186L62.0206 140.392L59.7227 146.868H59.6868Z" fill="white"/>
</g>
<g id="Vector_6">
<path d="M179.849 87.7502H177.12L173.924 82.4096L170.729 87.7502H168L172.596 80.1571L168.287 73H170.98L173.924 77.9046L176.869 73H179.597L175.289 80.1571L179.849 87.7502Z" fill="white"/>
<path d="M186.24 88.0046C184.696 88.0046 183.403 87.4596 182.362 86.406C181.285 85.3524 180.746 84.0082 180.746 82.446C180.746 80.8837 181.285 79.5758 182.362 78.4859C183.439 77.4323 184.732 76.8874 186.24 76.8874C187.748 76.8874 189.076 77.4323 190.154 78.4859C191.231 79.5395 191.733 80.8837 191.733 82.446C191.733 84.0082 191.195 85.3161 190.154 86.406C189.076 87.4596 187.784 88.0046 186.24 88.0046ZM183.942 84.8438C184.552 85.4614 185.342 85.7884 186.24 85.7884C187.138 85.7884 187.927 85.4614 188.538 84.8438C189.148 84.2262 189.471 83.4269 189.471 82.446C189.471 81.465 189.148 80.7021 188.538 80.0481C187.927 79.4305 187.138 79.1035 186.24 79.1035C185.342 79.1035 184.552 79.4305 183.942 80.0481C183.332 80.6658 183.008 81.465 183.008 82.446C183.008 83.4269 183.332 84.1898 183.942 84.8438Z" fill="white"/>
<path d="M203.008 77.178V87.7139H200.746V79.3579H197.263V83.2816C197.263 84.9528 196.904 86.1517 196.186 86.842C195.468 87.5322 194.426 87.8229 193.098 87.7139V85.5704C193.744 85.6794 194.211 85.5704 194.534 85.1708C194.857 84.7711 195.001 84.1172 195.001 83.1726V77.178H203.008Z" fill="white"/>
<path d="M215 77.178V87.7139H212.738V79.3579H209.255V83.2816C209.255 84.9528 208.896 86.1517 208.178 86.842C207.46 87.5322 206.419 87.8229 205.09 87.7139V85.5704C205.736 85.6794 206.203 85.5704 206.526 85.1708C206.85 84.7711 206.993 84.1172 206.993 83.1726V77.178H215Z" fill="white"/>
<path d="M192.882 103.99C194.247 103.99 195.36 104.426 196.222 105.262C197.119 106.134 197.55 107.187 197.55 108.495C197.55 109.803 197.119 110.893 196.222 111.728C195.324 112.6 194.211 113 192.882 113H187.353V98.2498H196.329V100.575H189.759V103.954H192.882V103.99ZM192.882 110.784C193.529 110.784 194.067 110.566 194.534 110.166C195.001 109.767 195.18 109.222 195.18 108.531C195.18 107.841 194.965 107.296 194.534 106.896C194.103 106.497 193.565 106.279 192.882 106.279H189.759V110.784H192.882Z" fill="white"/>
</g>
<g id="zorge">
<path d="M95.3746 2.80704H96.8693L94.393 9.49048C94.0806 10.3148 93.6567 10.9163 93.1213 11.3173C92.5859 11.7183 91.9389 11.8965 91.2249 11.852V10.5375C91.6711 10.5598 92.0281 10.4707 92.2958 10.2702C92.5635 10.0697 92.7866 9.73554 92.9428 9.28998L92.9874 9.20086L90.2656 2.78476H91.7604L93.7236 7.48545L95.3746 2.78476V2.80704Z" fill="#F5F5F5"/>
<path d="M103.295 2.80704V9.2677H101.889V4.14373H99.725V6.54977C99.725 7.57456 99.5019 8.30974 99.0557 8.73302C98.6095 9.15631 97.9625 9.33453 97.1371 9.2677V7.95329C97.5386 8.02012 97.8287 7.95329 98.0294 7.70823C98.2302 7.46317 98.3195 7.06216 98.3195 6.48293V2.80704H103.295Z" fill="#F5F5F5"/>
<path d="M106.73 9.13403C106.529 9.31225 106.306 9.42364 106.039 9.42364C105.771 9.42364 105.548 9.33453 105.347 9.13403C105.146 8.93352 105.057 8.71074 105.057 8.44341C105.057 8.17607 105.146 7.95329 105.325 7.75278C105.503 7.57456 105.749 7.46317 106.016 7.46317C106.284 7.46317 106.507 7.55228 106.708 7.75278C106.886 7.95329 106.998 8.17607 106.998 8.44341C106.998 8.71074 106.909 8.93352 106.708 9.13403H106.73Z" fill="#F5F5F5"/>
<path d="M115.186 0.222781C116.033 0.222781 116.747 0.512397 117.327 1.06935C117.908 1.64858 118.198 2.3392 118.198 3.18577C118.198 4.03234 117.908 4.72296 117.327 5.30219C116.747 5.88142 116.033 6.17104 115.186 6.17104H113.334V9.2677H111.839V0.222781H115.186ZM115.186 4.76752C115.632 4.76752 115.989 4.61157 116.279 4.32195C116.569 4.03234 116.703 3.65361 116.703 3.18577C116.703 2.71793 116.569 2.36148 116.279 2.04959C115.989 1.75997 115.632 1.60402 115.186 1.60402H113.334V4.76752H115.186Z" fill="#F5F5F5"/>
<path d="M119.826 9.13403C119.648 9.31225 119.402 9.42364 119.135 9.42364C118.867 9.42364 118.644 9.33453 118.443 9.13403C118.264 8.93352 118.153 8.71074 118.153 8.44341C118.153 8.17607 118.242 7.95329 118.421 7.75278C118.599 7.57456 118.845 7.46317 119.112 7.46317C119.38 7.46317 119.603 7.55228 119.804 7.75278C119.982 7.95329 120.094 8.17607 120.094 8.44341C120.094 8.71074 120.005 8.93352 119.804 9.13403H119.826Z" fill="#F5F5F5"/>
<path d="M129.531 4.56701C130.446 5.01258 130.914 5.72548 130.914 6.75027C130.914 7.55228 130.624 8.19835 130.022 8.68847C129.419 9.17859 128.639 9.42364 127.679 9.42364C126.028 9.42364 124.935 8.73302 124.4 7.3295L125.694 6.59432C125.961 7.55228 126.631 8.02012 127.702 8.02012C128.282 8.02012 128.705 7.90873 129.018 7.64139C129.33 7.39634 129.464 7.06216 129.464 6.66116C129.464 6.26015 129.33 5.92598 129.04 5.68092C128.75 5.43586 128.349 5.30219 127.813 5.30219H126.72V3.9655H127.523C128.036 3.9655 128.438 3.85411 128.705 3.60906C128.973 3.364 129.129 3.07438 129.129 2.67337C129.129 2.27237 128.996 1.98275 128.75 1.73769C128.482 1.51491 128.125 1.40352 127.635 1.40352C126.742 1.40352 126.14 1.80453 125.828 2.62882L124.556 1.89364C125.136 0.623787 126.162 0 127.635 0C128.527 0 129.241 0.245059 129.799 0.7129C130.356 1.18074 130.624 1.80453 130.624 2.58426C130.624 3.43083 130.267 4.0769 129.576 4.52246L129.531 4.56701Z" fill="#F5F5F5"/>
<path d="M135.532 9.42364C134.573 9.42364 133.77 9.08947 133.101 8.44341C132.431 7.79734 132.097 6.97305 132.097 6.01509C132.097 5.05713 132.431 4.25512 133.101 3.58678C133.77 2.94071 134.573 2.60654 135.532 2.60654C136.492 2.60654 137.295 2.94071 137.964 3.58678C138.633 4.23284 138.946 5.05713 138.946 6.01509C138.946 6.97305 138.611 7.77506 137.964 8.44341C137.295 9.08947 136.492 9.42364 135.532 9.42364ZM134.104 7.48545C134.484 7.86418 134.975 8.06468 135.532 8.06468C136.09 8.06468 136.581 7.86418 136.96 7.48545C137.339 7.10672 137.54 6.6166 137.54 6.01509C137.54 5.41358 137.339 4.94574 136.96 4.54474C136.581 4.14373 136.09 3.9655 135.532 3.9655C134.975 3.9655 134.484 4.16601 134.104 4.54474C133.725 4.92346 133.524 5.41358 133.524 6.01509C133.524 6.6166 133.725 7.08444 134.104 7.48545Z" fill="#F5F5F5"/>
<path d="M144.166 2.62882C145.059 2.62882 145.817 2.96299 146.442 3.60906C147.066 4.25512 147.379 5.07941 147.379 6.01509C147.379 6.95077 147.066 7.77506 146.442 8.44341C145.817 9.08947 145.059 9.42364 144.166 9.42364C143.185 9.42364 142.426 9.06719 141.891 8.33202V11.8297H140.485V2.80704H141.891V3.74272C142.426 3.00755 143.162 2.6511 144.166 2.6511V2.62882ZM142.493 7.50773C142.872 7.90873 143.363 8.08696 143.965 8.08696C144.568 8.08696 145.036 7.88645 145.438 7.50773C145.817 7.10672 146.018 6.6166 146.018 6.01509C146.018 5.41358 145.817 4.92346 145.438 4.52246C145.059 4.12145 144.568 3.94323 143.965 3.94323C143.363 3.94323 142.895 4.14373 142.493 4.52246C142.114 4.92346 141.913 5.41358 141.913 6.01509C141.913 6.6166 142.114 7.10672 142.493 7.50773Z" fill="#F5F5F5"/>
<path d="M153.336 2.80704V4.14373H150.391V9.2677H148.985V2.80704H153.336Z" fill="#F5F5F5"/>
<path d="M155.656 6.6166C155.767 7.10672 155.99 7.48545 156.37 7.75279C156.749 8.02012 157.195 8.15379 157.731 8.15379C158.467 8.15379 159.025 7.88645 159.404 7.35178L160.564 8.02012C159.917 8.9558 158.98 9.42364 157.731 9.42364C156.682 9.42364 155.834 9.11175 155.187 8.46568C154.54 7.81962 154.206 7.01761 154.206 6.03737C154.206 5.05713 154.518 4.25512 155.165 3.60906C155.812 2.96299 156.615 2.62882 157.619 2.62882C158.578 2.62882 159.359 2.96299 159.962 3.63133C160.564 4.29968 160.876 5.10169 160.876 6.05965C160.876 6.21559 160.876 6.39382 160.832 6.63888H155.678L155.656 6.6166ZM155.656 5.48042H159.471C159.382 4.94574 159.158 4.56701 158.824 4.29968C158.489 4.03234 158.088 3.89867 157.619 3.89867C157.106 3.89867 156.66 4.03234 156.325 4.32195C155.968 4.61157 155.767 4.9903 155.656 5.48042Z" fill="#F5F5F5"/>
</g>
</g>
</svg>
