<svg width="238" height="213" viewBox="0 0 238 213" fill="none" xmlns="http://www.w3.org/2000/svg">
<g clip-path="url(#clip0_85_178)">
<path d="M0 138.22H2.29297V168.524H21.3946V170.861H0V138.22Z" fill="#F5F5F5"/>
<path d="M22.814 158.782C22.814 151.815 28.1258 146.26 34.9469 146.26C41.768 146.26 47.0797 151.718 47.0797 158.686C47.0797 159.122 47.0283 159.27 47.0283 159.61H25.152C25.5438 164.972 29.5388 169.012 34.9469 169.012C38.5051 169.012 41.3312 167.503 43.2774 164.433L45.4676 165.017C43.3223 168.819 39.4236 171.201 34.9404 171.201C28.1193 171.201 22.8076 165.698 22.8076 158.776L22.814 158.782ZM44.6904 157.806C44.2986 152.303 40.2072 148.353 34.9469 148.353C29.6865 148.353 25.5438 152.399 25.152 157.806H44.6904Z" fill="#F5F5F5"/>
<path d="M63.1562 154.345C63.1562 145.335 70.5618 137.88 79.5282 137.88C83.8187 137.88 88.1991 139.78 91.2692 142.946L89.6121 144.603C87.0301 141.778 83.3241 140.172 79.5282 140.172C71.7822 140.172 65.4492 146.6 65.4492 154.351C65.4492 162.102 71.7372 168.871 79.5282 168.871C83.1314 168.871 87.1265 167.066 89.6635 164.292L91.3206 165.949C88.1991 169.166 83.7673 171.208 79.5282 171.208C70.5618 171.208 63.1562 163.316 63.1562 154.351V154.345Z" fill="#F5F5F5"/>
<path d="M95.8486 138.22H106.864C114.565 138.22 118.753 141.437 118.753 148.058C118.753 153.317 116.415 156.387 111.54 157.511L119.967 170.861H117.192L109.003 157.902C108.322 157.954 107.641 157.954 106.857 157.954H98.1866V170.861H95.8486V138.22ZM98.1866 140.365V155.854H106.857C113.19 155.854 116.46 153.613 116.46 148.013C116.46 142.702 112.953 140.365 106.857 140.365H98.1866Z" fill="#F5F5F5"/>
<path d="M124.79 170.861V138.22H127.083V170.861H124.79Z" fill="#F5F5F5"/>
<path d="M134.745 161.261C135.722 165.159 139.813 168.761 144.148 168.813C149.267 168.864 152.819 165.936 152.819 162.629C152.819 158.243 148.632 156.785 145.561 155.513C144.682 155.173 141.271 153.908 140.102 153.42C137.083 152.2 133.525 149.618 133.525 145.528C133.525 141.437 137.571 137.976 144.001 137.88C150.237 137.783 154.284 141.437 154.669 146.748L152.524 146.992C152.524 143.19 149.062 139.979 144.142 139.979C139.222 139.979 135.908 142.805 135.908 145.534C135.908 149.381 140.442 151.038 142.292 151.718C143.217 152.11 146.48 153.426 147.212 153.664C152.524 155.513 155.254 158.146 155.254 162.481C155.254 167.156 150.867 171.202 144.142 171.202C138.779 171.202 133.615 167.111 132.35 161.505L134.739 161.261H134.745Z" fill="#F5F5F5"/>
<path d="M156.918 140.512V138.22H183.033V140.512H171.093V170.861H168.8V140.512H156.911H156.918Z" fill="#F5F5F5"/>
<path d="M180.04 170.861L191.832 138.22H201.043L212.835 170.861H210.446L206.888 161.023C203.426 160.728 200.555 158.975 196.412 158.975C192.269 158.975 189.687 160.779 185.988 161.023L182.429 170.861H180.04ZM186.765 158.827C190.079 158.39 192.61 156.83 196.412 156.83C200.214 156.83 202.944 158.339 206.059 158.827L199.482 140.512H193.393L186.765 158.827Z" fill="#F5F5F5"/>
<path d="M216.611 138.22H218.904V168.524H238.006V170.861H216.618V138.22H216.611Z" fill="#F5F5F5"/>
<path d="M95.4761 105.463L46.5723 35.8264L70.9407 0H120.024L144.386 35.8264L95.4825 105.456L95.4761 105.463ZM49.3919 35.8072L95.4761 101.424L141.56 35.8072L118.791 2.31822H72.1675L49.3983 35.8072H49.3919Z" fill="#F5F5F5"/>
<path d="M111.161 105.463L62.2568 35.8264L86.6188 0H135.703L160.065 35.8264L111.161 105.456V105.463ZM65.0765 35.8072L111.161 101.424L157.245 35.8072L134.469 2.31822H87.8456L65.0765 35.8072Z" fill="#F5F5F5"/>
<path d="M126.846 105.463L77.9355 35.8264L102.304 0H151.388L175.75 35.8264L126.846 105.456V105.463ZM80.7552 35.8072L126.839 101.424L172.924 35.8072L150.154 2.31822H103.531L80.7616 35.8072H80.7552Z" fill="#F5F5F5"/>
<path d="M142.524 105.463L93.6201 35.8264L117.982 0H167.066L191.428 35.8264L142.524 105.456V105.463ZM96.4398 35.8072L142.524 101.424L188.608 35.8072L165.839 2.31822H119.215L96.4462 35.8072H96.4398Z" fill="#F5F5F5"/>
<path d="M119.003 53.5632L106.883 35.4734L119.003 17.3835L131.123 35.4734L119.003 53.5632ZM109.677 35.4734L119.003 49.3955L128.335 35.4734L119.009 21.5512L109.677 35.4734Z" fill="#F5F5F5"/>
<path d="M50.6248 212.878L46.4756 208.595V212.878H45.3131V208.595L41.1703 212.878H39.7188L43.9193 208.473L39.9821 204.215H41.4337L45.3195 208.402V204.215H46.482V208.402L50.3743 204.215H51.8195L47.8887 208.473L52.0828 212.878H50.6377H50.6248Z" fill="#F5F5F5"/>
<path d="M61.8066 205.48L57.2721 212.878H55.5957V204.215H56.7647V211.613H56.8032L61.3442 204.215H63.0141V212.878H61.8516V205.48H61.8066Z" fill="#F5F5F5"/>
<path d="M66.5918 212.904V211.831C66.7203 211.863 66.8423 211.883 66.9515 211.883C67.369 211.883 67.658 211.728 67.8186 211.427C67.9727 211.131 68.1012 210.624 68.1911 209.911L68.9362 204.222H74.6654V212.884H73.4964V205.262H69.9959L69.3729 209.911C69.2188 211.061 68.994 211.863 68.6985 212.313C68.403 212.769 67.9085 213 67.2148 213C66.9964 213 66.7652 212.955 66.6689 212.929L66.5918 212.904Z" fill="#F5F5F5"/>
<path d="M78.9883 208.543C78.9883 207.227 79.3801 206.154 80.1637 205.333C80.9408 204.504 81.9942 204.093 83.3173 204.093C84.6404 204.093 85.6938 204.504 86.4774 205.333C87.2545 206.161 87.6463 207.227 87.6463 208.543C87.6463 209.86 87.2545 210.939 86.4774 211.754C85.6938 212.583 84.6404 212.994 83.3173 212.994C81.9942 212.994 80.9408 212.583 80.1637 211.754C79.3801 210.932 78.9883 209.866 78.9883 208.543ZM86.4388 208.543C86.4388 207.554 86.1626 206.739 85.6103 206.103C85.0579 205.467 84.2936 205.153 83.3173 205.153C82.341 205.153 81.5767 205.467 81.0243 206.103C80.472 206.739 80.1958 207.554 80.1958 208.543C80.1958 209.532 80.472 210.341 81.0243 210.977C81.5767 211.613 82.341 211.934 83.3173 211.934C84.2936 211.934 85.0579 211.613 85.6103 210.977C86.1626 210.341 86.4388 209.532 86.4388 208.543Z" fill="#F5F5F5"/>
<path d="M98.1924 205.48L93.6578 212.878H91.9814V204.215H93.1504V211.613H93.1889L97.7299 204.215H99.3999V212.878H98.2373V205.48H98.1924ZM95.7324 203.104C95.058 203.104 94.5377 202.963 94.1716 202.68C93.812 202.404 93.6257 202 93.6257 201.46V201.383H94.5634V201.46C94.5634 202.012 94.9488 202.289 95.7324 202.289C96.516 202.289 96.8949 202.012 96.8949 201.46V201.383H97.8391V201.46C97.8391 202 97.6593 202.404 97.2932 202.68C96.9335 202.963 96.4132 203.104 95.7324 203.104Z" fill="#F5F5F5"/>
<path d="M114.847 212.878L110.454 208.595V212.878H109.285V204.215H110.454V208.402L114.578 204.215H116.023L111.854 208.473L116.293 212.878H114.847Z" fill="#F5F5F5"/>
<path d="M119.138 208.543C119.138 207.227 119.529 206.154 120.313 205.333C121.09 204.504 122.144 204.093 123.467 204.093C124.79 204.093 125.843 204.504 126.627 205.333C127.404 206.161 127.796 207.227 127.796 208.543C127.796 209.86 127.404 210.939 126.627 211.754C125.843 212.583 124.79 212.994 123.467 212.994C122.144 212.994 121.09 212.583 120.313 211.754C119.529 210.932 119.138 209.866 119.138 208.543ZM126.588 208.543C126.588 207.554 126.312 206.739 125.76 206.103C125.207 205.467 124.443 205.153 123.467 205.153C122.49 205.153 121.726 205.467 121.174 206.103C120.621 206.739 120.345 207.554 120.345 208.543C120.345 209.532 120.621 210.341 121.174 210.977C121.726 211.613 122.49 211.934 123.467 211.934C124.443 211.934 125.207 211.613 125.76 210.977C126.312 210.341 126.588 209.532 126.588 208.543Z" fill="#F5F5F5"/>
<path d="M135.895 210.566L133.345 205.583H133.294V212.878H132.125V204.215H133.911L136.602 209.474H136.653L139.338 204.215H141.123V212.878H139.961V205.583H139.91L137.366 210.566H135.902H135.895Z" fill="#F5F5F5"/>
<path d="M151.804 212.878V205.255H146.858V212.878H145.689V204.215H152.973V212.878H151.804Z" fill="#F5F5F5"/>
<path d="M156.545 212.904V211.831C156.673 211.863 156.795 211.883 156.905 211.883C157.322 211.883 157.611 211.728 157.772 211.427C157.926 211.131 158.054 210.624 158.144 209.911L158.889 204.222H164.618V212.884H163.45V205.262H159.949L159.326 209.911C159.172 211.061 158.947 211.863 158.652 212.313C158.356 212.769 157.862 213 157.168 213C156.95 213 156.718 212.955 156.622 212.929L156.545 212.904Z" fill="#F5F5F5"/>
<path d="M169.191 212.878V204.215H175.704V205.255H170.354V207.908H174.959V208.948H170.354V211.844H175.704V212.884H169.191V212.878Z" fill="#F5F5F5"/>
<path d="M185.467 212.878L181.073 208.595V212.878H179.904V204.215H181.073V208.402L185.197 204.215H186.642L182.473 208.473L186.912 212.878H185.467Z" fill="#F5F5F5"/>
<path d="M195.423 211.683C195.815 211.517 196.104 211.311 196.303 211.067C196.695 210.585 196.964 210.072 197.035 209.738L197.086 209.481H198.281C198.281 210.142 197.96 210.919 197.33 211.677C197.016 212.056 196.572 212.377 196.014 212.627C195.448 212.878 194.806 213 194.087 213C192.764 213 191.71 212.589 190.933 211.761C190.15 210.939 189.758 209.873 189.758 208.55C189.758 207.227 190.15 206.161 190.933 205.339C191.71 204.51 192.764 204.099 194.087 204.099C194.806 204.099 195.448 204.228 196.014 204.472C196.572 204.729 197.016 205.037 197.33 205.422C197.96 206.18 198.281 206.97 198.281 207.625H197.086C197.067 207.561 197.086 207.484 196.964 207.143C196.842 206.797 196.707 206.52 196.393 206.142C196.078 205.763 195.725 205.493 195.102 205.3C194.793 205.21 194.453 205.159 194.093 205.159C193.123 205.159 192.353 205.474 191.8 206.109C191.248 206.745 190.972 207.561 190.972 208.55C190.972 209.539 191.248 210.348 191.8 210.984C192.353 211.619 193.117 211.94 194.093 211.94C194.588 211.94 195.037 211.857 195.429 211.683H195.423Z" fill="#F5F5F5"/>
</g>
<defs>
<clipPath id="clip0_85_178">
<rect width="238" height="213" fill="white"/>
</clipPath>
</defs>
</svg>
