<svg width="394" height="87" viewBox="0 0 394 87" fill="none" xmlns="http://www.w3.org/2000/svg">
<path d="M52.8887 81L18.2166 31.4762L35.4957 6H70.2932L87.5723 31.4762L52.9001 80.9886L52.8887 81ZM20.2112 31.4648L52.8887 78.1198L85.5663 31.4648L69.4156 7.64584H36.3619L20.2112 31.4648Z" fill="#F5F5F5"/>
<path d="M64.013 81L29.3408 31.4762L46.6085 6H81.4061L98.6852 31.4762L64.013 80.9886V81ZM31.3354 31.4648L64.013 78.1198L96.6906 31.4648L80.5398 7.64584H47.4862L31.3354 31.4648Z" fill="#F5F5F5"/>
<path d="M75.126 81L40.4539 31.4762L57.733 6H92.5305L109.81 31.4762L75.1374 80.9886L75.126 81ZM42.4485 31.4648L75.126 78.1198L107.804 31.4648L91.6529 7.64584H58.5992L42.4485 31.4648Z" fill="#F5F5F5"/>
<path d="M86.2501 81L51.5779 31.4762L68.8456 6H103.643L120.922 31.4762L86.2501 80.9886V81ZM53.5725 31.4648L86.2501 78.1198L118.928 31.4648L102.777 7.64584H69.7232L53.5725 31.4648Z" fill="#F5F5F5"/>
<path d="M69.5637 44.0946L60.9697 31.225L69.5637 18.3555L78.1576 31.225L69.5637 44.0946ZM62.9529 31.225L69.5637 41.1229L76.1744 31.225L69.5637 21.3271L62.9529 31.225Z" fill="#F5F5F5"/>
<path d="M142.451 14.1592H144.817V45.5147H164.517V47.941H142.451V14.1592Z" fill="#F5F5F5"/>
<path d="M165.985 35.4386C165.985 28.2261 171.459 22.4854 178.506 22.4854C185.553 22.4854 191.026 28.1333 191.026 35.3458C191.026 35.7965 190.973 35.9556 190.973 36.3003H168.404C168.801 41.8423 172.926 46.0318 178.506 46.0318C182.181 46.0318 185.09 44.4674 187.1 41.2987L189.36 41.9085C187.152 45.8462 183.133 48.3122 178.506 48.3122C171.472 48.3122 165.985 42.6112 165.985 35.4518V35.4386ZM188.554 34.4309C188.157 28.7299 183.926 24.6464 178.506 24.6464C173.085 24.6464 168.801 28.836 168.404 34.4309H188.567H188.554Z" fill="#F5F5F5"/>
<path d="M207.606 30.8512C207.606 21.5307 215.248 13.8145 224.503 13.8145C228.932 13.8145 233.454 15.7767 236.614 19.0514L234.909 20.7617C232.238 17.8317 228.43 16.1744 224.503 16.1744C216.504 16.1744 209.973 22.83 209.973 30.8379C209.973 38.8458 216.451 45.8594 224.503 45.8594C228.218 45.8594 232.344 43.99 234.961 41.1262L236.667 42.8366C233.454 46.1643 228.88 48.2857 224.503 48.2857C215.248 48.2857 207.606 40.1186 207.606 30.8379V30.8512Z" fill="#F5F5F5"/>
<path d="M241.334 14.1592H252.691C260.637 14.1592 264.961 17.487 264.961 24.3414C264.961 29.7905 262.541 32.9592 257.517 34.126L266.217 47.941H263.348L254.899 34.537C254.199 34.59 253.498 34.59 252.691 34.59H243.74V47.9542H241.321V14.1592H241.334ZM243.754 16.3733V32.4024H252.704C259.236 32.4024 262.607 30.0822 262.607 24.2884C262.607 18.7995 258.985 16.3733 252.704 16.3733H243.754Z" fill="#F5F5F5"/>
<path d="M271.201 47.941V14.1592H273.568V47.941H271.201Z" fill="#F5F5F5"/>
<path d="M281.475 38.0108C282.479 42.0413 286.697 45.7801 291.179 45.8199C296.455 45.8729 300.13 42.85 300.13 39.4162C300.13 34.8819 295.807 33.3704 292.634 32.0579C291.734 31.6999 288.204 30.4006 287.001 29.8968C283.881 28.6373 280.219 25.9591 280.219 21.7298C280.219 17.5004 284.397 13.9207 291.021 13.8147C297.459 13.7086 301.624 17.5004 302.034 22.9893L299.826 23.2412C299.826 19.3035 296.256 15.9757 291.179 15.9757C286.102 15.9757 282.678 18.9058 282.678 21.7165C282.678 25.694 287.358 27.4175 289.262 28.1202C290.214 28.518 293.585 29.8836 294.339 30.1355C299.813 32.0446 302.629 34.7758 302.629 39.2571C302.629 44.0963 298.107 48.2859 291.166 48.2859C285.639 48.2859 280.311 44.0565 279.002 38.2494L281.461 37.9975L281.475 38.0108Z" fill="#F5F5F5"/>
<path d="M304.348 16.5324V14.1592H331.293V16.5324H318.971V47.941H316.604V16.5324H304.334H304.348Z" fill="#F5F5F5"/>
<path d="M328.199 47.9414L340.363 14.1729H349.869L362.033 47.9414H359.574L355.898 37.7591C352.328 37.4542 349.367 35.6378 345.096 35.6378C340.826 35.6378 338.155 37.5072 334.334 37.7591L330.658 47.9414H328.199ZM335.14 35.492C338.565 35.0412 341.169 33.4237 345.096 33.4237C349.023 33.4237 351.826 34.9881 355.052 35.492L348.269 16.5328H341.989L335.154 35.492H335.14Z" fill="#F5F5F5"/>
<path d="M365.933 14.1592H368.3V45.5147H388V47.941H365.933V14.1592Z" fill="#F5F5F5"/>
<path d="M153.702 74.0602L149.418 69.6319V74.0602H148.215V69.6319L143.945 74.0602H142.451L146.787 69.4994L142.728 65.0977H144.222L148.228 69.4331V65.0977H149.432V69.4331L153.451 65.0977H154.945L150.886 69.4994L155.209 74.0602H153.715H153.702Z" fill="#F5F5F5"/>
<path d="M165.244 66.4096L160.564 74.0729H158.832V65.1104H160.035V72.7736H160.075L164.768 65.1104H166.487V74.0729H165.284V66.4096H165.244Z" fill="#F5F5F5"/>
<path d="M170.176 74.0861V72.9724C170.308 72.999 170.427 73.0255 170.546 73.0255C170.983 73.0255 171.273 72.8664 171.432 72.5614C171.591 72.2565 171.723 71.7262 171.816 70.997L172.582 65.1104H178.492V74.0729H177.289V66.1843H173.68L173.032 70.997C172.873 72.1902 172.635 73.0122 172.331 73.4895C172.027 73.9668 171.511 74.2054 170.797 74.2054C170.573 74.2054 170.335 74.1657 170.242 74.1259L170.163 74.0994L170.176 74.0861Z" fill="#F5F5F5"/>
<path d="M182.975 69.5787C182.975 68.2131 183.384 67.1127 184.191 66.2509C184.998 65.3891 186.082 64.9648 187.443 64.9648C188.805 64.9648 189.889 65.3891 190.709 66.2509C191.516 67.1127 191.912 68.2131 191.912 69.5787C191.912 70.9443 191.502 72.058 190.709 72.9065C189.903 73.7683 188.819 74.1925 187.443 74.1925C186.068 74.1925 184.998 73.7683 184.191 72.9065C183.384 72.058 182.975 70.9443 182.975 69.5787ZM190.656 69.5787C190.656 68.5578 190.365 67.7093 189.797 67.0596C189.228 66.41 188.435 66.0785 187.43 66.0785C186.425 66.0785 185.632 66.41 185.064 67.0596C184.495 67.7093 184.204 68.5578 184.204 69.5787C184.204 70.5996 184.495 71.4348 185.064 72.0977C185.632 72.7606 186.425 73.0788 187.43 73.0788C188.435 73.0788 189.228 72.7474 189.797 72.0977C190.365 71.4481 190.656 70.5996 190.656 69.5787Z" fill="#F5F5F5"/>
<path d="M202.78 66.41L198.1 74.0732H196.368V65.1107H197.571V72.7739H197.611L202.304 65.1107H204.023V74.0732H202.82V66.41H202.78ZM200.242 63.9573C199.541 63.9573 199.012 63.8114 198.629 63.5197C198.259 63.2281 198.074 62.8171 198.074 62.2602V62.1807H199.039V62.2602C199.039 62.8303 199.435 63.122 200.242 63.122C201.048 63.122 201.445 62.8303 201.445 62.2602V62.1807H202.423V62.2602C202.423 62.8171 202.238 63.2413 201.868 63.5197C201.498 63.8114 200.956 63.9573 200.255 63.9573H200.242Z" fill="#F5F5F5"/>
<path d="M219.955 74.0602L215.42 69.6319V74.0602H214.217V65.0977H215.42V69.4331L219.677 65.0977H221.171L216.874 69.4994L221.462 74.0602H219.968H219.955Z" fill="#F5F5F5"/>
<path d="M224.384 69.5787C224.384 68.2131 224.794 67.1127 225.601 66.2509C226.407 65.3891 227.491 64.9648 228.853 64.9648C230.215 64.9648 231.299 65.3891 232.119 66.2509C232.925 67.1127 233.322 68.2131 233.322 69.5787C233.322 70.9443 232.912 72.058 232.119 72.9065C231.312 73.7683 230.228 74.1925 228.853 74.1925C227.478 74.1925 226.407 73.7683 225.601 72.9065C224.794 72.058 224.384 70.9443 224.384 69.5787ZM232.066 69.5787C232.066 68.5578 231.775 67.7093 231.207 67.0596C230.638 66.41 229.845 66.0785 228.84 66.0785C227.835 66.0785 227.042 66.41 226.473 67.0596C225.905 67.7093 225.614 68.5578 225.614 69.5787C225.614 70.5996 225.905 71.4348 226.473 72.0977C227.042 72.7606 227.835 73.0788 228.84 73.0788C229.845 73.0788 230.638 72.7474 231.207 72.0977C231.775 71.4481 232.066 70.5996 232.066 69.5787Z" fill="#F5F5F5"/>
<path d="M241.678 71.6731L239.047 66.5157H238.994V74.0729H237.791V65.1104H239.629L242.405 70.5595H242.458L245.221 65.1104H247.059V74.0729H245.856V66.5157H245.803L243.185 71.6731H241.678Z" fill="#F5F5F5"/>
<path d="M258.086 74.0602V66.1716H252.982V74.0602H251.779V65.0977H259.289V74.0602H258.086Z" fill="#F5F5F5"/>
<path d="M262.978 74.0861V72.9724C263.11 72.999 263.229 73.0255 263.348 73.0255C263.784 73.0255 264.075 72.8664 264.234 72.5614C264.392 72.2565 264.524 71.7262 264.617 70.997L265.384 65.1104H271.294V74.0729H270.091V66.1843H266.481L265.833 70.997C265.675 72.1902 265.437 73.0122 265.133 73.4895C264.829 73.9668 264.313 74.2054 263.599 74.2054C263.374 74.2054 263.136 74.1657 263.044 74.1259L262.964 74.0994L262.978 74.0861Z" fill="#F5F5F5"/>
<path d="M276.027 74.0602V65.0977H282.744V66.1716H277.231V68.916H281.977V69.9899H277.231V72.9863H282.744V74.0602H276.027Z" fill="#F5F5F5"/>
<path d="M292.818 74.0602L288.283 69.6319V74.0602H287.08V65.0977H288.283V69.4331L292.541 65.0977H294.035L289.738 69.4994L294.326 74.0602H292.832H292.818Z" fill="#F5F5F5"/>
<path d="M303.092 72.8269C303.502 72.6546 303.792 72.4424 304.004 72.1905C304.414 71.6867 304.678 71.1564 304.758 70.8117L304.81 70.5465H306.04C306.04 71.2227 305.71 72.0314 305.062 72.8269C304.731 73.2247 304.282 73.5561 303.7 73.808C303.118 74.0599 302.457 74.1925 301.717 74.1925C300.355 74.1925 299.271 73.7683 298.464 72.9065C297.658 72.058 297.248 70.9443 297.248 69.5787C297.248 68.2131 297.658 67.1127 298.464 66.2509C299.271 65.3891 300.355 64.9648 301.717 64.9648C302.457 64.9648 303.118 65.0974 303.7 65.3493C304.282 65.6145 304.731 65.9327 305.062 66.3304C305.71 67.1127 306.04 67.9347 306.04 68.6108H304.81C304.797 68.5445 304.81 68.465 304.692 68.107C304.573 67.7491 304.427 67.4574 304.097 67.0729C303.766 66.6884 303.409 66.41 302.761 66.1979C302.444 66.105 302.1 66.052 301.717 66.052C300.712 66.052 299.919 66.3835 299.35 67.0331C298.781 67.6828 298.491 68.5313 298.491 69.5522C298.491 70.573 298.781 71.4083 299.35 72.0712C299.919 72.7341 300.712 73.0523 301.717 73.0523C302.232 73.0523 302.695 72.9595 303.092 72.7872V72.8269Z" fill="#F5F5F5"/>
</svg>
