<svg width="148" height="143" viewBox="0 0 148 143" fill="none" xmlns="http://www.w3.org/2000/svg">
<rect width="148" height="143" rx="71.5" fill="#85919D"/>
<path d="M21.7415 85.04H22.7484V98.4228H31.1368V99.4551H21.7415V85.04Z" fill="#F5F5F5"/>
<path d="M31.7604 94.1189C31.7604 91.0419 34.093 88.5889 37.0885 88.5889C40.0839 88.5889 42.4165 90.9994 42.4165 94.0764C42.4165 94.2692 42.394 94.3345 42.394 94.4848H32.7871C32.9591 96.8528 34.7135 98.6366 37.0885 98.6366C38.6511 98.6366 39.8921 97.9701 40.7468 96.6146L41.7086 96.8726C40.7665 98.5515 39.0544 99.6036 37.0856 99.6036C34.0902 99.6036 31.7576 97.1732 31.7576 94.1161L31.7604 94.1189ZM41.3673 93.6879C41.1952 91.2575 39.3985 89.5134 37.0885 89.5134C34.7784 89.5134 32.9591 91.3 32.7871 93.6879H41.3673Z" fill="#F5F5F5"/>
<path d="M49.4766 92.161C49.4766 88.1822 52.7287 84.8896 56.6662 84.8896C58.5504 84.8896 60.474 85.7291 61.8222 87.1272L61.0945 87.8589C59.9607 86.6111 58.3332 85.9021 56.6662 85.9021C53.2646 85.9021 50.4835 88.7408 50.4835 92.1638C50.4835 95.5868 53.2449 98.5758 56.6662 98.5758C58.2486 98.5758 60.003 97.7789 61.1171 96.5538L61.8448 97.2855C60.474 98.7063 58.5278 99.6081 56.6662 99.6081C52.7287 99.6081 49.4766 96.1228 49.4766 92.1638V92.161Z" fill="#F5F5F5"/>
<path d="M63.8333 85.04H68.6706C72.0524 85.04 73.8914 86.4608 73.8914 89.3847C73.8914 91.7073 72.8648 93.0629 70.7239 93.5592L74.4245 99.4551H73.206L69.6098 93.7322C69.3108 93.7549 69.0118 93.7549 68.6677 93.7549H64.8599V99.4551H63.8333V85.04ZM64.8599 85.9872V92.8275H68.6677C71.4488 92.8275 72.8845 91.8378 72.8845 89.3648C72.8845 87.0195 71.3445 85.9872 68.6677 85.9872H64.8599Z" fill="#F5F5F5"/>
<path d="M76.5425 99.4551V85.04H77.5494V99.4551H76.5425Z" fill="#F5F5F5"/>
<path d="M80.9141 95.2141C81.3429 96.9355 83.1396 98.5265 85.0435 98.5492C87.2915 98.5719 88.8513 97.2787 88.8513 95.8182C88.8513 93.8813 87.0122 93.2375 85.664 92.676C85.2776 92.5257 83.7799 91.967 83.2665 91.7515C81.9408 91.2126 80.3782 90.0726 80.3782 88.2661C80.3782 86.4596 82.1552 84.9311 84.9786 84.8885C87.7174 84.846 89.4943 86.4596 89.6636 88.8049L88.7215 88.9127C88.7215 87.2338 87.2012 85.8159 85.0406 85.8159C82.8801 85.8159 81.4247 87.0637 81.4247 88.2689C81.4247 89.9677 83.416 90.6993 84.2283 90.9999C84.6345 91.1729 86.0673 91.7543 86.3889 91.8592C88.7215 92.676 89.9203 93.8387 89.9203 95.753C89.9203 97.8175 87.9938 99.6042 85.0406 99.6042C82.6855 99.6042 80.4177 97.7977 79.8621 95.3219L80.9113 95.2141H80.9141Z" fill="#F5F5F5"/>
<path d="M90.651 86.0525V85.04H102.119V86.0525H96.876V99.4551H95.8691V86.0525H90.6482H90.651Z" fill="#F5F5F5"/>
<path d="M100.805 99.4551L105.984 85.04H110.029L115.207 99.4551H114.158L112.595 95.1104C111.075 94.98 109.814 94.2058 107.995 94.2058C106.176 94.2058 105.042 95.0027 103.417 95.1104L101.855 99.4551H100.805ZM103.759 94.1405C105.214 93.9477 106.325 93.2586 107.995 93.2586C109.665 93.2586 110.864 93.925 112.232 94.1405L109.343 86.0525H106.669L103.759 94.1405Z" fill="#F5F5F5"/>
<path d="M116.866 85.04H117.873V98.4228H126.261V99.4551H116.869V85.04H116.866Z" fill="#F5F5F5"/>
<path d="M63.67 70.5745L42.1941 39.8217L52.8954 24H74.4503L85.1487 39.8217L63.6728 70.5717L63.67 70.5745ZM43.4323 39.8132L63.67 68.7907L83.9077 39.8132L73.9087 25.0238H53.4341L43.4351 39.8132H43.4323Z" fill="#F5F5F5"/>
<path d="M70.5577 70.5745L49.0818 39.8217L59.7803 24H81.3351L92.0336 39.8217L70.5577 70.5717V70.5745ZM50.32 39.8132L70.5577 68.7907L90.7954 39.8132L80.7936 25.0238H60.319L50.32 39.8132Z" fill="#F5F5F5"/>
<path d="M77.4455 70.5745L55.9668 39.8217L66.6681 24H88.223L98.9214 39.8217L77.4455 70.5717V70.5745ZM57.205 39.8132L77.4427 68.7907L97.6804 39.8132L87.6814 25.0238H67.2068L57.2079 39.8132H57.205Z" fill="#F5F5F5"/>
<path d="M84.3302 70.5745L62.8542 39.8217L73.5527 24H95.1076L105.806 39.8217L84.3302 70.5717V70.5745ZM64.0925 39.8132L84.3302 68.7907L104.568 39.8132L94.5689 25.0238H74.0943L64.0953 39.8132H64.0925Z" fill="#F5F5F5"/>
<path d="M74.0014 47.6554L68.679 39.6666L74.0014 31.6777L79.3238 39.6666L74.0014 47.6554ZM69.9059 39.6666L74.0014 45.8148L78.0997 39.6666L74.0042 33.5183L69.9059 39.6666Z" fill="#F5F5F5"/>
<path d="M43.9739 118.01L42.1518 116.119V118.01H41.6413V116.119L39.822 118.01H39.1846L41.0292 116.065L39.3002 114.185H39.9377L41.6441 116.034V114.185H42.1546V116.034L43.8639 114.185H44.4985L42.7723 116.065L44.6142 118.01H43.9796H43.9739Z" fill="#F5F5F5"/>
<path d="M48.8845 114.743L46.8932 118.01H46.157V114.185H46.6703V117.452H46.6873L48.6814 114.185H49.4148V118.01H48.9042V114.743H48.8845Z" fill="#F5F5F5"/>
<path d="M50.9856 118.022V117.548C51.042 117.562 51.0956 117.571 51.1435 117.571C51.3269 117.571 51.4538 117.503 51.5243 117.369C51.592 117.239 51.6484 117.015 51.6879 116.7L52.0151 114.188H54.5311V118.013H54.0177V114.647H52.4805L52.2069 116.7C52.1392 117.208 52.0405 117.562 51.9107 117.761C51.781 117.962 51.5638 118.064 51.2592 118.064C51.1633 118.064 51.0618 118.044 51.0194 118.033L50.9856 118.022Z" fill="#F5F5F5"/>
<path d="M56.4292 116.096C56.4292 115.515 56.6013 115.041 56.9454 114.678C57.2867 114.312 57.7492 114.131 58.3303 114.131C58.9113 114.131 59.3739 114.312 59.718 114.678C60.0593 115.044 60.2313 115.515 60.2313 116.096C60.2313 116.678 60.0593 117.154 59.718 117.514C59.3739 117.88 58.9113 118.061 58.3303 118.061C57.7492 118.061 57.2867 117.88 56.9454 117.514C56.6013 117.151 56.4292 116.68 56.4292 116.096ZM59.7011 116.096C59.7011 115.659 59.5798 115.299 59.3372 115.019C59.0946 114.738 58.759 114.599 58.3303 114.599C57.9015 114.599 57.5659 114.738 57.3233 115.019C57.0808 115.299 56.9595 115.659 56.9595 116.096C56.9595 116.533 57.0808 116.89 57.3233 117.171C57.5659 117.452 57.9015 117.594 58.3303 117.594C58.759 117.594 59.0946 117.452 59.3372 117.171C59.5798 116.89 59.7011 116.533 59.7011 116.096Z" fill="#F5F5F5"/>
<path d="M64.8628 114.743L62.8714 118.01H62.1353V114.184H62.6486V117.451H62.6655L64.6597 114.184H65.393V118.01H64.8825V114.743H64.8628ZM63.7825 113.694C63.4863 113.694 63.2578 113.631 63.0971 113.506C62.9391 113.385 62.8573 113.206 62.8573 112.968V112.934H63.2691V112.968C63.2691 113.212 63.4384 113.333 63.7825 113.333C64.1266 113.333 64.293 113.212 64.293 112.968V112.934H64.7076V112.968C64.7076 113.206 64.6286 113.385 64.4679 113.506C64.3099 113.631 64.0815 113.694 63.7825 113.694Z" fill="#F5F5F5"/>
<path d="M72.1768 118.01L70.2475 116.119V118.01H69.7341V114.185H70.2475V116.034L72.0583 114.185H72.6929L70.8624 116.065L72.8114 118.01H72.1768Z" fill="#F5F5F5"/>
<path d="M74.061 116.096C74.061 115.515 74.2331 115.041 74.5772 114.678C74.9185 114.312 75.3811 114.131 75.9621 114.131C76.5431 114.131 77.0057 114.312 77.3498 114.678C77.6911 115.044 77.8632 115.515 77.8632 116.096C77.8632 116.678 77.6911 117.154 77.3498 117.514C77.0057 117.88 76.5431 118.061 75.9621 118.061C75.3811 118.061 74.9185 117.88 74.5772 117.514C74.2331 117.151 74.061 116.68 74.061 116.096ZM77.3329 116.096C77.3329 115.659 77.2116 115.299 76.9691 115.019C76.7265 114.738 76.3908 114.599 75.9621 114.599C75.5334 114.599 75.1977 114.738 74.9552 115.019C74.7126 115.299 74.5913 115.659 74.5913 116.096C74.5913 116.533 74.7126 116.89 74.9552 117.171C75.1977 117.452 75.5334 117.594 75.9621 117.594C76.3908 117.594 76.7265 117.452 76.9691 117.171C77.2116 116.89 77.3329 116.533 77.3329 116.096Z" fill="#F5F5F5"/>
<path d="M81.4198 116.989L80.3001 114.789H80.2775V118.01H79.7642V114.185H80.5483L81.7301 116.507H81.7527L82.9317 114.185H83.7158V118.01H83.2053V114.789H83.1827L82.0658 116.989H81.4227H81.4198Z" fill="#F5F5F5"/>
<path d="M88.4064 118.01V114.644H86.2345V118.01H85.7212V114.185H88.9197V118.01H88.4064Z" fill="#F5F5F5"/>
<path d="M90.488 118.022V117.548C90.5444 117.562 90.598 117.571 90.646 117.571C90.8293 117.571 90.9563 117.503 91.0268 117.369C91.0945 117.239 91.1509 117.015 91.1904 116.7L91.5176 114.188H94.0335V118.013H93.5202V114.647H91.9829L91.7093 116.7C91.6417 117.208 91.5429 117.562 91.4132 117.761C91.2834 117.962 91.0663 118.064 90.7616 118.064C90.6657 118.064 90.5642 118.044 90.5219 118.033L90.488 118.022Z" fill="#F5F5F5"/>
<path d="M96.0417 118.01V114.185H98.9018V114.644H96.5523V115.815H98.5746V116.275H96.5523V117.554H98.9018V118.013H96.0417V118.01Z" fill="#F5F5F5"/>
<path d="M103.189 118.01L101.26 116.119V118.01H100.746V114.185H101.26V116.034L103.07 114.185H103.705L101.875 116.065L103.824 118.01H103.189Z" fill="#F5F5F5"/>
<path d="M107.561 117.482C107.733 117.408 107.86 117.318 107.947 117.21C108.119 116.997 108.238 116.77 108.269 116.623L108.292 116.509H108.816C108.816 116.801 108.675 117.145 108.399 117.479C108.261 117.647 108.066 117.788 107.82 117.899C107.572 118.01 107.29 118.063 106.974 118.063C106.393 118.063 105.931 117.882 105.589 117.516C105.245 117.153 105.073 116.682 105.073 116.098C105.073 115.514 105.245 115.043 105.589 114.68C105.931 114.314 106.393 114.133 106.974 114.133C107.29 114.133 107.572 114.19 107.82 114.297C108.066 114.411 108.261 114.547 108.399 114.717C108.675 115.052 108.816 115.4 108.816 115.69H108.292C108.283 115.661 108.292 115.627 108.238 115.477C108.184 115.324 108.125 115.202 107.987 115.035C107.849 114.867 107.694 114.748 107.42 114.663C107.285 114.623 107.135 114.601 106.977 114.601C106.551 114.601 106.213 114.74 105.97 115.02C105.728 115.301 105.606 115.661 105.606 116.098C105.606 116.535 105.728 116.892 105.97 117.173C106.213 117.454 106.548 117.595 106.977 117.595C107.194 117.595 107.392 117.559 107.564 117.482H107.561Z" fill="#F5F5F5"/>
</svg>
