<svg width="149" height="47" viewBox="0 0 149 47" fill="none" xmlns="http://www.w3.org/2000/svg">
<g id="minstroy">
<path fill-rule="evenodd" clip-rule="evenodd" d="M16.1515 5.28098L11.212 18.0153L6.32037 5.28098H0.0683594V7.80516H1.74106V19.4745H0.0836876V22.016H6.33569V19.4745H4.77412V8.76254L10.0547 22.016H12.3539L17.5904 8.76254V19.4745H16.027L16.0576 22.016H22.3096V19.4745H20.6541V7.80516H22.3096V5.28098H16.1515Z" fill="#F5F5F5"/>
<path fill-rule="evenodd" clip-rule="evenodd" d="M24.5009 5.28098H30.7529V7.80516H29.1913V17.5136L37.1314 5.28098H41.8198V7.80516H40.2582V19.4745H41.8198V22.016H35.5679V19.4745H37.1314V9.76606L29.1913 22.016H24.5009V19.4745H26.0644V7.80516H24.5009V5.28098Z" fill="#F5F5F5"/>
<path fill-rule="evenodd" clip-rule="evenodd" d="M54.5601 19.4745H56.2003V14.503H48.699V19.4745H50.3392V22.016H44.0085V19.4745H45.6506V7.80708H44.0085V5.28098H50.3392V7.80708H48.699V11.9788H56.2003V7.80708H54.5601V5.28098H60.906V7.80708H59.3425V19.4745H60.906V22.016H54.5601V19.4745Z" fill="#F5F5F5"/>
<path fill-rule="evenodd" clip-rule="evenodd" d="M77.5823 5.2807V10.6597H75.0666C74.7504 8.53158 72.8018 7.0436 70.6731 7.30314C66.9541 7.30314 65.8447 10.3464 65.8447 13.8126C65.8447 17.7344 67.9848 19.9759 70.9855 19.9759C73.0508 20.1413 74.8596 18.5956 75.0244 16.5232C75.0283 16.4502 75.0321 16.3771 75.034 16.306H78.0671C77.8313 18.8302 76.5036 22.579 70.8455 22.579C69.5638 22.579 62.576 22.454 62.576 14.001C62.576 7.09934 66.3123 4.84046 70.3934 4.84046C72.1388 4.74434 73.8345 5.44796 75.0032 6.75523V5.34415L77.5823 5.2807Z" fill="#F5F5F5"/>
<path fill-rule="evenodd" clip-rule="evenodd" d="M84.0813 19.4745H85.7368V7.80708H81.9085V11.3982H79.3909V5.28098H95.1158V11.3982H92.598V7.80708H88.7699V19.4745H90.4272V22.016H84.0813V19.4745Z" fill="#F5F5F5"/>
<path fill-rule="evenodd" clip-rule="evenodd" d="M101.572 13.3111H104.95C106.357 13.3111 108.497 12.8555 108.497 10.5658C108.497 8.27617 106.154 7.80708 104.981 7.80708H101.572V13.3111ZM96.8838 5.28098H105.012C107.639 5.28098 111.672 5.98652 111.672 10.5197C111.672 13.3265 109.763 15.8526 104.996 15.8526H101.59V19.4745H103.23V22.016H96.8838V19.4745H98.5412V7.80708H96.8838V5.28098Z" fill="#F5F5F5"/>
<path fill-rule="evenodd" clip-rule="evenodd" d="M121.555 19.9774C125.68 19.9774 126.464 16.2286 126.464 13.7045C126.464 11.1784 125.68 7.43148 121.555 7.43148C117.427 7.43148 116.644 11.1937 116.644 13.7045C116.644 16.2133 117.427 19.9774 121.555 19.9774ZM121.555 4.78041C123.007 4.78041 129.73 4.96882 129.73 13.641C129.73 22.3132 123.007 22.5171 121.555 22.5171C120.1 22.5171 113.379 22.3306 113.379 13.641C113.379 4.95344 120.1 4.78041 121.555 4.78041Z" fill="#F5F5F5"/>
<path fill-rule="evenodd" clip-rule="evenodd" d="M137.479 0.5C137.896 1.91108 139.374 2.71659 140.782 2.29942C141.644 2.04181 142.318 1.36511 142.573 0.5H145.028C144.144 3.27219 141.188 4.79862 138.425 3.91236C136.808 3.3933 135.541 2.12255 135.024 0.5H137.479ZM131.397 5.28308H137.651V7.80919H136.087V17.5175L144.028 5.28308H148.716V7.80919H147.076V19.4766H148.716V22.0181H142.466V19.4766H144.028V9.76816L136.087 22.0181H131.397V19.4766H133.041V7.80919H131.397V5.28308Z" fill="#F5F5F5"/>
<path fill-rule="evenodd" clip-rule="evenodd" d="M4.75708 37.2287H8.13313C9.55481 37.2287 11.6969 36.7751 11.6969 34.4855C11.6969 32.1958 9.33639 31.7248 8.16378 31.7248H4.77241L4.75708 37.2287ZM0.0685619 29.1987H8.19636C10.8213 29.1987 14.8545 29.9214 14.8545 34.4373C14.8545 37.2614 12.9481 39.7702 8.18102 39.7702H4.77241V43.3922H6.33589V45.9337H0.0685619V43.3922H1.72401V31.7248H0.0685619V29.1987Z" fill="#F5F5F5"/>
<path fill-rule="evenodd" clip-rule="evenodd" d="M24.7333 43.8967C28.8604 43.8967 29.6421 40.1479 29.6421 37.6218C29.6421 35.0976 28.8604 31.3507 24.7333 31.3507C20.6061 31.3507 19.8243 35.115 19.8243 37.6218C19.8243 40.1326 20.6061 43.8967 24.7333 43.8967ZM24.7333 28.6996C26.1874 28.6996 32.9089 28.8861 32.9089 37.5604C32.9089 46.2345 26.1874 46.4363 24.7333 46.4363C23.279 46.4363 16.5576 46.2498 16.5576 37.5604C16.5576 28.8728 23.279 28.6996 24.7333 28.6996Z" fill="#F5F5F5"/>
<path fill-rule="evenodd" clip-rule="evenodd" d="M49.9319 29.1999V34.5809H47.4163C47.1001 32.4508 45.1515 30.9628 43.0247 31.2244C39.3038 31.2244 38.1943 34.2676 38.1943 37.7317C38.1943 41.6536 40.3347 43.8972 43.337 43.8972C45.4005 44.0779 47.2208 42.5456 47.4029 40.4752C47.4106 40.3925 47.4143 40.3099 47.4163 40.2253H50.4494C50.2137 42.7513 48.8858 46.5002 43.226 46.5002C41.946 46.5002 34.9583 46.3751 34.9583 37.9202C34.9583 31.0185 38.6946 28.7598 42.7737 28.7598C44.5134 28.627 46.2207 29.2903 47.4163 30.5649V29.1539L49.9319 29.1999Z" fill="#F5F5F5"/>
<path fill-rule="evenodd" clip-rule="evenodd" d="M67.2836 29.2002V34.5812H64.7678C64.4439 32.4549 62.5012 30.9709 60.3742 31.2246C56.6553 31.2246 55.544 34.2678 55.544 37.7321C55.544 41.6539 57.6862 43.8974 60.6866 43.8974C62.752 44.0609 64.5608 42.5153 64.7255 40.4428C64.7294 40.3717 64.7332 40.2985 64.7352 40.2256H67.7356C67.502 42.7517 66.1741 46.5005 60.5142 46.5005C59.2189 46.5005 52.2465 46.3755 52.2465 37.9205C52.2465 31.0189 55.9828 28.7599 60.062 28.7599C61.8228 28.6062 63.5568 29.2733 64.7678 30.5651V29.1541L67.2836 29.2002Z" fill="#F5F5F5"/>
<path fill-rule="evenodd" clip-rule="evenodd" d="M69.5436 29.2002H75.7957V31.7245H74.2342V41.4329L82.1569 29.2002H86.8473V31.7245H85.2839V43.3939H86.8473V45.9352H80.5953V43.3939H82.1569V33.7026L74.2168 45.9506H69.5284V43.3939H71.1703V31.7245H69.5284L69.5436 29.2002Z" fill="#F5F5F5"/>
<path fill-rule="evenodd" clip-rule="evenodd" d="M89.0541 29.2002H95.308V31.7245H93.7427V41.4329L101.685 29.2002H106.373V31.7245H104.733V43.3939H106.373V45.9352H100.121V43.3939H101.685V33.7026L93.6813 45.9352H88.9929V43.3939H90.633V31.7245H88.9929L89.0541 29.2002Z" fill="#F5F5F5"/>
</g>
</svg>
