<svg width="183" height="45" viewBox="0 0 183 45" fill="none" xmlns="http://www.w3.org/2000/svg">
<g id="nash_dom">
<path fill-rule="evenodd" clip-rule="evenodd" d="M15.9152 21.2346H20.8404V3.08422H15.9152V21.2346ZM13.2244 23.8218H23.5295V0.5H13.2244V23.8218Z" fill="#F5F5F5"/>
<path fill-rule="evenodd" clip-rule="evenodd" d="M0.283203 28.94H44.0859V26.3633H0.283203V28.94Z" fill="#F5F5F5"/>
<path fill-rule="evenodd" clip-rule="evenodd" d="M2.96414 39.0067H15.6253V34.0877H2.96414V39.0067ZM0.283203 44.4998H2.96414V41.5804H18.3069V31.5117H0.283203V44.4998Z" fill="#F5F5F5"/>
<path fill-rule="evenodd" clip-rule="evenodd" d="M33.7795 3.08421V23.8215H36.4686V8.25743L41.3928 3.08626V23.8215H44.0846V0.5H40.3049L36.4686 4.51693V0.5H32.6906L26.1621 7.27882V23.8215H28.8546V8.25845L33.7795 3.08421Z" fill="#F5F5F5"/>
<path fill-rule="evenodd" clip-rule="evenodd" d="M23.61 39.0067H31.0803V34.0877H23.61V39.0067ZM33.8774 39.0067H41.4045V34.0877H33.8774V39.0067ZM20.9277 41.5804H31.0806V44.4998H33.8774V41.5804H44.0851V31.5117H20.9277V41.5804Z" fill="#F5F5F5"/>
<path fill-rule="evenodd" clip-rule="evenodd" d="M2.97528 8.25845L7.89845 3.08626V21.2349H2.97528V8.25845ZM10.5896 23.8215V0.5H6.81122L0.283447 7.27882V23.8215H10.5896Z" fill="#F5F5F5"/>
<path d="M61.2242 7.5V6.627H58.0922V4.701H60.7562V3.837H58.0922V1.965H61.2242V1.092H57.1202V7.5H61.2242ZM65.6901 1.965H67.4721V6.627H65.0601C65.5371 5.727 65.6901 4.62 65.6901 3.396V1.965ZM64.7541 1.092V2.982C64.7541 4.503 64.5291 5.763 63.9711 6.627H63.4131V8.94H64.3581V7.5H68.2461V8.94H69.2001V6.627H68.4441V1.092H64.7541ZM76.5698 7.5V1.092H75.6788L72.8168 5.736V1.092H71.8448V7.5H72.7268L75.5978 2.847V7.5H76.5698ZM84.2882 7.5V1.092H83.3072V3.837H80.7152V1.092H79.7432V7.5H80.7152V4.701H83.3072V7.5H84.2882ZM92.1641 7.5L89.8241 1.092H89.0411L86.6921 7.5H87.7181L88.1681 6.213H90.6971L91.1471 7.5H92.1641ZM90.4361 5.385H88.4471L89.4551 2.541L90.4361 5.385ZM96.5351 4.98H97.8041V7.5H98.7851V1.092H96.3461C95.1311 1.092 94.3031 1.848 94.3031 3.036C94.3031 3.9 94.7801 4.539 95.5361 4.8L94.1411 7.5H95.2931L96.5351 4.98ZM97.8041 4.107H96.4091C95.7071 4.107 95.2751 3.684 95.2751 3.027C95.2751 2.361 95.7071 1.956 96.4091 1.956H97.8041V4.107ZM61.8452 19.5V13.092H60.9542L58.0922 17.736V13.092H57.1202V19.5H58.0022L60.8732 14.847V19.5H61.8452ZM69.5636 19.5V13.092H68.5826V15.837H65.9906V13.092H65.0186V19.5H65.9906V16.701H68.5826V19.5H69.5636ZM75.9635 14.28C77.2415 14.325 77.6375 14.946 77.6375 16.098C77.6375 17.232 77.2145 17.871 75.9635 17.925V14.28ZM74.9915 17.925C73.7405 17.871 73.3175 17.232 73.3175 16.098C73.3175 14.946 73.7135 14.325 74.9915 14.28V17.925ZM75.9635 19.545V18.744C77.8445 18.663 78.6095 17.727 78.6095 16.053C78.6095 14.397 77.7725 13.533 75.9635 13.443V12.822H74.9915V13.443C73.1825 13.533 72.3455 14.397 72.3455 16.053C72.3455 17.727 73.1105 18.663 74.9915 18.744V19.545H75.9635ZM85.7696 16.296C85.7696 14.955 85.7516 14.316 85.1216 13.686C84.7076 13.272 84.1676 13.038 83.4656 13.038C82.7636 13.038 82.2236 13.272 81.8096 13.686C81.1796 14.316 81.1616 14.955 81.1616 16.296C81.1616 17.637 81.1796 18.276 81.8096 18.906C82.2236 19.32 82.7636 19.554 83.4656 19.554C84.1676 19.554 84.7076 19.32 85.1216 18.906C85.7516 18.276 85.7696 17.637 85.7696 16.296ZM84.7976 16.296C84.7976 17.565 84.7436 17.952 84.4196 18.285C84.1766 18.537 83.8526 18.69 83.4656 18.69C83.0786 18.69 82.7546 18.537 82.5116 18.285C82.1966 17.943 82.1336 17.565 82.1336 16.296C82.1336 15.027 82.1966 14.64 82.5116 14.298C82.7546 14.046 83.0786 13.902 83.4656 13.902C83.8526 13.902 84.1766 14.046 84.4196 14.298C84.7436 14.631 84.7976 15.027 84.7976 16.296ZM93.196 15.036C93.196 13.92 92.395 13.092 91.144 13.092H88.714V19.5H89.686V16.971H91.144C92.395 16.971 93.196 16.152 93.196 15.036ZM92.224 15.036C92.224 15.711 91.774 16.107 91.09 16.107H89.686V13.965H91.09C91.774 13.965 92.224 14.352 92.224 15.036ZM101.482 19.5V13.092H100.51L98.6652 17.079L96.7932 13.092H95.8302V19.5H96.8022V15.216L98.3052 18.339H99.0252L100.501 15.216V19.5H101.482ZM109.358 19.5L107.019 13.092H106.236L103.886 19.5H104.912L105.363 18.213H107.892L108.341 19.5H109.358ZM107.631 17.385H105.642L106.649 14.541L107.631 17.385ZM117.024 20.94V18.627H116.268V13.092H115.297V18.627H112.704V13.092H111.732V19.5H116.079V20.94H117.024ZM124.391 19.5V13.092H123.5L120.638 17.736V13.092H119.666V19.5H120.548L123.419 14.847V19.5H124.391ZM131.938 16.296C131.938 14.955 131.92 14.316 131.29 13.686C130.876 13.272 130.337 13.038 129.635 13.038C128.933 13.038 128.393 13.272 127.979 13.686C127.349 14.316 127.331 14.955 127.331 16.296C127.331 17.637 127.349 18.276 127.979 18.906C128.393 19.32 128.933 19.554 129.635 19.554C130.337 19.554 130.876 19.32 131.29 18.906C131.92 18.276 131.938 17.637 131.938 16.296ZM130.966 16.296C130.966 17.565 130.913 17.952 130.589 18.285C130.346 18.537 130.022 18.69 129.635 18.69C129.248 18.69 128.923 18.537 128.68 18.285C128.365 17.943 128.303 17.565 128.303 16.296C128.303 15.027 128.365 14.64 128.68 14.298C128.923 14.046 129.248 13.902 129.635 13.902C130.022 13.902 130.346 14.046 130.589 14.298C130.913 14.631 130.966 15.027 130.966 16.296ZM139.428 19.5V13.092H138.447V15.837H135.855V13.092H134.883V19.5H135.855V16.701H138.447V19.5H139.428ZM147.142 19.5V13.092H146.161V15.837H143.569V13.092H142.597V19.5H143.569V16.701H146.161V19.5H147.142ZM155.018 19.5L152.678 13.092H151.895L149.546 19.5H150.572L151.022 18.213H153.551L154.001 19.5H155.018ZM153.29 17.385H151.301L152.309 14.541L153.29 17.385ZM159.388 16.98H160.657V19.5H161.638V13.092H159.199C157.984 13.092 157.156 13.848 157.156 15.036C157.156 15.9 157.633 16.539 158.389 16.8L156.994 19.5H158.146L159.388 16.98ZM160.657 16.107H159.262C158.56 16.107 158.128 15.684 158.128 15.027C158.128 14.361 158.56 13.956 159.262 13.956H160.657V16.107ZM61.4762 29.583H60.5042C60.3512 30.24 59.9012 30.69 59.1902 30.69C58.8032 30.69 58.4792 30.546 58.2452 30.294C57.9212 29.952 57.8582 29.565 57.8582 28.296C57.8582 27.027 57.9212 26.64 58.2452 26.298C58.4792 26.046 58.8032 25.902 59.1902 25.902C59.9012 25.902 60.3422 26.352 60.4862 27.009H61.4762C61.2512 25.74 60.3692 25.038 59.1902 25.038C58.4882 25.038 57.9482 25.272 57.5342 25.686C56.9132 26.316 56.8862 26.955 56.8862 28.296C56.8862 29.637 56.9132 30.276 57.5342 30.906C57.9482 31.32 58.4882 31.554 59.1902 31.554C60.3602 31.554 61.2512 30.852 61.4762 29.583ZM68.9966 31.5V25.092H68.1056L65.2436 29.736V25.092H64.2716V31.5H65.1536L68.0246 26.847V31.5H68.9966ZM76.526 29.583H75.554C75.401 30.24 74.951 30.69 74.24 30.69C73.853 30.69 73.529 30.546 73.295 30.294C72.971 29.952 72.908 29.565 72.908 28.296C72.908 27.027 72.971 26.64 73.295 26.298C73.529 26.046 73.853 25.902 74.24 25.902C74.951 25.902 75.392 26.352 75.536 27.009H76.526C76.301 25.74 75.419 25.038 74.24 25.038C73.538 25.038 72.998 25.272 72.584 25.686C71.963 26.316 71.936 26.955 71.936 28.296C71.936 29.637 71.963 30.276 72.584 30.906C72.998 31.32 73.538 31.554 74.24 31.554C75.41 31.554 76.301 30.852 76.526 29.583ZM83.0786 25.965V25.092H78.5786V25.965H80.3426V31.5H81.3146V25.965H83.0786ZM89.7857 31.5V30.627H86.6537V28.701H89.3177V27.837H86.6537V25.965H89.7857V25.092H85.6817V31.5H89.7857ZM98.2566 31.5V25.092H97.2846L95.4396 29.079L93.5676 25.092H92.6046V31.5H93.5766V27.216L95.0796 30.339H95.7996L97.2756 27.216V31.5H98.2566ZM106.133 31.5L103.793 25.092H103.01L100.661 31.5H101.687L102.137 30.213H104.666L105.116 31.5H106.133ZM104.405 29.385H102.416L103.424 26.541L104.405 29.385ZM119.71 31.5L117.1 28.116L119.476 25.092H118.297L116.029 28.143L118.495 31.5H119.71ZM112.564 31.5L115.03 28.143L112.753 25.092H111.565L113.959 28.116L111.34 31.5H112.564ZM116.02 31.5V25.092H115.039V31.5H116.02ZM126.735 31.5V25.092H125.844L122.982 29.736V25.092H122.01V31.5H122.892L125.763 26.847V31.5H126.735ZM134.354 31.5V25.092H130.592V27.855C130.592 30.177 130.079 30.627 129.368 30.627H129.197V31.5H129.602C130.889 31.5 131.537 30.681 131.537 27.99V25.965H133.382V31.5H134.354ZM142.259 31.5V25.092H141.368L138.506 29.736V25.092H137.534V31.5H138.416L141.287 26.847V31.5H142.259ZM153.443 32.94V30.627H152.696V25.092H151.715V30.627H149.555V25.092H148.574V30.627H146.405V25.092H145.433V31.5H152.489V32.94H153.443ZM160.618 31.5V25.092H159.637V27.837H157.045V25.092H156.073V31.5H157.045V28.701H159.637V31.5H160.618ZM168.161 28.296C168.161 26.955 168.143 26.316 167.513 25.686C167.099 25.272 166.559 25.038 165.857 25.038C165.155 25.038 164.615 25.272 164.201 25.686C163.571 26.316 163.553 26.955 163.553 28.296C163.553 29.637 163.571 30.276 164.201 30.906C164.615 31.32 165.155 31.554 165.857 31.554C166.559 31.554 167.099 31.32 167.513 30.906C168.143 30.276 168.161 29.637 168.161 28.296ZM167.189 28.296C167.189 29.565 167.135 29.952 166.811 30.285C166.568 30.537 166.244 30.69 165.857 30.69C165.47 30.69 165.146 30.537 164.903 30.285C164.588 29.943 164.525 29.565 164.525 28.296C164.525 27.027 164.588 26.64 164.903 26.298C165.146 26.046 165.47 25.902 165.857 25.902C166.244 25.902 166.568 26.046 166.811 26.298C167.135 26.631 167.189 27.027 167.189 28.296ZM175.092 25.965V25.092H171.15V31.5H172.122V25.965H175.092ZM182.068 28.296C182.068 26.955 182.05 26.316 181.42 25.686C181.006 25.272 180.466 25.038 179.764 25.038C179.062 25.038 178.522 25.272 178.108 25.686C177.478 26.316 177.46 26.955 177.46 28.296C177.46 29.637 177.478 30.276 178.108 30.906C178.522 31.32 179.062 31.554 179.764 31.554C180.466 31.554 181.006 31.32 181.42 30.906C182.05 30.276 182.068 29.637 182.068 28.296ZM181.096 28.296C181.096 29.565 181.042 29.952 180.718 30.285C180.475 30.537 180.151 30.69 179.764 30.69C179.377 30.69 179.053 30.537 178.81 30.285C178.495 29.943 178.432 29.565 178.432 28.296C178.432 27.027 178.495 26.64 178.81 26.298C179.053 26.046 179.377 25.902 179.764 25.902C180.151 25.902 180.475 26.046 180.718 26.298C181.042 26.631 181.096 27.027 181.096 28.296ZM61.4762 41.583H60.5042C60.3512 42.24 59.9012 42.69 59.1902 42.69C58.8032 42.69 58.4792 42.546 58.2452 42.294C57.9212 41.952 57.8582 41.565 57.8582 40.296C57.8582 39.027 57.9212 38.64 58.2452 38.298C58.4792 38.046 58.8032 37.902 59.1902 37.902C59.9012 37.902 60.3422 38.352 60.4862 39.009H61.4762C61.2512 37.74 60.3692 37.038 59.1902 37.038C58.4882 37.038 57.9482 37.272 57.5342 37.686C56.9132 38.316 56.8862 38.955 56.8862 40.296C56.8862 41.637 56.9132 42.276 57.5342 42.906C57.9482 43.32 58.4882 43.554 59.1902 43.554C60.3602 43.554 61.2512 42.852 61.4762 41.583ZM68.0288 37.965V37.092H63.5288V37.965H65.2928V43.5H66.2648V37.965H68.0288ZM75.1139 39.036C75.1139 37.92 74.3129 37.092 73.0619 37.092H70.6319V43.5H71.6039V40.971H73.0619C74.3129 40.971 75.1139 40.152 75.1139 39.036ZM74.1419 39.036C74.1419 39.711 73.6919 40.107 73.0079 40.107H71.6039V37.965H73.0079C73.6919 37.965 74.1419 38.352 74.1419 39.036ZM82.1661 40.296C82.1661 38.955 82.1481 38.316 81.5181 37.686C81.1041 37.272 80.5641 37.038 79.8621 37.038C79.1601 37.038 78.6201 37.272 78.2061 37.686C77.5761 38.316 77.5581 38.955 77.5581 40.296C77.5581 41.637 77.5761 42.276 78.2061 42.906C78.6201 43.32 79.1601 43.554 79.8621 43.554C80.5641 43.554 81.1041 43.32 81.5181 42.906C82.1481 42.276 82.1661 41.637 82.1661 40.296ZM81.1941 40.296C81.1941 41.565 81.1401 41.952 80.8161 42.285C80.5731 42.537 80.2491 42.69 79.8621 42.69C79.4751 42.69 79.1511 42.537 78.9081 42.285C78.5931 41.943 78.5301 41.565 78.5301 40.296C78.5301 39.027 78.5931 38.64 78.9081 38.298C79.1511 38.046 79.4751 37.902 79.8621 37.902C80.2491 37.902 80.5731 38.046 80.8161 38.298C81.1401 38.631 81.1941 39.027 81.1941 40.296ZM89.8354 43.5V37.092H88.9444L86.0824 41.736V37.092H85.1104V43.5H85.9924L88.8634 38.847V43.5H89.8354ZM96.9419 37.965V37.092H92.4419V37.965H94.2059V43.5H95.1779V37.965H96.9419ZM103.649 43.5V42.627H100.517V40.701H103.181V39.837H100.517V37.965H103.649V37.092H99.545V43.5H103.649ZM110.914 43.5V37.092H107.152V39.855C107.152 42.177 106.639 42.627 105.928 42.627H105.757V43.5H106.162C107.449 43.5 108.097 42.681 108.097 39.99V37.965H109.942V43.5H110.914ZM118.585 41.556C118.585 40.404 117.775 39.612 116.551 39.612H115.066V37.092H114.094V43.5H116.551C117.766 43.5 118.585 42.708 118.585 41.556ZM117.604 41.556C117.604 42.222 117.181 42.627 116.47 42.627H115.066V40.485H116.47C117.181 40.485 117.604 40.899 117.604 41.556ZM125.61 41.583H124.638C124.485 42.24 124.035 42.69 123.324 42.69C122.937 42.69 122.613 42.546 122.379 42.294C122.055 41.952 121.992 41.565 121.992 40.296C121.992 39.027 122.055 38.64 122.379 38.298C122.613 38.046 122.937 37.902 123.324 37.902C124.035 37.902 124.476 38.352 124.62 39.009H125.61C125.385 37.74 124.503 37.038 123.324 37.038C122.622 37.038 122.082 37.272 121.668 37.686C121.047 38.316 121.02 38.955 121.02 40.296C121.02 41.637 121.047 42.276 121.668 42.906C122.082 43.32 122.622 43.554 123.324 43.554C124.494 43.554 125.385 42.852 125.61 41.583ZM132.163 37.965V37.092H127.663V37.965H129.427V43.5H130.399V37.965H132.163ZM139.293 41.7C139.293 40.971 138.96 40.512 138.33 40.215C138.897 39.936 139.194 39.468 139.194 38.82C139.194 37.776 138.429 37.092 137.259 37.092H134.766V43.5H137.358C138.555 43.5 139.293 42.807 139.293 41.7ZM138.222 38.883C138.222 39.459 137.826 39.801 137.178 39.801H135.738V37.965H137.178C137.826 37.965 138.222 38.307 138.222 38.883ZM138.312 41.646C138.312 42.249 137.907 42.627 137.259 42.627H135.738V40.674H137.259C137.907 40.674 138.312 41.052 138.312 41.646ZM146.853 43.5L144.513 37.092H143.73L141.381 43.5H142.407L142.857 42.213H145.386L145.836 43.5H146.853ZM145.125 41.385H143.136L144.144 38.541L145.125 41.385Z" fill="#F5F5F5"/>
</g>
</svg>
