<svg width="398" height="780" viewBox="0 0 398 780" fill="none" xmlns="http://www.w3.org/2000/svg">
<g filter="url(#filter0_b_34_1596)">
<path d="M198.75 -7.84104e-05L397.5 296.875L198.75 593.75L5.64712e-05 296.875L198.75 -7.84104e-05ZM351.683 296.875L198.75 68.3961L45.7115 296.875L198.645 525.354L351.683 296.875Z" fill="#F5F5F5" fill-opacity="0.1"/>
<path d="M352.099 297.153L352.285 296.875L352.099 296.597L199.166 68.118L198.75 67.4974L198.335 68.1178L45.296 296.597L45.1097 296.875L45.296 297.153L198.229 525.632L198.645 526.253L199.06 525.632L352.099 297.153ZM0.601772 296.875L198.75 0.898664L396.898 296.875L198.75 592.851L0.601772 296.875Z" stroke="#F5F5F5" stroke-opacity="0.1"/>
</g>
<path d="M324.205 537.778L324.392 537.5L324.205 537.222L199.165 350.591L198.75 349.971L198.335 350.59L73.2088 537.222L73.0222 537.5L73.2088 537.778L198.249 724.409L198.664 725.029L199.079 724.41L324.205 537.778ZM36.8519 537.5L198.75 295.898L360.648 537.5L198.75 779.102L36.8519 537.5Z" stroke="#F5F5F5" stroke-opacity="0.5"/>
<defs>
<filter id="filter0_b_34_1596" x="-20" y="-20" width="437.5" height="633.75" filterUnits="userSpaceOnUse" color-interpolation-filters="sRGB">
<feFlood flood-opacity="0" result="BackgroundImageFix"/>
<feGaussianBlur in="BackgroundImageFix" stdDeviation="10"/>
<feComposite in2="SourceAlpha" operator="in" result="effect1_backgroundBlur_34_1596"/>
<feBlend mode="normal" in="SourceGraphic" in2="effect1_backgroundBlur_34_1596" result="shape"/>
</filter>
</defs>
</svg>
