<svg width="48" height="48" viewBox="0 0 48 48" fill="none" xmlns="http://www.w3.org/2000/svg">
<path d="M23.9951 47.4902C11.0191 47.4902 0.499987 36.9711 0.499988 23.9951C0.499988 11.0191 11.0191 0.499998 23.9951 0.499999C36.9711 0.5 47.4902 11.0191 47.4902 23.9951C47.4902 36.9711 36.9711 47.4902 23.9951 47.4902Z" fill="#F5F5F5" fill-opacity="0.2" stroke="#F5F5F5"/>
<path d="M37.6155 30.7123C37.6945 30.3557 37.6459 29.9827 37.4783 29.6583C37.3107 29.3338 37.0347 29.0783 36.6982 28.9363C35.0686 27.9605 33.4586 26.9359 31.8192 25.9406C31.6332 25.8044 31.4217 25.7069 31.1974 25.6537C30.9731 25.6006 30.7404 25.5929 30.513 25.6311C30.2857 25.6693 30.0683 25.7526 29.8736 25.8761C29.679 25.9997 29.511 26.1609 29.3797 26.3504C28.6478 27.2286 27.916 28.1069 27.1939 28.9948C27.1614 29.0587 27.1153 29.1146 27.0588 29.1586C27.0022 29.2026 26.9367 29.2336 26.8669 29.2495C26.797 29.2653 26.7245 29.2656 26.6546 29.2502C26.5846 29.2349 26.5189 29.2043 26.462 29.1607C25.0373 28.1849 23.5346 27.3262 22.1977 26.2333C20.3025 24.573 18.751 22.5574 17.631 20.3004C17.4553 19.9881 17.5724 19.7735 17.8261 19.5685L20.4998 17.3632C20.8582 17.0994 21.1002 16.7068 21.1748 16.2682C21.2494 15.8295 21.1509 15.379 20.8999 15.0115C19.8363 13.2843 18.7531 11.5572 17.6895 9.82997C17.5678 9.60534 17.3825 9.42163 17.1569 9.30186C16.9312 9.18208 16.6752 9.13158 16.421 9.15666C15.928 9.17388 15.4362 9.21622 14.9475 9.28352C14.3963 9.326 13.8591 9.47721 13.3667 9.72844C12.8743 9.97966 12.4365 10.3259 12.0786 10.7472C11.6588 11.3239 11.2929 11.938 10.9857 12.5818C10.3542 13.696 10.0721 14.9743 10.1758 16.2508C10.4287 18.3104 11.0084 20.3165 11.8932 22.1935C13.6813 25.9582 16.3245 29.2529 19.6119 31.8149C22.4389 34.1369 25.7875 35.7376 29.3699 36.4793C30.8581 36.8538 32.4289 36.7163 33.8294 36.089C34.4929 35.7572 35.1272 35.3571 35.781 34.9863C36.4777 34.5551 36.9784 33.8688 37.1764 33.0737C37.4106 32.2931 37.5374 31.4929 37.7228 30.6928L37.6155 30.7123ZM32.0436 35.7377C31.0631 35.8759 30.0642 35.7994 29.1162 35.5132C25.8914 34.7886 22.8827 33.3143 20.3339 31.2099C17.0271 28.6798 14.3794 25.3893 12.6153 21.6177C11.8081 19.8434 11.2845 17.9534 11.0638 16.0166C10.9873 15.0568 11.1871 14.0952 11.6395 13.2453C11.981 12.5134 12.4397 11.8304 12.8202 11.1571L17.6993 18.5732L17.1821 19.0123C16.9325 19.2044 16.762 19.4812 16.7026 19.7904C16.6433 20.0997 16.6993 20.42 16.8601 20.6907C18.8579 24.6899 22.0963 27.9351 26.0912 29.9414C26.3685 30.1058 26.6964 30.1628 27.0129 30.1017C27.3294 30.0405 27.6125 29.8655 27.8086 29.6096L28.2282 29.1022L35.5858 33.9812C34.5516 34.8246 33.341 35.4249 32.0436 35.7377Z" fill="#F5F5F5"/>
</svg>
