<svg width="256" height="64" viewBox="0 0 256 64" fill="none" xmlns="http://www.w3.org/2000/svg">
<path d="M115.84 24.9605L120.704 21.3765H104.576V42.6245H120.704V39.0405H109.184V33.6645H118.912V30.0805H109.184V24.9605H115.84ZM95.7441 24.9605L100.608 21.3765H82.1761V42.6245H91.7761C97.1521 42.6245 100.224 40.1925 100.224 35.9685C100.224 31.8725 97.4081 29.6965 92.2881 29.6965H86.6561V24.9605H95.7441ZM91.6481 33.1525C94.5921 33.1525 95.8721 34.1765 95.8721 36.0965C95.8721 38.0165 94.4641 39.0405 91.6481 39.0405H86.7841V33.1525H91.6481ZM133.632 21.3765H124.928V42.6245H129.536V36.6085H133.76C139.392 36.6085 142.848 33.6645 142.848 28.9285C142.848 24.1925 139.264 21.3765 133.632 21.3765ZM133.632 33.0245H129.536V24.8325H133.632C136.576 24.8325 138.24 26.2405 138.24 28.9285C138.112 31.6165 136.576 33.0245 133.632 33.0245ZM74.3681 38.0165C73.0881 38.6565 71.8081 39.0405 70.4001 39.0405C66.3041 39.0405 63.2321 36.0965 63.2321 32.0005C63.2321 27.9045 66.1761 24.9605 70.4001 24.9605C71.9361 24.9605 73.3441 25.4725 74.6241 26.2405L77.9521 23.8085L77.6961 23.5525C75.7761 21.8885 73.2161 20.9925 70.2721 20.9925C67.0721 20.9925 64.2561 22.0165 62.0801 24.0645C60.0321 26.1125 58.7521 28.9285 58.8801 31.8725C58.8801 34.8165 60.0321 37.6325 62.0801 39.8085C64.2561 41.8565 67.2001 43.0085 70.1441 42.8805C73.4721 42.8805 76.2881 41.7285 78.3361 39.6805L75.3921 37.5045L74.3681 38.0165ZM212.48 30.0805H202.624V21.3765H198.016V42.6245H202.624V33.9205H212.48V42.6245H217.088V21.3765H212.48V30.0805ZM181.376 21.3765L172.16 42.6245H176.768L178.56 38.4005H188.288L190.08 42.6245H194.944L185.984 21.3765H181.376ZM180.096 34.8165L183.68 26.2405L187.008 34.8165H180.096ZM233.728 31.6165L242.048 21.3765H236.8L229.888 30.4645H227.328V21.3765H222.72V42.6245H227.328V34.0485H230.272L237.312 42.6245H243.2L233.728 31.6165ZM162.56 29.6965H156.928V24.9605H168.96V21.3765H152.32V42.6245H161.92C167.296 42.6245 170.368 40.1925 170.368 35.9685C170.496 31.8725 167.68 29.6965 162.56 29.6965ZM161.792 39.1685H156.928V33.2805H161.792C164.736 33.2805 166.016 34.3045 166.016 36.2245C166.144 38.1445 164.608 39.1685 161.792 39.1685Z" fill="#F5F5F5"/>
<path d="M44.1358 20.9681C44.9668 22.0569 45.6703 23.2398 46.232 24.493L30.2974 36.3974L23.6379 32.1666V27.0768L30.2974 31.3076L44.1358 20.9681Z" fill="#F5F5F5"/>
<path d="M16.8414 31.8073C16.8414 31.5789 16.8469 31.352 16.8579 31.1264L12.822 30.926C12.8083 31.2184 12.8001 31.5135 12.8001 31.8114C12.7983 34.1389 13.2501 36.4437 14.1293 38.5938C15.0086 40.744 16.2981 42.697 17.9238 44.3408L20.7866 41.441C19.5351 40.1778 18.5423 38.6764 17.8653 37.0231C17.1882 35.3699 16.8403 33.5972 16.8414 31.8073Z" fill="#F5F5F5"/>
<path d="M30.2938 18.1751C30.519 18.1751 30.7429 18.1834 30.9654 18.1946L31.1673 14.103C30.878 14.0891 30.5868 14.0821 30.2938 14.0821C27.9961 14.0793 25.7206 14.5364 23.5978 15.4273C21.475 16.3182 19.5468 17.6253 17.9238 19.2735L20.7866 22.1747C22.033 20.906 23.5146 19.8995 25.1462 19.2131C26.7778 18.5267 28.5271 18.1739 30.2938 18.1751Z" fill="#F5F5F5"/>
<path d="M30.2937 45.4411C30.0684 45.4411 29.8445 45.4411 29.6206 45.423L29.4187 49.5131C29.709 49.528 30.0007 49.5354 30.2937 49.5354C32.5904 49.5378 34.8648 49.0804 36.9864 48.1893C39.1081 47.2981 41.0351 45.9909 42.6568 44.3427L39.7996 41.4429C38.5529 42.7109 37.0714 43.7168 35.4402 44.403C33.8089 45.0891 32.0599 45.4419 30.2937 45.4411Z" fill="#F5F5F5"/>
<path d="M37.8766 20.5536L41.2777 18.0129C38.169 15.4617 34.2885 14.0729 30.2883 14.08V18.1744C32.9971 18.171 35.6429 19.0006 37.8766 20.5536Z" fill="#F5F5F5"/>
<path d="M47.7861 31.8079C47.7883 30.7428 47.6964 29.6796 47.5114 28.631L43.7462 31.4432C43.7462 31.5644 43.7462 31.6854 43.7462 31.8079C43.7472 33.7128 43.3531 35.5966 42.5898 37.3373C41.8264 39.0779 40.7105 40.6366 39.3147 41.9122L42.0305 44.9541C43.8452 43.2938 45.2953 41.2656 46.2868 39.0009C47.2784 36.7362 47.7892 34.2856 47.7861 31.8079Z" fill="#F5F5F5"/>
<path d="M30.2938 45.4417C28.4141 45.4424 26.5552 45.0429 24.8375 44.2693C23.1198 43.4957 21.5815 42.365 20.3223 40.9506L17.3223 43.7015C18.9603 45.5409 20.9615 47.0108 23.1962 48.0159C25.4308 49.021 27.8489 49.5389 30.2938 49.536V45.4417Z" fill="#F5F5F5"/>
<path d="M21.2729 21.7033L18.5585 18.6615C16.7433 20.3214 15.2926 22.3496 14.3006 24.6143C13.3086 26.879 12.7973 29.3297 12.8001 31.8076H16.8414C16.8406 29.9028 17.2346 28.019 17.998 26.2783C18.7614 24.5378 19.8771 22.9791 21.2729 21.7033Z" fill="#F5F5F5"/>
</svg>
