<svg width="87" height="89" fill="none" xmlns="http://www.w3.org/2000/svg"><path d="M23.883 64.093l4.055 23.947 32.507-60.488-36.562 36.541z" fill="#5B6670"/><path d="M0 60.16l23.977 4.05 36.585-36.54L0 60.16z" fill="#fff"/><path d="M62.602 13.39L75.984 0l1.899 1.896-2.485 11.049c-.585 2.552-1.218 4.752-1.945 6.742h.07c1.641-1.92 3.211-3.605 5.297-5.689l5.602-5.594 1.64 1.638-13.406 13.39-1.758-1.755 2.555-11.026c.563-2.435 1.195-4.846 1.969-6.976l-.07-.047c-1.594 1.78-3.165 3.441-5.391 5.665l-5.719 5.712-1.64-1.639v.024z" fill="#F5F5F5"/></svg>