<svg width="68" height="52" fill="none" xmlns="http://www.w3.org/2000/svg"><path d="M22.864 51.348L0 17.88 11.393.664h22.949l11.39 17.217-22.864 33.464-.003.003zM1.319 17.872l21.546 31.535 21.547-31.535L33.765 1.778H11.967L1.32 17.872h-.003z" fill="#fff"/><path d="M30.198 51.348L7.333 17.88 18.723.664h22.949l11.39 17.217-22.864 33.464v.003zM8.652 17.872l21.546 31.535 21.546-31.535L41.095 1.778H19.297L8.652 17.872z" fill="#fff"/><path d="M37.53 51.348L14.664 17.88 26.056.664h22.95l11.39 17.217L37.53 51.345v.003zM15.983 17.872l21.546 31.535 21.546-31.535L48.429 1.778H26.63L15.985 17.872h-.003z" fill="#fff"/><path d="M44.861 51.348L21.997 17.88 33.387.664h22.948l11.39 17.217-22.864 33.464v.003zM23.315 17.872L44.86 49.407l21.546-31.535L55.762 1.778H33.963L23.318 17.872h-.003z" fill="#fff"/><path d="M33.864 26.405l-5.666-8.693 5.666-8.694 5.667 8.694-5.667 8.693zm-4.36-8.693l4.36 6.69 4.364-6.69-4.36-6.691-4.364 6.69z" fill="#fff"/></svg>