<svg width="48" height="48" fill="none" xmlns="http://www.w3.org/2000/svg"><circle cx="24" cy="24" r="23" stroke="#F5F5F5" stroke-width="2"/><path d="M25.046 21.92v8.811a1.035 1.035 0 11-2.073 0V11.036a1.035 1.035 0 112.073 0V21.92zm-2.074 15h-8.81a1.035 1.035 0 110-2.072h19.694a1.035 1.035 0 110 2.073H22.972z" fill="#F5F5F5"/><path d="M32.034 24.293l-7.31 7.31a1.035 1.035 0 11-1.466-1.467l7.31-7.31a1.035 1.035 0 111.466 1.466z" fill="#F5F5F5"/><path d="M17.398 22.827l7.31 7.31a1.035 1.035 0 11-1.466 1.465l-7.31-7.31a1.035 1.035 0 01.733-1.77c.265 0 .53.103.733.305z" fill="#F5F5F5"/></svg>