<svg width="153" height="180" fill="none" xmlns="http://www.w3.org/2000/svg"><g stroke="#F5F5F5" stroke-width="2"><path d="M44.612 59.953H1v22.475h43.612V59.953zm0 22.475H1v42.059h43.612V82.428zm0 42.059H1V179h43.612v-54.513zm54.244-5.121h-30.56V179h30.56v-59.634z"/><path d="M151.982 91.106h-41.614v40.935h41.614V91.106z" fill="#F5F5F5"/><path d="M151.982 50.17h-41.614v40.935h41.614V50.17z"/><path d="M151.982 1.221h-41.614v48.95h41.614V1.22z"/><path d="M110.369 1.221H75.611v62.085h23.245V39.927h11.513V1.221zM75.61 1H56.345v62.306H75.61V1zM152 132.041v26.491h-12.411v-4.237h-23.025v-12.233h-6.196v-10.021H152z"/><path d="M152 158.532V179H98.856v-36.938h17.708v12.233h23.025v4.237H152zm-94.538-39.166v15.788h-12.85V179h23.684v-59.634H57.462zM56.344 1H1v58.953h43.612v-18.46h11.732V1z"/></g></svg>