<svg width="232" height="217" fill="none" xmlns="http://www.w3.org/2000/svg"><path d="M20.5 179.5v-157h211v157h-211z" fill="#CACED1" stroke="#5B6670"/><path d="M231 47h-89v93h89V47z" fill="#99A0A6"/><path d="M103.718 81.415H20.101v97.757h83.617V81.415z" fill="#5B6670"/><path d="M76.924 189.843h1.495l-2.81 6.728c-.692 1.649-1.808 2.428-3.347 2.317v-1.381c.513.044.914-.023 1.227-.223.312-.201.557-.557.758-1.025l-3.012-6.394h1.495l2.209 4.768 1.985-4.768v-.022zm6.649 2.584h1.405v6.461h-1.405v-2.584h-2.967v2.584H79.2v-6.461h1.406v2.585h2.967v-2.585zm8.031 0h1.071v6.461h-1.383v-4.122l-3.324 4.122h-1.071v-6.461h1.383v4.099l3.324-4.099zm7.519 3.141c.647.29.959.78.959 1.493 0 .535-.178.98-.558 1.314-.357.335-.892.513-1.584.513h-3.324v-6.461h3.056c.67 0 1.183.156 1.54.49a1.7 1.7 0 01.558 1.293c0 .623-.224 1.069-.67 1.358h.023zm-1.517-1.96h-1.629v1.426h1.629c.58 0 .847-.245.847-.735 0-.491-.29-.713-.847-.713v.022zm.223 4.055c.58 0 .87-.245.87-.758 0-.223-.067-.401-.223-.535-.156-.133-.38-.178-.647-.178h-1.852v1.471h1.852zm4.863-1.404c.112.49.335.869.714 1.136.379.268.826.401 1.361.401.736 0 1.294-.267 1.673-.802l1.16.669c-.647.935-1.584 1.403-2.833 1.403-1.049 0-1.896-.312-2.543-.958-.647-.646-.982-1.448-.982-2.428s.312-1.782.959-2.428c.647-.646 1.451-.981 2.454-.981.96 0 1.718.335 2.343 1.003.602.668.915 1.47.915 2.428 0 .156 0 .334-.045.579h-5.153l-.023-.022zm0-1.136h3.815c-.089-.535-.312-.913-.647-1.181-.334-.267-.736-.401-1.205-.401-.513 0-.959.134-1.293.424-.335.289-.558.668-.67 1.158zm10.419-2.852c.892 0 1.651.335 2.276.981.624.668.937 1.47.937 2.406 0 .935-.313 1.76-.937 2.428-.625.646-1.384.98-2.276.98-.982 0-1.74-.356-2.276-1.091v3.497h-1.405v-9.045h1.405v.936c.536-.735 1.272-1.092 2.276-1.092zm-1.673 4.879c.379.401.87.579 1.472.579.603 0 1.071-.2 1.473-.579.379-.401.58-.891.58-1.492 0-.602-.201-1.092-.58-1.493-.38-.401-.87-.579-1.473-.579-.602 0-1.071.2-1.472.579-.38.401-.58.891-.58 1.493 0 .601.2 1.091.58 1.492zm13.096-4.723v6.461h-1.361v-4.255l-1.874 2.963h-.179l-1.852-2.941v4.233h-1.36v-6.461h1.427l1.874 2.986 1.874-2.986h1.451zm7.072 0h1.405v6.461h-1.405v-.936c-.536.735-1.272 1.092-2.276 1.092-.892 0-1.651-.334-2.275-.98-.625-.669-.937-1.471-.937-2.406 0-.936.312-1.76.937-2.429.624-.646 1.383-.98 2.275-.98.982 0 1.74.356 2.276 1.092v-.914zm-3.503 4.723c.379.401.87.579 1.473.579.602 0 1.07-.2 1.472-.579.379-.401.58-.891.58-1.492 0-.602-.201-1.092-.58-1.493-.379-.401-.87-.579-1.472-.579-.603 0-1.071.2-1.473.579-.379.401-.58.891-.58 1.493 0 .601.201 1.091.58 1.492zm11.2-4.723v1.337h-2.945v5.124h-1.406v-6.461h4.351zm7.027.089l-1.428 2.384 1.428 2.384h-1.383l-1.428-2.384 1.428-2.384h1.383zm2.32 0l-1.427 2.384 1.427 2.384h-1.383l-1.428-2.384 1.428-2.384h1.383zm6.515-2.673h1.495l-2.811 6.728c-.692 1.649-1.807 2.428-3.347 2.317v-1.381c.513.044.915-.023 1.227-.223.313-.201.558-.557.759-1.025l-3.012-6.394h1.495l2.208 4.768 1.986-4.768v-.022zm8.678 3.587c.581.601.871 1.359.871 2.228 0 .868-.29 1.626-.871 2.227-.58.624-1.383.981-2.387 1.114v2.473h-1.383v-2.473c-1.004-.133-1.807-.49-2.387-1.114-.58-.601-.87-1.359-.87-2.227 0-.869.29-1.627.87-2.228.58-.624 1.383-.98 2.387-1.114v-2.473h1.383v2.473c1.004.134 1.785.49 2.387 1.114zm-5.131.935c-.334.357-.491.802-.491 1.315 0 .512.157.936.491 1.314.335.357.781.602 1.383.713v-4.032c-.602.111-1.048.356-1.383.713v-.023zm2.767 3.32c.602-.111 1.048-.357 1.383-.713.335-.356.491-.802.491-1.314 0-.513-.156-.958-.491-1.315-.335-.356-.781-.601-1.383-.713v4.055zm9.95-5.258h1.405v6.461h-1.405v-.936c-.536.735-1.294 1.092-2.276 1.092-.892 0-1.651-.334-2.275-.98-.625-.669-.937-1.471-.937-2.406 0-.936.312-1.76.937-2.429.624-.646 1.383-.98 2.275-.98.982 0 1.74.356 2.276 1.092v-.914zm-3.503 4.723c.379.401.87.579 1.473.579.602 0 1.071-.2 1.472-.579.379-.401.58-.891.58-1.492 0-.602-.201-1.092-.58-1.493-.379-.401-.87-.579-1.472-.579-.603 0-1.071.2-1.473.579-.379.401-.58.891-.58 1.493 0 .601.201 1.091.58 1.492zm8.032-4.634l1.428 2.384-1.428 2.384h-1.383l1.427-2.384-1.427-2.384h1.383zm2.32 0l1.428 2.384-1.428 2.384h-1.383l1.428-2.384-1.428-2.384h1.383zm-84.086 15.439v6.461h-1.405v-5.147h-2.968v5.147h-1.405v-6.461h5.778zm5.622-.178c.893 0 1.651.334 2.276.98.625.668.937 1.47.937 2.406 0 .936-.312 1.76-.937 2.428-.625.647-1.383.981-2.276.981-.981 0-1.74-.357-2.275-1.092v3.498h-1.406v-9.045h1.406v.935c.535-.735 1.271-1.091 2.275-1.091zm-1.673 4.879c.38.401.87.579 1.472.579.603 0 1.071-.201 1.473-.579.379-.401.58-.891.58-1.493 0-.601-.201-1.092-.58-1.493-.379-.401-.87-.579-1.472-.579-.603 0-1.071.201-1.473.579-.38.401-.58.892-.58 1.493 0 .602.2 1.092.58 1.493zm7.697 1.626c-.201.178-.424.29-.692.29a.925.925 0 01-.691-.29.924.924 0 01-.29-.691c0-.267.089-.49.267-.69a.982.982 0 01.692-.29c.268 0 .491.089.692.29.178.2.29.423.29.69 0 .268-.09.491-.29.691h.022zm12.694-1.069c-.915.913-2.03 1.359-3.346 1.359-1.317 0-2.432-.446-3.347-1.359-.914-.914-1.361-2.028-1.361-3.342s.447-2.428 1.361-3.319c.915-.892 2.03-1.359 3.347-1.359 1.316 0 2.431.445 3.346 1.359.915.913 1.361 2.027 1.361 3.319 0 1.292-.446 2.428-1.361 3.342zm-5.622-1.003c.625.624 1.383.936 2.276.936.892 0 1.673-.312 2.275-.936.625-.624.937-1.381.937-2.317 0-.935-.312-1.693-.937-2.317-.624-.623-1.383-.935-2.275-.935-.893 0-1.674.312-2.276.935-.625.624-.937 1.382-.937 2.317 0 .936.312 1.716.937 2.317zm14.278 2.206h-1.673l-2.655-2.986v2.986h-1.405v-6.461h1.405v2.852l2.521-2.852h1.718l-2.855 3.164 2.944 3.297zm6.448-6.461v1.337h-2.119v5.124h-1.406v-5.124h-2.119v-1.337h5.644zm6.314 0v6.461h-1.384v-2.184h-.78l-1.651 2.184h-1.651l1.74-2.295c-.446-.156-.803-.401-1.071-.78a2.077 2.077 0 01-.402-1.247c0-.602.224-1.114.647-1.515.424-.401.982-.624 1.651-.624h2.901zm-2.811 3.097h1.427v-1.827h-1.427c-.29 0-.514.089-.714.245a.853.853 0 00-.29.668c0 .29.089.49.29.669.178.156.424.245.714.245zm7.808 3.542c-1.004 0-1.807-.312-2.432-.958-.624-.646-.937-1.47-.937-2.473 0-1.091.156-1.938.491-2.54.335-.601 1.004-1.136 1.986-1.626.156-.089.401-.178.736-.334.335-.156.558-.245.669-.312.112-.067.268-.156.446-.29.179-.133.313-.267.402-.401.089-.133.156-.311.201-.512l1.138.668a2.53 2.53 0 01-.179.535 1.299 1.299 0 01-.335.446c-.156.133-.267.245-.379.334-.111.089-.29.178-.535.312-.246.111-.424.2-.558.267-.112.045-.335.134-.647.267-.558.223-.982.446-1.249.691a1.955 1.955 0 00-.558.891c.513-.579 1.227-.869 2.119-.869.759 0 1.428.268 1.986.825.558.534.848 1.247.848 2.116s-.29 1.604-.893 2.183c-.602.579-1.383.847-2.342.847l.022-.067zm0-1.314c.535 0 .982-.156 1.339-.491.357-.334.513-.735.513-1.225 0-.49-.179-.936-.513-1.247-.335-.335-.781-.491-1.317-.491-.49 0-.914.156-1.316.468-.379.312-.58.713-.58 1.226 0 .512.178.935.535 1.269.357.335.804.513 1.339.513v-.022zm8.366-5.503c.893 0 1.651.334 2.276.98.625.646.937 1.47.937 2.406 0 .936-.312 1.76-.937 2.428-.625.647-1.383.981-2.276.981-.981 0-1.74-.357-2.275-1.092v3.498h-1.406v-9.045h1.406v.935c.535-.735 1.271-1.091 2.275-1.091zm-1.673 4.879c.379.401.87.579 1.472.579.603 0 1.071-.201 1.473-.579.379-.401.58-.891.58-1.493 0-.601-.201-1.092-.58-1.493-.379-.401-.87-.579-1.473-.579-.602 0-1.07.201-1.472.579-.379.401-.58.892-.58 1.493 0 .602.201 1.092.58 1.493zm11.378-4.701v6.461h-1.383v-2.184h-.781l-1.651 2.184h-1.651l1.74-2.295a2.26 2.26 0 01-1.093-.78 2.076 2.076 0 01-.401-1.247c0-.602.223-1.114.646-1.515.424-.401.982-.624 1.651-.624h2.923zm-2.811 3.097h1.428v-1.827h-1.428c-.29 0-.513.089-.714.245a.856.856 0 00-.29.668c0 .29.089.49.29.669.179.156.424.245.714.245zM2.588 169.949v-1.493l6.693 2.473c.825.312 1.428.735 1.83 1.27.4.534.58 1.18.535 1.893h-1.317c.023-.445-.067-.802-.267-1.069-.201-.267-.536-.49-.982-.646l-.09-.045-6.424 2.718v-1.492l4.707-1.961-4.707-1.648h.022zm0-7.909h6.47v1.403H3.927v2.161h2.409c1.026 0 1.762.223 2.186.669.424.445.603 1.091.536 1.916H7.742c.066-.401 0-.691-.246-.891-.223-.201-.647-.29-1.227-.29H2.588v-4.968zm6.358-3.431c.179.178.29.423.29.691 0 .267-.089.49-.29.69-.2.179-.424.29-.691.29a.999.999 0 01-.692-.267.98.98 0 01-.29-.691c0-.267.09-.49.29-.691a.93.93 0 01.692-.289.93.93 0 01.691.289v-.022zm-5.443-8.532c0-.847.267-1.538.78-2.072.536-.557 1.183-.825 1.986-.825.803 0 1.473.268 1.986.825.535.557.78 1.247.78 2.072v3.43H0v-5.569h1.428v4.077h2.075v-1.938zm4.172 0a1.53 1.53 0 00-.38-1.025c-.245-.29-.58-.401-1.004-.401-.424 0-.758.133-1.004.401-.245.267-.379.601-.379 1.025v1.938h2.767v-1.938zm-5.243-8.021c0-.891.334-1.648.981-2.272.647-.624 1.473-.936 2.41-.936s1.762.312 2.432.936c.647.624.981 1.381.981 2.272 0 .981-.357 1.738-1.093 2.273h3.503v1.403H2.588v-1.403h.937c-.736-.535-1.093-1.292-1.093-2.273zm4.886 1.671c.401-.378.58-.869.58-1.47 0-.602-.201-1.069-.58-1.47-.402-.379-.893-.58-1.495-.58-.603 0-1.093.201-1.495.58-.401.378-.58.868-.58 1.47 0 .601.2 1.069.58 1.47.402.379.893.58 1.495.58.602 0 1.093-.201 1.495-.58zm1.628-7.686a.98.98 0 01.29.691c0 .267-.089.49-.29.691-.2.178-.424.289-.691.289a.999.999 0 01-.692-.267.976.976 0 01-.29-.691c0-.267.09-.49.29-.69.2-.179.424-.29.692-.29.267 0 .49.089.691.29v-.023zm.112-10.158l-4.306 3.564h4.306v1.493H0v-1.493h4.06L0 126.016v-1.782l4.417 3.654 4.64-3.788v1.783zm-6.47-7.642v-1.403h6.47v1.403H8.12c.736.535 1.093 1.27 1.093 2.273 0 .891-.335 1.648-.982 2.272-.669.624-1.472.936-2.41.936-.936 0-1.762-.312-2.43-.936-.648-.624-.983-1.381-.983-2.272 0-.981.357-1.738 1.094-2.273h-.915zm4.73 3.498c.401-.379.58-.869.58-1.471 0-.601-.201-1.069-.58-1.47-.402-.379-.893-.579-1.495-.579-.603 0-1.093.2-1.495.579-.401.379-.58.869-.58 1.47 0 .602.2 1.07.58 1.471.402.379.893.579 1.495.579.602 0 1.093-.2 1.495-.579zm.424-13.412h3.056v1.382h-1.74v4.433h1.74v1.381H7.742v-.78c-.558-.401-1.34-.601-2.343-.601H2.588v-4.923h5.154v-.892zm0 4.857v-2.607h-3.86v2.184h1.54c.914 0 1.695.133 2.342.423h-.022zm1.494-9.268c0 .958-.334 1.76-.981 2.429-.647.668-1.473 1.002-2.432 1.002-.96 0-1.763-.334-2.432-1.002a3.363 3.363 0 01-.982-2.429c0-.958.335-1.76.982-2.428.647-.668 1.473-.98 2.432-.98.96 0 1.762.334 2.432.98a3.36 3.36 0 01.981 2.428zm-1.94 1.426c.379-.379.58-.869.58-1.426 0-.557-.201-1.047-.58-1.425-.38-.379-.87-.58-1.473-.58-.603 0-1.071.201-1.473.58-.379.378-.58.868-.58 1.425s.201 1.047.58 1.426c.38.379.87.579 1.473.579.602 0 1.07-.2 1.472-.579zm-4.708-13.01h6.47v1.359H4.797l2.967 1.871v.178l-2.945 1.85h4.239v1.358h-6.47v-1.425l2.99-1.872-2.99-1.871v-1.448zm5.154-7.508v-1.07h3.056v1.382h-1.74v5.258h-6.47V88.99h5.154v-2.762H2.588v-1.404h5.154zm-1.317-3.498c.491-.111.87-.334 1.138-.713.268-.378.402-.824.402-1.359 0-.735-.268-1.292-.804-1.67l.67-1.159c.937.646 1.405 1.582 1.405 2.83 0 1.047-.312 1.893-.96 2.54-.646.645-1.45.98-2.43.98-.982 0-1.786-.313-2.433-.959-.647-.646-.981-1.448-.981-2.45 0-.958.334-1.716 1.004-2.34.669-.6 1.472-.913 2.431-.913.157 0 .335 0 .58.045v5.146l-.022.022zm-1.138 0v-3.81c-.535.09-.914.313-1.182.647-.268.334-.402.735-.402 1.203 0 .512.134.958.424 1.292.29.334.67.557 1.16.668zm.447-11.25c.29-.646.78-.958 1.494-.958.536 0 .982.178 1.317.557.334.356.513.891.513 1.582v3.319h-6.47v-3.052c0-.668.156-1.18.49-1.537a1.702 1.702 0 011.295-.557c.624 0 1.07.223 1.36.668v-.022zM3.77 71.59v1.626h1.428V71.59c0-.58-.245-.847-.736-.847-.49 0-.714.29-.714.847h.022zm4.06-.223c0-.58-.245-.869-.758-.869-.223 0-.401.067-.535.223s-.179.379-.179.646v1.85h1.473v-1.85zm-5.242-9.735V60.23h6.47v1.403h-6.47zm2.209 3.12c0-.691.2-1.248.58-1.694.379-.445.914-.668 1.54-.668.624 0 1.137.223 1.538.668.402.446.603 1.003.603 1.693v2.83h-6.47v-1.404h2.209v-1.426zm3.011 0c0-.268-.089-.513-.245-.691a.81.81 0 00-.625-.268c-.245 0-.49.09-.647.268a1.044 1.044 0 00-.245.69v1.426h1.762v-1.426zm1.25-12.232v1.627l-2.209 1.604 2.209 1.626v1.627l-3.324-2.429-3.146 2.295v-1.626L4.64 55.75l-2.052-1.493v-1.626l3.168 2.295 3.324-2.429-.022.023z" fill="#F5F5F5"/><path d="M49.849 127.368h-2.73l-3.195-5.202-3.195 5.202H38l4.596-7.396L38.287 113h2.693l2.944 4.778L46.87 113h2.728l-4.308 6.972 4.56 7.396zm6.391.248c-1.544 0-2.837-.531-3.914-1.557-1.077-1.026-1.615-2.336-1.615-3.858 0-1.521.538-2.795 1.615-3.857 1.077-1.026 2.37-1.557 3.914-1.557s2.836.531 3.913 1.557c1.078 1.026 1.58 2.336 1.58 3.857 0 1.522-.538 2.796-1.58 3.858-1.077 1.026-2.37 1.557-3.913 1.557zm-2.298-3.079c.61.602 1.4.92 2.298.92.898 0 1.687-.318 2.298-.92.61-.601.933-1.38.933-2.336 0-.955-.323-1.698-.933-2.335-.61-.602-1.4-.92-2.298-.92-.898 0-1.688.318-2.298.92-.61.601-.934 1.38-.934 2.335 0 .956.324 1.699.934 2.336zm19.101-7.432v10.263h-2.262v-8.139H67.3v3.822c0 1.628-.36 2.796-1.078 3.468-.718.672-1.759.956-3.087.849v-2.088c.646.107 1.113 0 1.436-.389.323-.389.467-1.026.467-1.946v-5.84h8.006zm11.957 0v10.263h-2.262v-8.139h-3.483v3.822c0 1.628-.359 2.796-1.077 3.468-.718.672-1.76.956-3.088.849v-2.088c.646.107 1.113 0 1.436-.389.324-.389.467-1.026.467-1.946v-5.84H85zM66.114 152l-1.005-2.902h-6.212L57.892 152H55.27l5.278-14.368h2.873L68.699 152h-2.585zm-6.427-5.132h4.632l-2.298-6.476-2.298 6.476h-.036zM179.849 87.75h-2.729l-3.196-5.34-3.195 5.34H168l4.596-7.593L168.287 73h2.693l2.944 4.905L176.869 73h2.728l-4.308 7.157 4.56 7.593zm6.391.255c-1.544 0-2.837-.545-3.878-1.599-1.077-1.054-1.616-2.398-1.616-3.96 0-1.562.539-2.87 1.616-3.96 1.077-1.054 2.37-1.599 3.878-1.599s2.836.545 3.914 1.599c1.077 1.053 1.579 2.398 1.579 3.96 0 1.562-.538 2.87-1.579 3.96-1.078 1.054-2.37 1.599-3.914 1.599zm-2.298-3.161c.61.617 1.4.944 2.298.944.898 0 1.687-.327 2.298-.944.61-.618.933-1.417.933-2.398 0-.981-.323-1.744-.933-2.398-.611-.618-1.4-.945-2.298-.945-.898 0-1.688.328-2.298.945-.61.618-.934 1.417-.934 2.398 0 .98.324 1.744.934 2.398zm19.066-7.666v10.536h-2.262v-8.356h-3.483v3.924c0 1.67-.359 2.87-1.077 3.56s-1.76.98-3.088.872V85.57c.646.11 1.113 0 1.436-.4.323-.399.467-1.053.467-1.997v-5.995h8.007zm11.992 0v10.536h-2.262v-8.356h-3.483v3.924c0 1.67-.359 2.87-1.077 3.56s-1.759.98-3.088.872V85.57c.646.11 1.113 0 1.436-.4.324-.399.467-1.053.467-1.997v-5.995H215zm-22.118 26.812c1.365 0 2.478.436 3.34 1.272.897.872 1.328 1.925 1.328 3.233s-.431 2.398-1.328 3.233c-.898.872-2.011 1.272-3.34 1.272h-5.529V98.25h8.976v2.325h-6.57v3.379h3.123v.036zm0 6.794a2.45 2.45 0 001.652-.618c.467-.399.646-.944.646-1.635 0-.69-.215-1.235-.646-1.635-.431-.399-.969-.617-1.652-.617h-3.123v4.505h3.123z" fill="#fff"/><path d="M95.375 2.807h1.494L94.393 9.49c-.312.825-.736 1.426-1.272 1.827-.535.401-1.182.58-1.896.535v-1.315c.446.023.803-.066 1.07-.267.269-.2.492-.534.648-.98l.044-.09-2.721-6.415h1.494l1.964 4.7 1.65-4.7v.022zm7.92 0v6.46h-1.406V4.145h-2.164V6.55c0 1.025-.223 1.76-.67 2.183-.446.423-1.093.602-1.918.535V7.953c.402.067.692 0 .892-.245.201-.245.29-.646.29-1.225V2.807h4.976zm3.435 6.327c-.201.178-.424.29-.691.29a.93.93 0 01-.692-.29.925.925 0 01-.29-.69c0-.268.089-.49.268-.691a.979.979 0 01.691-.29.93.93 0 01.692.29c.178.2.29.423.29.69 0 .268-.089.49-.29.691h.022zm8.456-8.911c.847 0 1.561.29 2.141.846.581.58.871 1.27.871 2.117 0 .846-.29 1.537-.871 2.116-.58.58-1.294.869-2.141.869h-1.852v3.097h-1.495V.223h3.347zm0 4.545a1.48 1.48 0 001.093-.446c.29-.29.424-.668.424-1.136 0-.468-.134-.825-.424-1.136a1.48 1.48 0 00-1.093-.446h-1.852v3.164h1.852zm4.64 4.366a.979.979 0 01-.691.29.93.93 0 01-.692-.29c-.179-.2-.29-.423-.29-.69 0-.268.089-.49.268-.691a.979.979 0 01.691-.29.93.93 0 01.692.29c.178.2.29.423.29.69 0 .268-.089.49-.29.691h.022zm9.705-4.567c.915.446 1.383 1.158 1.383 2.183 0 .802-.29 1.448-.892 1.938-.603.49-1.383.736-2.343.736-1.651 0-2.744-.691-3.279-2.094l1.294-.736c.267.958.937 1.426 2.008 1.426.58 0 1.003-.111 1.316-.379.312-.245.446-.579.446-.98 0-.4-.134-.735-.424-.98s-.691-.379-1.227-.379h-1.093V3.966h.803c.513 0 .915-.112 1.182-.357.268-.245.424-.535.424-.936 0-.4-.133-.69-.379-.935-.268-.223-.625-.334-1.115-.334-.893 0-1.495.4-1.807 1.225l-1.272-.735C125.136.624 126.162 0 127.635 0c.892 0 1.606.245 2.164.713.557.468.825 1.092.825 1.871 0 .847-.357 1.493-1.048 1.938l-.045.045zm6.001 4.857a3.369 3.369 0 01-2.431-.98c-.67-.647-1.004-1.471-1.004-2.429 0-.958.334-1.76 1.004-2.428a3.369 3.369 0 012.431-.98c.96 0 1.763.334 2.432.98.669.646.982 1.47.982 2.428s-.335 1.76-.982 2.428a3.37 3.37 0 01-2.432.98zm-1.428-1.939c.38.38.871.58 1.428.58.558 0 1.049-.2 1.428-.58.379-.378.58-.868.58-1.47 0-.601-.201-1.07-.58-1.47-.379-.401-.87-.58-1.428-.58-.557 0-1.048.201-1.428.58-.379.378-.58.869-.58 1.47 0 .602.201 1.07.58 1.47zm10.062-4.856c.893 0 1.651.334 2.276.98.624.646.937 1.47.937 2.406 0 .936-.313 1.76-.937 2.428-.625.646-1.383.98-2.276.98-.981 0-1.74-.356-2.275-1.091v3.498h-1.406V2.807h1.406v.936c.535-.735 1.271-1.092 2.275-1.092V2.63zm-1.673 4.879c.379.4.87.579 1.472.579.603 0 1.071-.2 1.473-.58.379-.4.58-.89.58-1.492 0-.601-.201-1.092-.58-1.493-.379-.4-.87-.579-1.473-.579-.602 0-1.07.2-1.472.58-.379.4-.58.89-.58 1.492s.201 1.092.58 1.493zm10.843-4.701v1.337h-2.945v5.124h-1.406V2.807h4.351zm2.32 3.81c.111.49.334.868.714 1.136.379.267.825.4 1.361.4.736 0 1.294-.267 1.673-.801l1.16.668c-.647.936-1.584 1.404-2.833 1.404-1.049 0-1.897-.312-2.544-.958-.647-.646-.981-1.448-.981-2.429 0-.98.312-1.782.959-2.428.647-.646 1.45-.98 2.454-.98.959 0 1.74.334 2.343 1.002.602.669.914 1.47.914 2.429 0 .156 0 .334-.044.579h-5.154l-.022-.022zm0-1.137h3.815c-.089-.534-.313-.913-.647-1.18-.335-.268-.736-.401-1.205-.401-.513 0-.959.133-1.294.423-.357.29-.558.668-.669 1.158z" fill="#F5F5F5"/></svg>