<svg width="394" height="87" fill="none" xmlns="http://www.w3.org/2000/svg"><path d="M52.889 81L18.217 31.476 35.496 6h34.797l17.28 25.476L52.9 80.99l-.01.01zM20.21 31.465L52.89 78.12l32.677-46.655-16.15-23.82H36.362l-16.15 23.82z" fill="#F5F5F5"/><path d="M64.013 81L29.341 31.476 46.608 6h34.798l17.28 25.476L64.012 80.99V81zM31.335 31.465L64.013 78.12l32.678-46.655L80.54 7.645H47.486l-16.15 23.82z" fill="#F5F5F5"/><path d="M75.126 81L40.454 31.476 57.733 6h34.798l17.279 25.476L75.137 80.99l-.011.011zM42.448 31.465L75.126 78.12l32.678-46.655-16.151-23.82H58.599l-16.15 23.82z" fill="#F5F5F5"/><path d="M86.25 81L51.578 31.476 68.846 6h34.797l17.279 25.476L86.25 80.99V81zM53.572 31.465L86.25 78.12l32.678-46.655-16.151-23.82H69.723l-16.15 23.82z" fill="#F5F5F5"/><path d="M69.564 44.095l-8.594-12.87 8.594-12.87 8.594 12.87-8.594 12.87zm-6.611-12.87l6.61 9.898 6.611-9.898-6.61-9.898-6.611 9.898zm79.498-17.065h2.366v31.355h19.7v2.426h-22.066V14.159zm23.534 21.279c0-7.213 5.474-12.954 12.521-12.954 7.047 0 12.52 5.648 12.52 12.86 0 .452-.053.61-.053.955h-22.569c.397 5.542 4.522 9.732 10.102 9.732 3.675 0 6.584-1.565 8.594-4.733l2.26.61c-2.208 3.937-6.227 6.403-10.854 6.403-7.034 0-12.521-5.7-12.521-12.86v-.013zm22.569-1.008c-.397-5.701-4.628-9.785-10.048-9.785-5.421 0-9.705 4.19-10.102 9.785h20.163-.013zm19.052-3.58c0-9.32 7.642-17.036 16.897-17.036 4.429 0 8.951 1.962 12.111 5.236l-1.705 1.71a14.121 14.121 0 00-10.406-4.587c-7.999 0-14.53 6.656-14.53 14.664s6.478 15.021 14.53 15.021c3.715 0 7.841-1.869 10.458-4.733l1.706 1.71c-3.213 3.328-7.787 5.45-12.164 5.45-9.255 0-16.897-8.167-16.897-17.448v.013zm33.728-16.691h11.357c7.946 0 12.27 3.327 12.27 10.181 0 5.45-2.42 8.618-7.444 9.785l8.7 13.815h-2.869l-8.449-13.404c-.7.053-1.401.053-2.208.053h-8.951v13.364h-2.419V14.16h.013zm2.42 2.213v16.03h8.95c6.532 0 9.903-2.32 9.903-8.115 0-5.489-3.622-7.915-9.903-7.915h-8.95zm27.447 31.568V14.159h2.367v33.782h-2.367zm10.274-9.931c1.004 4.031 5.222 7.77 9.704 7.81 5.276.053 8.951-2.97 8.951-6.404 0-4.534-4.323-6.046-7.496-7.358-.9-.358-4.43-1.657-5.633-2.161-3.12-1.26-6.782-3.938-6.782-8.167 0-4.23 4.178-7.81 10.802-7.915 6.438-.106 10.603 3.685 11.013 9.174l-2.208.252c0-3.938-3.57-7.265-8.647-7.265s-8.501 2.93-8.501 5.74c0 3.978 4.68 5.701 6.584 6.404.952.398 4.323 1.764 5.077 2.015 5.474 1.91 8.29 4.64 8.29 9.122 0 4.84-4.522 9.029-11.463 9.029-5.527 0-10.855-4.23-12.164-10.037l2.459-.252.014.014zm22.873-21.478V14.16h26.945v2.373h-12.322v31.409h-2.367v-31.41h-12.27.014zm23.851 31.409l12.164-33.768h9.506l12.164 33.768h-2.459l-3.676-10.182c-3.57-.305-6.531-2.121-10.802-2.121-4.27 0-6.941 1.87-10.762 2.121l-3.676 10.182h-2.459zm6.941-12.449c3.425-.45 6.029-2.068 9.956-2.068 3.927 0 6.73 1.564 9.956 2.068l-6.783-18.96h-6.28l-6.835 18.96h-.014zm30.793-21.332h2.367v31.355H388v2.426h-22.067V14.159zm-212.231 59.9l-4.284-4.428v4.428h-1.203v-4.428l-4.27 4.428h-1.494l4.336-4.56-4.059-4.402h1.494l4.006 4.335v-4.335h1.204v4.335l4.019-4.335h1.494l-4.059 4.401 4.323 4.561h-1.507zm11.542-7.65l-4.68 7.663h-1.732V65.11h1.203v7.664h.04l4.693-7.664h1.719v8.963h-1.203V66.41h-.04zm4.932 7.676v-1.114c.132.027.251.053.37.053.437 0 .727-.159.886-.464.159-.305.291-.835.384-1.564l.766-5.887h5.91v8.963h-1.203v-7.889h-3.609l-.648 4.813c-.159 1.193-.397 2.015-.701 2.493-.304.477-.82.715-1.534.715-.224 0-.462-.04-.555-.08l-.079-.026.013-.013zm12.799-4.507c0-1.366.409-2.466 1.216-3.328.807-.862 1.891-1.286 3.252-1.286 1.362 0 2.446.424 3.266 1.286.807.862 1.203 1.962 1.203 3.328 0 1.365-.41 2.479-1.203 3.328-.806.861-1.89 1.285-3.266 1.285-1.375 0-2.445-.424-3.252-1.285-.807-.849-1.216-1.963-1.216-3.328zm7.681 0c0-1.021-.291-1.87-.859-2.52-.569-.649-1.362-.98-2.367-.98s-1.798.331-2.366.98c-.569.65-.86 1.499-.86 2.52 0 1.02.291 1.856.86 2.519.568.663 1.361.98 2.366.98 1.005 0 1.798-.33 2.367-.98.568-.65.859-1.498.859-2.52zm12.124-3.169l-4.68 7.663h-1.732v-8.962h1.203v7.663h.04l4.693-7.663h1.719v8.962h-1.203V66.41h-.04zm-2.538-2.453c-.701 0-1.23-.146-1.613-.437-.37-.292-.555-.703-.555-1.26v-.08h.965v.08c0 .57.396.862 1.203.862.806 0 1.203-.292 1.203-.862v-.08h.978v.08c0 .557-.185.981-.555 1.26-.37.291-.912.437-1.613.437h-.013zm19.713 10.103l-4.535-4.428v4.428h-1.203v-8.962h1.203v4.335l4.257-4.335h1.494l-4.297 4.401 4.588 4.561h-1.507zm4.429-4.481c0-1.366.41-2.466 1.217-3.328.806-.862 1.89-1.286 3.252-1.286 1.362 0 2.446.424 3.266 1.286.806.862 1.203 1.962 1.203 3.328 0 1.365-.41 2.479-1.203 3.328-.807.861-1.891 1.285-3.266 1.285s-2.446-.424-3.252-1.285c-.807-.849-1.217-1.963-1.217-3.328zm7.682 0c0-1.021-.291-1.87-.859-2.52-.569-.649-1.362-.98-2.367-.98s-1.798.331-2.367.98c-.568.65-.859 1.499-.859 2.52 0 1.02.291 1.856.859 2.519.569.663 1.362.98 2.367.98s1.798-.33 2.367-.98c.568-.65.859-1.498.859-2.52zm9.612 2.094l-2.631-5.157h-.053v7.557h-1.203V65.11h1.838l2.776 5.45h.053l2.763-5.45h1.838v8.963h-1.203v-7.557h-.053l-2.618 5.157h-1.507zm16.408 2.387v-7.888h-5.104v7.888h-1.203v-8.962h7.51v8.962h-1.203zm4.892.026v-1.114c.132.027.251.053.37.053.436 0 .727-.159.886-.464.158-.305.29-.835.383-1.564l.767-5.887h5.91v8.963h-1.203v-7.889h-3.61l-.648 4.813c-.158 1.193-.396 2.015-.7 2.493-.304.477-.82.715-1.534.715-.225 0-.463-.04-.555-.08l-.08-.026.014-.013zm13.049-.026v-8.962h6.717v1.074h-5.513v2.744h4.746v1.074h-4.746v2.996h5.513v1.074h-6.717zm16.791 0l-4.535-4.428v4.428h-1.203v-8.962h1.203v4.335l4.258-4.335h1.494l-4.297 4.401 4.588 4.561h-1.508zm10.274-1.233c.41-.172.7-.385.912-.636.41-.504.674-1.035.754-1.38l.052-.265h1.23c0 .677-.33 1.485-.978 2.28-.331.399-.78.73-1.362.982-.582.252-1.243.384-1.983.384-1.362 0-2.446-.424-3.253-1.285-.806-.849-1.216-1.963-1.216-3.328 0-1.366.41-2.466 1.216-3.328.807-.862 1.891-1.286 3.253-1.286.74 0 1.401.132 1.983.384.582.266 1.031.584 1.362.981.648.783.978 1.605.978 2.28h-1.23c-.013-.066 0-.145-.118-.503a2.811 2.811 0 00-.595-1.034c-.331-.385-.688-.663-1.336-.875a3.676 3.676 0 00-1.044-.146c-1.005 0-1.798.331-2.367.981-.569.65-.859 1.498-.859 2.52 0 1.02.29 1.855.859 2.518.569.663 1.362.981 2.367.981.515 0 .978-.093 1.375-.265v.04z" fill="#F5F5F5"/></svg>