<svg width="183" height="45" fill="none" xmlns="http://www.w3.org/2000/svg"><g fill="#F5F5F5"><path fill-rule="evenodd" clip-rule="evenodd" d="M15.915 21.235h4.925V3.085h-4.925v18.15zm-2.69 2.587h10.304V.5H13.224v23.322zM.283 28.94h43.803v-2.577H.283v2.577zm2.681 10.067h12.661v-4.92H2.965v4.92zM.284 44.5h2.68v-2.92h15.343V31.512H.283V44.5zM33.78 3.084v20.738h2.689V8.257l4.924-5.17v20.735h2.692V.5h-3.78l-3.836 4.017V.5H32.69l-6.529 6.779v16.543h2.693V8.258l4.924-5.174zM23.61 39.007h7.47v-4.92h-7.47v4.92zm10.267 0h7.527v-4.92h-7.527v4.92zm-12.95 2.573h10.154v2.92h2.796v-2.92h10.208V31.512H20.928V41.58zM2.975 8.258l4.923-5.172v18.149H2.975V8.258zm7.615 15.564V.5H6.81L.283 7.279v16.543H10.59z"/><path d="M61.224 7.5v-.873h-3.132V4.701h2.664v-.864h-2.664V1.965h3.132v-.873H57.12V7.5h4.104zm4.466-5.535h1.782v4.662H65.06c.477-.9.63-2.007.63-3.231V1.965zm-.936-.873v1.89c0 1.521-.225 2.781-.783 3.645h-.558V8.94h.945V7.5h3.888v1.44h.954V6.627h-.756V1.092h-3.69zM76.57 7.5V1.092h-.891l-2.862 4.644V1.092h-.972V7.5h.882l2.87-4.653V7.5h.973zm7.718 0V1.092h-.98v2.745h-2.593V1.092h-.972V7.5h.972V4.701h2.592V7.5h.981zm7.876 0l-2.34-6.408h-.783L86.692 7.5h1.026l.45-1.287h2.53l.45 1.287h1.016zm-1.728-2.115h-1.989l1.008-2.844.981 2.844zm6.1-.405h1.268V7.5h.981V1.092h-2.439c-1.215 0-2.043.756-2.043 1.944 0 .864.477 1.503 1.233 1.764l-1.395 2.7h1.152l1.242-2.52zm1.268-.873H96.41c-.702 0-1.134-.423-1.134-1.08 0-.666.432-1.071 1.134-1.071h1.395v2.151zM61.845 19.5v-6.408h-.89l-2.863 4.644v-4.644h-.972V19.5h.882l2.871-4.653V19.5h.972zm7.719 0v-6.408h-.981v2.745H65.99v-2.745h-.972V19.5h.972v-2.799h2.592V19.5h.98zm6.4-5.22c1.278.045 1.674.666 1.674 1.818 0 1.134-.424 1.773-1.675 1.827V14.28zm-.972 3.645c-1.252-.054-1.675-.693-1.675-1.827 0-1.152.397-1.773 1.675-1.818v3.645zm.971 1.62v-.801c1.882-.081 2.647-1.017 2.647-2.691 0-1.656-.838-2.52-2.647-2.61v-.621h-.971v.621c-1.81.09-2.647.954-2.647 2.61 0 1.674.766 2.61 2.647 2.691v.801h.971zm9.807-3.249c0-1.341-.018-1.98-.648-2.61-.414-.414-.954-.648-1.656-.648s-1.242.234-1.656.648c-.63.63-.648 1.269-.648 2.61s.018 1.98.648 2.61c.414.414.954.648 1.656.648s1.242-.234 1.656-.648c.63-.63.648-1.269.648-2.61zm-.972 0c0 1.269-.054 1.656-.378 1.989a1.296 1.296 0 01-.954.405c-.387 0-.711-.153-.954-.405-.315-.342-.378-.72-.378-1.989 0-1.269.063-1.656.378-1.998.243-.252.567-.396.954-.396s.71.144.954.396c.324.333.378.729.378 1.998zm8.398-1.26c0-1.116-.801-1.944-2.052-1.944h-2.43V19.5h.972v-2.529h1.458c1.251 0 2.052-.819 2.052-1.935zm-.972 0c0 .675-.45 1.071-1.134 1.071h-1.404v-2.142h1.404c.684 0 1.134.387 1.134 1.071zm9.258 4.464v-6.408h-.972l-1.845 3.987-1.872-3.987h-.963V19.5h.972v-4.284l1.503 3.123h.72l1.476-3.123V19.5h.981zm7.876 0l-2.339-6.408h-.783l-2.35 6.408h1.026l.451-1.287h2.529l.449 1.287h1.017zm-1.727-2.115h-1.989l1.007-2.844.982 2.844zm9.393 3.555v-2.313h-.756v-5.535h-.971v5.535h-2.593v-5.535h-.972V19.5h4.347v1.44h.945zm7.367-1.44v-6.408h-.891l-2.862 4.644v-4.644h-.972V19.5h.882l2.871-4.653V19.5h.972zm7.547-3.204c0-1.341-.018-1.98-.648-2.61-.414-.414-.953-.648-1.655-.648-.702 0-1.242.234-1.656.648-.63.63-.648 1.269-.648 2.61s.018 1.98.648 2.61c.414.414.954.648 1.656.648s1.241-.234 1.655-.648c.63-.63.648-1.269.648-2.61zm-.972 0c0 1.269-.053 1.656-.377 1.989a1.296 1.296 0 01-.954.405c-.387 0-.712-.153-.955-.405-.315-.342-.377-.72-.377-1.989 0-1.269.062-1.656.377-1.998a1.29 1.29 0 01.955-.396c.387 0 .711.144.954.396.324.333.377.729.377 1.998zm8.462 3.204v-6.408h-.981v2.745h-2.592v-2.745h-.972V19.5h.972v-2.799h2.592V19.5h.981zm7.714 0v-6.408h-.981v2.745h-2.592v-2.745h-.972V19.5h.972v-2.799h2.592V19.5h.981zm7.876 0l-2.34-6.408h-.783l-2.349 6.408h1.026l.45-1.287h2.529l.45 1.287h1.017zm-1.728-2.115h-1.989l1.008-2.844.981 2.844zm6.098-.405h1.269v2.52h.981v-6.408h-2.439c-1.215 0-2.043.756-2.043 1.944 0 .864.477 1.503 1.233 1.764l-1.395 2.7h1.152l1.242-2.52zm1.269-.873h-1.395c-.702 0-1.134-.423-1.134-1.08 0-.666.432-1.071 1.134-1.071h1.395v2.151zm-99.18 13.476h-.973c-.153.657-.603 1.107-1.314 1.107-.387 0-.71-.144-.945-.396-.324-.342-.387-.729-.387-1.998 0-1.269.063-1.656.387-1.998.234-.252.558-.396.945-.396.711 0 1.152.45 1.296 1.107h.99c-.225-1.269-1.107-1.971-2.286-1.971-.702 0-1.242.234-1.656.648-.62.63-.648 1.269-.648 2.61s.027 1.98.648 2.61c.414.414.954.648 1.656.648 1.17 0 2.061-.702 2.286-1.971zm7.52 1.917v-6.408h-.891l-2.862 4.644v-4.644h-.972V31.5h.882l2.87-4.653V31.5h.973zm7.529-1.917h-.972c-.153.657-.603 1.107-1.314 1.107-.387 0-.711-.144-.945-.396-.324-.342-.387-.729-.387-1.998 0-1.269.063-1.656.387-1.998.234-.252.558-.396.945-.396.711 0 1.152.45 1.296 1.107h.99c-.225-1.269-1.107-1.971-2.286-1.971-.702 0-1.242.234-1.656.648-.621.63-.648 1.269-.648 2.61s.027 1.98.648 2.61c.414.414.954.648 1.656.648 1.17 0 2.061-.702 2.286-1.971zm6.553-3.618v-.873h-4.5v.873h1.764V31.5h.972v-5.535h1.764zm6.707 5.535v-.873h-3.132v-1.926h2.664v-.864h-2.664v-1.872h3.132v-.873h-4.104V31.5h4.104zm8.47 0v-6.408h-.971l-1.845 3.987-1.872-3.987h-.963V31.5h.972v-4.284l1.503 3.123h.72l1.476-3.123V31.5h.98zm7.877 0l-2.34-6.408h-.783l-2.349 6.408h1.026l.45-1.287h2.529l.45 1.287h1.017zm-1.728-2.115h-1.989l1.008-2.844.981 2.844zM119.71 31.5l-2.61-3.384 2.376-3.024h-1.179l-2.268 3.051 2.466 3.357h1.215zm-7.146 0l2.466-3.357-2.277-3.051h-1.188l2.394 3.024-2.619 3.384h1.224zm3.456 0v-6.408h-.981V31.5h.981zm10.715 0v-6.408h-.891l-2.862 4.644v-4.644h-.972V31.5h.882l2.871-4.653V31.5h.972zm7.619 0v-6.408h-3.762v2.763c0 2.322-.513 2.772-1.224 2.772h-.171v.873h.405c1.287 0 1.935-.819 1.935-3.51v-2.025h1.845V31.5h.972zm7.905 0v-6.408h-.891l-2.862 4.644v-4.644h-.972V31.5h.882l2.871-4.653V31.5h.972zm11.184 1.44v-2.313h-.747v-5.535h-.981v5.535h-2.16v-5.535h-.981v5.535h-2.169v-5.535h-.972V31.5h7.056v1.44h.954zm7.175-1.44v-6.408h-.981v2.745h-2.592v-2.745h-.972V31.5h.972v-2.799h2.592V31.5h.981zm7.543-3.204c0-1.341-.018-1.98-.648-2.61-.414-.414-.954-.648-1.656-.648s-1.242.234-1.656.648c-.63.63-.648 1.269-.648 2.61s.018 1.98.648 2.61c.414.414.954.648 1.656.648s1.242-.234 1.656-.648c.63-.63.648-1.269.648-2.61zm-.972 0c0 1.269-.054 1.656-.378 1.989a1.296 1.296 0 01-.954.405c-.387 0-.711-.153-.954-.405-.315-.342-.378-.72-.378-1.989 0-1.269.063-1.656.378-1.998.243-.252.567-.396.954-.396s.711.144.954.396c.324.333.378.729.378 1.998zm7.903-2.331v-.873h-3.942V31.5h.972v-5.535h2.97zm6.976 2.331c0-1.341-.018-1.98-.648-2.61-.414-.414-.954-.648-1.656-.648s-1.242.234-1.656.648c-.63.63-.648 1.269-.648 2.61s.018 1.98.648 2.61c.414.414.954.648 1.656.648s1.242-.234 1.656-.648c.63-.63.648-1.269.648-2.61zm-.972 0c0 1.269-.054 1.656-.378 1.989a1.296 1.296 0 01-.954.405c-.387 0-.711-.153-.954-.405-.315-.342-.378-.72-.378-1.989 0-1.269.063-1.656.378-1.998.243-.252.567-.396.954-.396s.711.144.954.396c.324.333.378.729.378 1.998zM61.476 41.583h-.972c-.153.657-.603 1.107-1.314 1.107-.387 0-.71-.144-.945-.396-.324-.342-.387-.729-.387-1.998 0-1.269.063-1.656.387-1.998.234-.252.558-.396.945-.396.711 0 1.152.45 1.296 1.107h.99c-.225-1.269-1.107-1.971-2.286-1.971-.702 0-1.242.234-1.656.648-.62.63-.648 1.269-.648 2.61s.027 1.98.648 2.61c.414.414.954.648 1.656.648 1.17 0 2.061-.702 2.286-1.971zm6.553-3.618v-.873h-4.5v.873h1.764V43.5h.972v-5.535h1.764zm7.085 1.071c0-1.116-.801-1.944-2.052-1.944h-2.43V43.5h.972v-2.529h1.458c1.25 0 2.052-.819 2.052-1.935zm-.972 0c0 .675-.45 1.071-1.134 1.071h-1.404v-2.142h1.404c.684 0 1.134.387 1.134 1.071zm8.024 1.26c0-1.341-.018-1.98-.648-2.61-.414-.414-.954-.648-1.656-.648s-1.242.234-1.656.648c-.63.63-.648 1.269-.648 2.61s.018 1.98.648 2.61c.414.414.954.648 1.656.648s1.242-.234 1.656-.648c.63-.63.648-1.269.648-2.61zm-.972 0c0 1.269-.054 1.656-.378 1.989a1.296 1.296 0 01-.954.405c-.387 0-.71-.153-.954-.405-.315-.342-.378-.72-.378-1.989 0-1.269.063-1.656.378-1.998.243-.252.567-.396.954-.396s.711.144.954.396c.324.333.378.729.378 1.998zm8.641 3.204v-6.408h-.89l-2.863 4.644v-4.644h-.972V43.5h.882l2.871-4.653V43.5h.972zm7.107-5.535v-.873h-4.5v.873h1.764V43.5h.972v-5.535h1.764zm6.707 5.535v-.873h-3.132v-1.926h2.664v-.864h-2.664v-1.872h3.132v-.873h-4.104V43.5h4.104zm7.265 0v-6.408h-3.762v2.763c0 2.322-.513 2.772-1.224 2.772h-.171v.873h.405c1.287 0 1.935-.819 1.935-3.51v-2.025h1.845V43.5h.972zm7.671-1.944c0-1.152-.81-1.944-2.034-1.944h-1.485v-2.52h-.972V43.5h2.457c1.215 0 2.034-.792 2.034-1.944zm-.981 0c0 .666-.423 1.071-1.134 1.071h-1.404v-2.142h1.404c.711 0 1.134.414 1.134 1.071zm8.006.027h-.972c-.153.657-.603 1.107-1.314 1.107-.387 0-.711-.144-.945-.396-.324-.342-.387-.729-.387-1.998 0-1.269.063-1.656.387-1.998.234-.252.558-.396.945-.396.711 0 1.152.45 1.296 1.107h.99c-.225-1.269-1.107-1.971-2.286-1.971-.702 0-1.242.234-1.656.648-.621.63-.648 1.269-.648 2.61s.027 1.98.648 2.61c.414.414.954.648 1.656.648 1.17 0 2.061-.702 2.286-1.971zm6.553-3.618v-.873h-4.5v.873h1.764V43.5h.972v-5.535h1.764zm7.13 3.735c0-.729-.333-1.188-.963-1.485.567-.279.864-.747.864-1.395 0-1.044-.765-1.728-1.935-1.728h-2.493V43.5h2.592c1.197 0 1.935-.693 1.935-1.8zm-1.071-2.817c0 .576-.396.918-1.044.918h-1.44v-1.836h1.44c.648 0 1.044.342 1.044.918zm.09 2.763c0 .603-.405.981-1.053.981h-1.521v-1.953h1.521c.648 0 1.053.378 1.053.972zm8.541 1.854l-2.34-6.408h-.783l-2.349 6.408h1.026l.45-1.287h2.529l.45 1.287h1.017zm-1.728-2.115h-1.989l1.008-2.844.981 2.844z"/></g></svg>