<svg width="398" height="780" fill="none" xmlns="http://www.w3.org/2000/svg"><g filter="url(#filter0_b_324_74)"><path d="M198.75 780L0 483.125 198.75 186.25 397.5 483.125 198.75 780zM45.817 483.125L198.75 711.604l153.039-228.479-152.934-228.479L45.817 483.125z" fill="#F5F5F5" fill-opacity=".1"/><path d="M45.401 482.847l-.186.278.186.278 152.933 228.479.416.621.415-.621 153.039-228.479.186-.278-.186-.278-152.933-228.479-.416-.621-.415.621L45.401 482.847zm351.497.278L198.75 779.101.602 483.125 198.75 187.149l198.148 295.976z" stroke="#F5F5F5" stroke-opacity=".1"/></g><path d="M73.295 242.222l-.187.278.187.278 125.04 186.631.415.62.415-.619 125.126-186.632.187-.278-.187-.278L199.251 55.59l-.415-.62-.415.62L73.295 242.222zm287.353.278L198.75 484.102 36.852 242.5 198.75.898 360.648 242.5z" stroke="#F5F5F5" stroke-opacity=".5"/><defs><filter id="filter0_b_324_74" x="-20" y="166.25" width="437.5" height="633.75" filterUnits="userSpaceOnUse" color-interpolation-filters="sRGB"><feFlood flood-opacity="0" result="BackgroundImageFix"/><feGaussianBlur in="BackgroundImageFix" stdDeviation="10"/><feComposite in2="SourceAlpha" operator="in" result="effect1_backgroundBlur_324_74"/><feBlend in="SourceGraphic" in2="effect1_backgroundBlur_324_74" result="shape"/></filter></defs></svg>