<svg width="482" height="544" fill="none" xmlns="http://www.w3.org/2000/svg"><g filter="url(#filter0_b_324_77)"><path d="M182.5 544L0 272 182.5 0 365 272 182.5 544zM42.07 272L182.5 481.335 323.026 272 182.597 62.665 42.071 272z" fill="#F5F5F5" fill-opacity=".1"/><path d="M41.656 271.721l-.188.279.187.279 140.43 209.334.415.619.415-.619 140.526-209.334.187-.279-.187-.279L183.012 62.387l-.415-.619-.415.619L41.656 271.72zm322.742.279L182.5 543.103.602 272 182.5.897 364.398 272z" stroke="#F5F5F5" stroke-opacity=".1"/></g><path d="M158.656 271.721l-.187.279.186.279 140.43 209.334.415.619.415-.619 140.526-209.334.187-.279-.187-.279L300.012 62.387l-.415-.619-.415.619L158.656 271.72zm322.742.279L299.5 543.103 117.602 272 299.5.897 481.398 272z" stroke="#F5F5F5" stroke-opacity=".5"/><defs><filter id="filter0_b_324_77" x="-20" y="-20" width="405" height="584" filterUnits="userSpaceOnUse" color-interpolation-filters="sRGB"><feFlood flood-opacity="0" result="BackgroundImageFix"/><feGaussianBlur in="BackgroundImageFix" stdDeviation="10"/><feComposite in2="SourceAlpha" operator="in" result="effect1_backgroundBlur_324_77"/><feBlend in="SourceGraphic" in2="effect1_backgroundBlur_324_77" result="shape"/></filter></defs></svg>