<svg width="48" height="48" fill="none" xmlns="http://www.w3.org/2000/svg"><path d="M23.995 47.49C11.02 47.49.5 36.971.5 23.995S11.02.5 23.995.5C36.971.5 47.49 11.02 47.49 23.995c0 12.976-10.519 23.495-23.495 23.495z" fill="#F5F5F5" fill-opacity=".2" stroke="#F5F5F5"/><path d="M37.615 30.712a1.56 1.56 0 00-.917-1.776c-1.63-.976-3.24-2-4.879-2.995a1.727 1.727 0 00-2.44.41c-.731.878-1.463 1.756-2.185 2.644a.488.488 0 01-.732.166c-1.425-.976-2.927-1.835-4.264-2.928A19.283 19.283 0 0117.63 20.3c-.176-.312-.059-.527.195-.732l2.674-2.205a1.717 1.717 0 00.4-2.351c-1.064-1.728-2.147-3.455-3.21-5.182a1.298 1.298 0 00-1.269-.673c-.493.017-.985.06-1.473.127a4.186 4.186 0 00-2.87 1.463c-.42.577-.785 1.191-1.092 1.835a6.391 6.391 0 00-.81 3.669c.253 2.06.832 4.066 1.717 5.942a26.747 26.747 0 007.719 9.622 22.59 22.59 0 009.758 4.664 6.831 6.831 0 004.46-.39c.663-.332 1.297-.732 1.951-1.103a3.142 3.142 0 001.395-1.912c.235-.78.361-1.581.547-2.381l-.108.02zm-5.571 5.026a6.83 6.83 0 01-2.928-.225 21.038 21.038 0 01-8.782-4.303 25.888 25.888 0 01-7.719-9.592 18.615 18.615 0 01-1.551-5.601 5.045 5.045 0 01.575-2.772c.342-.732.8-1.415 1.181-2.088l4.88 7.416-.518.44a1.289 1.289 0 00-.322 1.678 20.705 20.705 0 009.231 9.25 1.318 1.318 0 001.718-.331l.42-.508 7.357 4.88a8.909 8.909 0 01-3.542 1.756z" fill="#F5F5F5"/></svg>