<svg width="256" height="64" fill="none" xmlns="http://www.w3.org/2000/svg"><path d="M115.84 24.96l4.864-3.584h-16.128v21.248h16.128V39.04h-11.52v-5.376h9.728V30.08h-9.728v-5.12h6.656zm-20.096 0l4.864-3.584H82.176v21.248h9.6c5.376 0 8.448-2.431 8.448-6.656 0-4.096-2.816-6.272-7.936-6.272h-5.632V24.96h9.088zm-4.096 8.193c2.944 0 4.224 1.023 4.224 2.944 0 1.92-1.408 2.944-4.224 2.944h-4.864v-5.888h4.864zm41.984-11.776h-8.704v21.247h4.608v-6.016h4.224c5.632 0 9.088-2.944 9.088-7.68s-3.584-7.552-9.216-7.552zm0 11.648h-4.096v-8.192h4.096c2.944 0 4.608 1.408 4.608 4.096-.128 2.688-1.664 4.096-4.608 4.096zm-59.264 4.992c-1.28.64-2.56 1.023-3.968 1.023-4.096 0-7.168-2.944-7.168-7.04s2.944-7.04 7.168-7.04c1.536 0 2.944.512 4.224 1.28l3.328-2.431-.256-.257c-1.92-1.663-4.48-2.56-7.424-2.56-3.2 0-6.016 1.024-8.192 3.072-2.048 2.049-3.328 4.864-3.2 7.808 0 2.944 1.152 5.76 3.2 7.937 2.176 2.047 5.12 3.2 8.064 3.072 3.328 0 6.144-1.153 8.192-3.2l-2.944-2.176-1.024.511zM212.48 30.08h-9.856v-8.703h-4.608v21.247h4.608V33.92h9.856v8.704h4.608V21.376h-4.608v8.704zm-31.104-8.703l-9.216 21.247h4.608l1.792-4.224h9.728l1.792 4.224h4.864l-8.96-21.248h-4.608zm-1.28 13.44l3.584-8.576 3.328 8.575h-6.912zm53.632-3.2l8.32-10.24H236.8l-6.912 9.088h-2.56v-9.088h-4.608v21.247h4.608v-8.576h2.944l7.04 8.576h5.888l-9.472-11.008zm-71.168-1.92h-5.632V24.96h12.032v-3.584h-16.64v21.247h9.6c5.376 0 8.448-2.431 8.448-6.656.128-4.096-2.688-6.272-7.808-6.272zm-.768 9.472h-4.864V33.28h4.864c2.944 0 4.224 1.023 4.224 2.944.128 1.92-1.408 2.944-4.224 2.944zM44.136 20.968a17.83 17.83 0 012.096 3.525L30.297 36.397l-6.66-4.23v-5.09l6.66 4.23 13.839-10.339zM16.841 31.807c0-.228.006-.455.017-.68l-4.036-.201a17.886 17.886 0 001.307 7.668 17.697 17.697 0 003.795 5.747l2.863-2.9a13.596 13.596 0 01-2.922-4.418 13.742 13.742 0 01-1.024-5.216zm13.453-13.632c.225 0 .449.008.671.02l.202-4.092a17.245 17.245 0 00-7.57 1.324 17.433 17.433 0 00-5.673 3.846l2.863 2.902a13.394 13.394 0 014.36-2.962 13.249 13.249 0 015.147-1.038zm0 27.266c-.226 0-.45 0-.673-.018l-.202 4.09a17.233 17.233 0 007.568-1.324 17.422 17.422 0 005.67-3.846l-2.857-2.9a13.404 13.404 0 01-4.36 2.96 13.257 13.257 0 01-5.146 1.038z" fill="#F5F5F5"/><path d="M37.877 20.554l3.4-2.541a17.27 17.27 0 00-10.989-3.933v4.094a13.26 13.26 0 017.589 2.38zm9.909 11.254a18.071 18.071 0 00-.275-3.177l-3.765 2.812v.365a13.754 13.754 0 01-1.156 5.53 13.607 13.607 0 01-3.275 4.574l2.716 3.042a17.674 17.674 0 004.256-5.953 17.882 17.882 0 001.5-7.193zM30.294 45.442c-1.88 0-3.739-.4-5.457-1.173a13.433 13.433 0 01-4.515-3.318l-3 2.75a17.455 17.455 0 005.874 4.315 17.249 17.249 0 007.098 1.52v-4.094zm-9.021-23.739l-2.715-3.041a17.672 17.672 0 00-4.257 5.952 17.882 17.882 0 00-1.5 7.194h4.04c0-1.905.394-3.789 1.157-5.53a13.607 13.607 0 013.275-4.575z" fill="#F5F5F5"/></svg>